{"glyphs":{"0":{"ha":1026,"x_min":57,"x_max":969,"o":"m 514 -17 q 294 19 382 -17 q 153 122 206 56 q 79 278 101 188 q 57 478 57 369 q 79 678 57 588 q 153 834 101 768 q 293 936 204 900 q 514 972 382 972 q 734 936 646 972 q 874 834 822 900 q 947 678 925 768 q 969 478 969 588 q 947 278 969 369 q 874 122 925 188 q 735 19 824 56 q 514 -17 647 -17 m 514 175 q 608 202 574 175 q 658 285 643 229 q 672 429 672 342 l 672 531 q 658 674 672 618 q 608 756 643 729 q 514 782 574 782 q 420 756 456 782 q 369 674 385 729 q 354 531 354 618 l 354 429 q 369 285 354 342 q 420 202 385 229 q 514 175 456 175 z "},"1":{"ha":971,"x_min":122,"x_max":928,"o":"m 122 0 l 122 224 l 386 224 l 386 646 l 122 646 l 122 807 q 279 833 196 811 q 442 889 363 856 q 583 957 522 922 l 681 957 l 681 224 l 928 224 l 928 0 l 122 0 z "},"2":{"ha":1025,"x_min":68,"x_max":958,"o":"m 68 0 l 68 68 q 99 185 68 131 q 179 285 129 239 q 289 374 229 332 q 410 457 349 415 q 524 533 471 499 q 612 601 578 567 q 646 675 646 635 q 631 725 646 703 q 585 761 617 747 q 503 775 554 775 q 420 758 454 775 q 368 713 386 742 q 350 646 350 683 l 350 618 l 72 618 q 71 634 71 626 q 71 649 71 642 q 122 819 71 747 q 276 932 174 892 q 532 972 378 972 q 704 953 628 972 q 835 897 781 935 q 918 806 889 860 q 947 685 947 753 q 917 566 947 619 q 834 467 886 513 q 719 382 782 422 q 589 304 656 342 q 540 276 563 289 q 502 255 518 264 q 476 240 486 246 l 958 240 l 958 0 l 68 0 z "},"3":{"ha":1028,"x_min":58,"x_max":969,"o":"m 517 -17 q 258 22 360 -17 q 108 123 157 60 q 58 261 58 186 l 58 290 l 332 290 l 332 264 q 372 201 332 226 q 496 176 413 176 q 630 211 592 176 q 668 301 668 246 q 653 356 668 335 q 612 388 638 378 q 556 399 586 399 l 435 399 l 435 575 l 531 575 q 587 586 561 575 q 628 619 613 597 q 643 672 643 640 q 627 726 643 701 q 578 766 611 751 q 496 781 546 781 q 425 768 457 781 q 374 735 393 756 q 356 690 356 714 l 356 674 l 93 674 l 93 711 q 143 842 93 783 q 289 937 193 901 q 522 972 385 972 q 750 938 657 972 q 891 844 843 903 q 939 713 939 786 q 919 621 939 664 q 864 547 899 578 q 782 501 829 517 l 782 496 q 920 412 871 474 q 969 260 969 350 q 919 121 968 183 q 771 21 871 58 q 517 -17 671 -17 z "},"4":{"ha":1032,"x_min":32,"x_max":1000,"o":"m 557 0 l 557 193 l 32 193 l 32 408 q 140 565 83 475 q 247 760 196 656 q 332 972 297 865 l 635 972 q 601 869 629 928 q 533 746 574 811 q 444 617 492 681 q 347 499 396 554 q 254 403 299 443 l 557 403 l 557 599 q 601 660 578 624 q 649 735 625 696 q 691 813 672 775 q 718 881 710 851 l 846 881 l 846 403 l 1000 403 l 1000 193 l 846 193 l 846 0 l 557 0 z "},"5":{"ha":1028,"x_min":54,"x_max":969,"o":"m 529 -17 q 268 24 374 -17 q 108 138 163 65 q 54 308 54 211 l 328 308 q 349 240 329 269 q 408 194 369 210 q 499 178 446 178 q 592 195 554 178 q 651 244 631 213 q 671 318 671 275 q 651 394 671 363 q 592 442 631 425 q 500 460 554 460 q 425 449 456 460 q 376 423 394 439 q 344 390 357 407 l 101 421 l 146 956 l 890 956 l 890 718 l 369 718 l 356 575 q 399 597 367 582 q 483 624 432 611 q 596 638 533 638 q 794 599 711 638 q 924 489 878 561 q 969 313 969 417 q 916 146 969 221 q 764 27 863 71 q 529 -17 665 -17 z "},"6":{"ha":1029,"x_min":57,"x_max":979,"o":"m 524 -17 q 320 12 407 -17 q 175 98 233 40 q 87 244 117 156 q 57 454 57 333 q 87 692 57 593 q 175 852 117 790 q 320 943 233 914 q 524 972 407 972 q 747 935 651 972 q 898 827 843 899 q 953 650 953 756 l 678 650 q 659 724 678 694 q 606 767 640 753 q 528 782 572 782 q 424 756 460 782 q 374 676 388 729 q 360 538 360 622 q 436 581 394 565 q 521 603 478 596 q 599 610 564 610 q 791 576 704 610 q 928 478 878 543 q 979 317 979 413 q 923 135 979 210 q 765 22 867 61 q 524 -17 663 -17 m 522 175 q 610 190 574 175 q 665 235 646 206 q 685 306 685 264 q 665 379 685 350 q 610 424 646 408 q 522 439 574 439 q 436 424 472 439 q 381 380 400 408 q 361 307 361 351 q 380 235 361 265 q 435 190 399 206 q 522 175 472 175 z "},"7":{"ha":988,"x_min":46,"x_max":951,"o":"m 232 0 q 257 194 232 99 q 328 381 282 290 q 436 554 374 471 q 571 714 499 638 l 46 714 l 46 956 l 951 956 l 951 826 q 837 692 893 761 q 732 551 781 624 q 647 403 683 479 q 590 247 610 328 q 569 82 569 167 l 569 0 l 232 0 z "},"8":{"ha":1039,"x_min":56,"x_max":983,"o":"m 518 -17 q 274 15 378 -17 q 113 110 169 47 q 56 263 56 172 q 103 399 56 349 q 226 485 150 449 q 121 584 147 538 q 94 690 94 631 q 151 844 94 782 q 305 940 208 907 q 518 972 401 972 q 733 940 636 972 q 886 844 829 907 q 943 690 943 782 q 917 583 943 629 q 813 485 890 536 q 937 399 890 449 q 983 263 983 349 q 926 110 983 172 q 764 15 868 47 q 518 -17 660 -17 m 518 175 q 639 203 596 175 q 682 286 682 232 q 638 368 682 340 q 518 396 593 396 q 401 368 444 396 q 357 286 357 340 q 399 203 357 232 q 518 175 442 175 m 518 578 q 638 603 593 578 q 682 679 682 629 q 639 756 682 731 q 518 782 596 782 q 399 756 442 782 q 357 679 357 731 q 401 603 357 629 q 518 578 444 578 z "},"9":{"ha":1029,"x_min":50,"x_max":972,"o":"m 507 -17 q 283 20 381 -17 q 132 128 186 57 q 78 306 78 200 l 353 306 q 372 233 353 263 q 424 189 390 203 q 503 175 458 175 q 607 201 571 175 q 656 281 643 228 q 669 418 669 335 q 594 376 636 392 q 510 353 551 360 q 432 346 468 346 q 239 379 325 346 q 101 478 153 413 q 50 639 50 544 q 106 820 50 746 q 265 933 163 894 q 507 972 368 972 q 710 944 622 972 q 856 858 797 915 q 943 711 914 800 q 972 501 972 622 q 943 264 972 363 q 856 103 914 165 q 710 13 797 42 q 507 -17 622 -17 m 507 517 q 594 532 558 517 q 650 576 631 547 q 669 647 669 606 q 650 721 669 692 q 594 765 631 750 q 507 781 558 781 q 420 765 457 781 q 364 722 383 750 q 344 649 344 693 q 364 577 344 607 q 419 532 383 547 q 507 517 456 517 z "},"A":{"ha":1203,"x_min":13,"x_max":1192,"o":"m 13 0 l 418 956 l 786 956 l 1192 0 l 844 0 l 796 131 l 394 131 l 347 0 l 13 0 m 479 357 l 713 357 l 657 514 q 644 549 651 528 q 630 594 638 569 q 615 644 622 619 q 601 689 608 669 l 592 689 q 574 633 585 664 q 554 570 564 601 q 535 514 544 539 l 479 357 z "},"Á":{"ha":1203,"x_min":13,"x_max":1192,"o":"m 13 0 l 418 956 l 786 956 l 1192 0 l 844 0 l 796 131 l 394 131 l 347 0 l 13 0 m 479 357 l 713 357 l 657 514 q 644 549 651 528 q 630 594 638 569 q 615 644 622 619 q 601 689 608 669 l 592 689 q 574 633 585 664 q 554 570 564 601 q 535 514 544 539 l 479 357 m 451 1044 l 594 1229 l 907 1229 l 908 1224 l 674 1044 l 451 1044 z "},"Ă":{"ha":1203,"x_min":13,"x_max":1192,"o":"m 13 0 l 418 956 l 786 956 l 1192 0 l 844 0 l 796 131 l 394 131 l 347 0 l 13 0 m 479 357 l 713 357 l 657 514 q 644 549 651 528 q 630 594 638 569 q 615 644 622 619 q 601 689 608 669 l 592 689 q 574 633 585 664 q 554 570 564 601 q 535 514 544 539 l 479 357 m 601 1026 q 447 1058 511 1026 q 348 1136 382 1089 q 314 1229 314 1183 l 464 1229 q 488 1197 468 1213 q 538 1170 508 1181 q 601 1160 568 1160 q 671 1171 640 1160 q 720 1199 701 1182 q 742 1229 739 1215 l 890 1229 q 855 1136 890 1183 q 755 1058 819 1089 q 601 1026 690 1026 z "},"Ắ":{"ha":1203,"x_min":13,"x_max":1192,"o":"m 13 0 l 418 956 l 786 956 l 1192 0 l 844 0 l 796 131 l 394 131 l 347 0 l 13 0 m 479 357 l 713 357 l 657 514 q 644 549 651 528 q 630 594 638 569 q 615 644 622 619 q 601 689 608 669 l 592 689 q 574 633 585 664 q 554 570 564 601 q 535 514 544 539 l 479 357 m 601 1026 q 447 1058 511 1026 q 348 1136 382 1089 q 314 1229 314 1183 l 464 1229 q 488 1197 468 1213 q 538 1170 508 1181 q 601 1160 568 1160 q 671 1171 640 1160 q 720 1199 701 1182 q 742 1229 739 1215 l 890 1229 q 855 1136 890 1183 q 755 1058 819 1089 q 601 1026 690 1026 m 451 1269 l 594 1454 l 907 1454 l 908 1449 l 674 1269 l 451 1269 z "},"Ặ":{"ha":1203,"x_min":13,"x_max":1192,"o":"m 13 0 l 418 956 l 786 956 l 1192 0 l 844 0 l 796 131 l 394 131 l 347 0 l 13 0 m 479 357 l 713 357 l 657 514 q 644 549 651 528 q 630 594 638 569 q 615 644 622 619 q 601 689 608 669 l 592 689 q 574 633 585 664 q 554 570 564 601 q 535 514 544 539 l 479 357 m 482 -276 l 482 -83 l 721 -83 l 721 -276 l 482 -276 m 601 1026 q 447 1058 511 1026 q 348 1136 382 1089 q 314 1229 314 1183 l 464 1229 q 488 1197 468 1213 q 538 1170 508 1181 q 601 1160 568 1160 q 671 1171 640 1160 q 720 1199 701 1182 q 742 1229 739 1215 l 890 1229 q 855 1136 890 1183 q 755 1058 819 1089 q 601 1026 690 1026 z "},"Ằ":{"ha":1203,"x_min":13,"x_max":1192,"o":"m 13 0 l 418 956 l 786 956 l 1192 0 l 844 0 l 796 131 l 394 131 l 347 0 l 13 0 m 479 357 l 713 357 l 657 514 q 644 549 651 528 q 630 594 638 569 q 615 644 622 619 q 601 689 608 669 l 592 689 q 574 633 585 664 q 554 570 564 601 q 535 514 544 539 l 479 357 m 601 1026 q 447 1058 511 1026 q 348 1136 382 1089 q 314 1229 314 1183 l 464 1229 q 488 1197 468 1213 q 538 1170 508 1181 q 601 1160 568 1160 q 671 1171 640 1160 q 720 1199 701 1182 q 742 1229 739 1215 l 890 1229 q 855 1136 890 1183 q 755 1058 819 1089 q 601 1026 690 1026 m 749 1269 l 526 1269 l 292 1449 l 293 1454 l 606 1454 l 749 1269 z "},"Ẳ":{"ha":1203,"x_min":13,"x_max":1192,"o":"m 13 0 l 418 956 l 786 956 l 1192 0 l 844 0 l 796 131 l 394 131 l 347 0 l 13 0 m 479 357 l 713 357 l 657 514 q 644 549 651 528 q 630 594 638 569 q 615 644 622 619 q 601 689 608 669 l 592 689 q 574 633 585 664 q 554 570 564 601 q 535 514 544 539 l 479 357 m 601 1026 q 447 1058 511 1026 q 348 1136 382 1089 q 314 1229 314 1183 l 464 1229 q 488 1197 468 1213 q 538 1170 508 1181 q 601 1160 568 1160 q 671 1171 640 1160 q 720 1199 701 1182 q 742 1229 739 1215 l 890 1229 q 855 1136 890 1183 q 755 1058 819 1089 q 601 1026 690 1026 m 538 1263 l 538 1338 l 549 1338 q 585 1342 576 1338 q 593 1361 593 1347 q 580 1381 593 1376 q 540 1385 567 1385 l 456 1385 l 456 1458 q 501 1465 474 1463 q 556 1468 528 1467 q 601 1469 583 1469 q 660 1465 626 1469 q 726 1449 694 1460 q 779 1421 758 1439 q 800 1375 800 1403 q 780 1332 800 1349 q 729 1308 760 1315 q 664 1297 699 1300 l 664 1263 l 538 1263 z "},"Ẵ":{"ha":1203,"x_min":13,"x_max":1192,"o":"m 13 0 l 418 956 l 786 956 l 1192 0 l 844 0 l 796 131 l 394 131 l 347 0 l 13 0 m 479 357 l 713 357 l 657 514 q 644 549 651 528 q 630 594 638 569 q 615 644 622 619 q 601 689 608 669 l 592 689 q 574 633 585 664 q 554 570 564 601 q 535 514 544 539 l 479 357 m 601 1026 q 447 1058 511 1026 q 348 1136 382 1089 q 314 1229 314 1183 l 464 1229 q 488 1197 468 1213 q 538 1170 508 1181 q 601 1160 568 1160 q 671 1171 640 1160 q 720 1199 701 1182 q 742 1229 739 1215 l 890 1229 q 855 1136 890 1183 q 755 1058 819 1089 q 601 1026 690 1026 m 258 1251 q 285 1346 258 1299 q 362 1424 313 1393 q 476 1454 411 1454 q 572 1440 526 1454 q 661 1411 618 1425 q 746 1397 704 1397 q 795 1413 775 1397 q 824 1454 815 1429 l 943 1454 q 916 1360 943 1407 q 840 1283 889 1314 q 725 1251 792 1251 q 628 1266 675 1251 q 540 1295 582 1281 q 456 1310 497 1310 q 407 1293 426 1310 q 378 1251 388 1276 l 258 1251 z "},"Ǎ":{"ha":1203,"x_min":13,"x_max":1192,"o":"m 13 0 l 418 956 l 786 956 l 1192 0 l 844 0 l 796 131 l 394 131 l 347 0 l 13 0 m 479 357 l 713 357 l 657 514 q 644 549 651 528 q 630 594 638 569 q 615 644 622 619 q 601 689 608 669 l 592 689 q 574 633 585 664 q 554 570 564 601 q 535 514 544 539 l 479 357 m 271 1229 l 488 1229 l 646 1094 l 557 1094 l 717 1229 l 933 1229 l 719 1036 l 485 1036 l 271 1229 z "},"Â":{"ha":1203,"x_min":13,"x_max":1192,"o":"m 13 0 l 418 956 l 786 956 l 1192 0 l 844 0 l 796 131 l 394 131 l 347 0 l 13 0 m 479 357 l 713 357 l 657 514 q 644 549 651 528 q 630 594 638 569 q 615 644 622 619 q 601 689 608 669 l 592 689 q 574 633 585 664 q 554 570 564 601 q 535 514 544 539 l 479 357 m 271 1036 l 485 1229 l 719 1229 l 933 1036 l 717 1036 l 557 1172 l 646 1172 l 488 1036 l 271 1036 z "},"Ấ":{"ha":1203,"x_min":13,"x_max":1192,"o":"m 13 0 l 418 956 l 786 956 l 1192 0 l 844 0 l 796 131 l 394 131 l 347 0 l 13 0 m 479 357 l 713 357 l 657 514 q 644 549 651 528 q 630 594 638 569 q 615 644 622 619 q 601 689 608 669 l 592 689 q 574 633 585 664 q 554 570 564 601 q 535 514 544 539 l 479 357 m 271 1036 l 485 1229 l 719 1229 l 933 1036 l 717 1036 l 557 1172 l 646 1172 l 488 1036 l 271 1036 m 451 1269 l 594 1454 l 907 1454 l 908 1449 l 674 1269 l 451 1269 z "},"Ậ":{"ha":1203,"x_min":13,"x_max":1192,"o":"m 13 0 l 418 956 l 786 956 l 1192 0 l 844 0 l 796 131 l 394 131 l 347 0 l 13 0 m 479 357 l 713 357 l 657 514 q 644 549 651 528 q 630 594 638 569 q 615 644 622 619 q 601 689 608 669 l 592 689 q 574 633 585 664 q 554 570 564 601 q 535 514 544 539 l 479 357 m 482 -276 l 482 -83 l 721 -83 l 721 -276 l 482 -276 m 271 1036 l 485 1229 l 719 1229 l 933 1036 l 717 1036 l 557 1172 l 646 1172 l 488 1036 l 271 1036 z "},"Ầ":{"ha":1203,"x_min":13,"x_max":1192,"o":"m 13 0 l 418 956 l 786 956 l 1192 0 l 844 0 l 796 131 l 394 131 l 347 0 l 13 0 m 479 357 l 713 357 l 657 514 q 644 549 651 528 q 630 594 638 569 q 615 644 622 619 q 601 689 608 669 l 592 689 q 574 633 585 664 q 554 570 564 601 q 535 514 544 539 l 479 357 m 271 1036 l 485 1229 l 719 1229 l 933 1036 l 717 1036 l 557 1172 l 646 1172 l 488 1036 l 271 1036 m 749 1269 l 526 1269 l 292 1449 l 293 1454 l 606 1454 l 749 1269 z "},"Ẩ":{"ha":1203,"x_min":13,"x_max":1192,"o":"m 13 0 l 418 956 l 786 956 l 1192 0 l 844 0 l 796 131 l 394 131 l 347 0 l 13 0 m 479 357 l 713 357 l 657 514 q 644 549 651 528 q 630 594 638 569 q 615 644 622 619 q 601 689 608 669 l 592 689 q 574 633 585 664 q 554 570 564 601 q 535 514 544 539 l 479 357 m 271 1036 l 485 1229 l 719 1229 l 933 1036 l 717 1036 l 557 1172 l 646 1172 l 488 1036 l 271 1036 m 538 1263 l 538 1338 l 549 1338 q 585 1342 576 1338 q 593 1361 593 1347 q 580 1381 593 1376 q 540 1385 567 1385 l 456 1385 l 456 1458 q 501 1465 474 1463 q 556 1468 528 1467 q 601 1469 583 1469 q 660 1465 626 1469 q 726 1449 694 1460 q 779 1421 758 1439 q 800 1375 800 1403 q 780 1332 800 1349 q 729 1308 760 1315 q 664 1297 699 1300 l 664 1263 l 538 1263 z "},"Ẫ":{"ha":1203,"x_min":13,"x_max":1192,"o":"m 13 0 l 418 956 l 786 956 l 1192 0 l 844 0 l 796 131 l 394 131 l 347 0 l 13 0 m 479 357 l 713 357 l 657 514 q 644 549 651 528 q 630 594 638 569 q 615 644 622 619 q 601 689 608 669 l 592 689 q 574 633 585 664 q 554 570 564 601 q 535 514 544 539 l 479 357 m 271 1036 l 485 1229 l 719 1229 l 933 1036 l 717 1036 l 557 1172 l 646 1172 l 488 1036 l 271 1036 m 258 1251 q 285 1346 258 1299 q 362 1424 313 1393 q 476 1454 411 1454 q 572 1440 526 1454 q 661 1411 618 1425 q 746 1397 704 1397 q 795 1413 775 1397 q 824 1454 815 1429 l 943 1454 q 916 1360 943 1407 q 840 1283 889 1314 q 725 1251 792 1251 q 628 1266 675 1251 q 540 1295 582 1281 q 456 1310 497 1310 q 407 1293 426 1310 q 378 1251 388 1276 l 258 1251 z "},"Ȁ":{"ha":1203,"x_min":13,"x_max":1192,"o":"m 13 0 l 418 956 l 786 956 l 1192 0 l 844 0 l 796 131 l 394 131 l 347 0 l 13 0 m 479 357 l 713 357 l 657 514 q 644 549 651 528 q 630 594 638 569 q 615 644 622 619 q 601 689 608 669 l 592 689 q 574 633 585 664 q 554 570 564 601 q 535 514 544 539 l 479 357 m 715 1044 l 500 1221 l 501 1229 l 786 1229 l 906 1044 l 715 1044 m 372 1044 l 156 1221 l 157 1229 l 442 1229 l 561 1044 l 372 1044 z "},"Ä":{"ha":1203,"x_min":13,"x_max":1192,"o":"m 13 0 l 418 956 l 786 956 l 1192 0 l 844 0 l 796 131 l 394 131 l 347 0 l 13 0 m 479 357 l 713 357 l 657 514 q 644 549 651 528 q 630 594 638 569 q 615 644 622 619 q 601 689 608 669 l 592 689 q 574 633 585 664 q 554 570 564 601 q 535 514 544 539 l 479 357 m 311 1029 l 311 1229 l 549 1229 l 549 1029 l 311 1029 m 654 1029 l 654 1229 l 893 1229 l 893 1029 l 654 1029 z "},"Ạ":{"ha":1203,"x_min":13,"x_max":1192,"o":"m 13 0 l 418 956 l 786 956 l 1192 0 l 844 0 l 796 131 l 394 131 l 347 0 l 13 0 m 479 357 l 713 357 l 657 514 q 644 549 651 528 q 630 594 638 569 q 615 644 622 619 q 601 689 608 669 l 592 689 q 574 633 585 664 q 554 570 564 601 q 535 514 544 539 l 479 357 m 482 -276 l 482 -83 l 721 -83 l 721 -276 l 482 -276 z "},"À":{"ha":1203,"x_min":13,"x_max":1192,"o":"m 13 0 l 418 956 l 786 956 l 1192 0 l 844 0 l 796 131 l 394 131 l 347 0 l 13 0 m 479 357 l 713 357 l 657 514 q 644 549 651 528 q 630 594 638 569 q 615 644 622 619 q 601 689 608 669 l 592 689 q 574 633 585 664 q 554 570 564 601 q 535 514 544 539 l 479 357 m 749 1044 l 526 1044 l 292 1224 l 293 1229 l 606 1229 l 749 1044 z "},"Ả":{"ha":1203,"x_min":13,"x_max":1192,"o":"m 13 0 l 418 956 l 786 956 l 1192 0 l 844 0 l 796 131 l 394 131 l 347 0 l 13 0 m 479 357 l 713 357 l 657 514 q 644 549 651 528 q 630 594 638 569 q 615 644 622 619 q 601 689 608 669 l 592 689 q 574 633 585 664 q 554 570 564 601 q 535 514 544 539 l 479 357 m 538 1038 l 538 1113 l 549 1113 q 585 1117 576 1113 q 593 1136 593 1122 q 580 1156 593 1151 q 540 1160 567 1160 l 456 1160 l 456 1233 q 501 1240 474 1238 q 556 1243 528 1242 q 601 1244 583 1244 q 660 1240 626 1244 q 726 1224 694 1235 q 779 1196 758 1214 q 800 1150 800 1178 q 780 1107 800 1124 q 729 1083 760 1090 q 664 1072 699 1075 l 664 1038 l 538 1038 z "},"Ȃ":{"ha":1203,"x_min":13,"x_max":1192,"o":"m 13 0 l 418 956 l 786 956 l 1192 0 l 844 0 l 796 131 l 394 131 l 347 0 l 13 0 m 479 357 l 713 357 l 657 514 q 644 549 651 528 q 630 594 638 569 q 615 644 622 619 q 601 689 608 669 l 592 689 q 574 633 585 664 q 554 570 564 601 q 535 514 544 539 l 479 357 m 314 1026 q 349 1122 314 1075 q 448 1199 383 1168 q 601 1229 513 1229 q 756 1199 692 1229 q 856 1122 821 1168 q 890 1026 890 1075 l 740 1026 q 719 1058 738 1042 q 671 1085 701 1074 q 601 1096 640 1096 q 539 1086 569 1096 q 488 1060 508 1076 q 463 1026 467 1044 l 314 1026 z "},"Ā":{"ha":1203,"x_min":13,"x_max":1192,"o":"m 13 0 l 418 956 l 786 956 l 1192 0 l 844 0 l 796 131 l 394 131 l 347 0 l 13 0 m 479 357 l 713 357 l 657 514 q 644 549 651 528 q 630 594 638 569 q 615 644 622 619 q 601 689 608 669 l 592 689 q 574 633 585 664 q 554 570 564 601 q 535 514 544 539 l 479 357 m 354 1036 l 354 1175 l 849 1175 l 849 1036 l 354 1036 z "},"Ą":{"ha":1203,"x_min":13,"x_max":1192,"o":"m 13 0 l 418 956 l 786 956 l 1192 0 l 844 0 l 796 131 l 394 131 l 347 0 l 13 0 m 479 357 l 713 357 l 657 514 q 644 549 651 528 q 630 594 638 569 q 615 644 622 619 q 601 689 608 669 l 592 689 q 574 633 585 664 q 554 570 564 601 q 535 514 544 539 l 479 357 m 974 -293 q 883 -277 926 -293 q 811 -226 839 -261 q 783 -135 783 -192 q 808 -47 783 -83 q 857 17 832 -11 l 1018 17 l 1018 11 q 980 -33 993 -6 q 967 -86 967 -60 q 985 -140 967 -115 q 1043 -164 1004 -164 l 1142 -164 l 1142 -272 q 1059 -287 1106 -282 q 974 -293 1013 -293 z "},"Å":{"ha":1203,"x_min":13,"x_max":1192,"o":"m 13 0 l 418 956 l 786 956 l 1192 0 l 844 0 l 796 131 l 394 131 l 347 0 l 13 0 m 479 357 l 713 357 l 657 514 q 644 549 651 528 q 630 594 638 569 q 615 644 622 619 q 601 689 608 669 l 592 689 q 574 633 585 664 q 553 569 564 601 q 535 514 543 538 l 479 357 m 601 1015 q 491 1056 535 1015 q 447 1163 447 1097 q 491 1269 447 1228 q 601 1311 535 1311 q 713 1269 669 1311 q 757 1163 757 1228 q 713 1057 757 1099 q 601 1015 668 1015 m 601 1110 q 642 1125 626 1110 q 658 1164 658 1140 q 642 1201 658 1186 q 601 1217 626 1217 q 560 1201 576 1217 q 544 1163 544 1186 q 560 1124 544 1139 q 601 1110 576 1110 z "},"Ǻ":{"ha":1203,"x_min":13,"x_max":1192,"o":"m 13 0 l 418 956 l 786 956 l 1192 0 l 844 0 l 796 131 l 394 131 l 347 0 l 13 0 m 479 357 l 713 357 l 657 514 q 644 549 651 528 q 630 594 638 569 q 615 644 622 619 q 601 689 608 669 l 592 689 q 574 633 585 664 q 553 569 564 601 q 535 514 543 538 l 479 357 m 601 1015 q 491 1056 535 1015 q 447 1163 447 1097 q 491 1269 447 1228 q 601 1311 535 1311 q 713 1269 669 1311 q 757 1163 757 1228 q 713 1057 757 1099 q 601 1015 668 1015 m 601 1110 q 642 1125 626 1110 q 658 1164 658 1140 q 642 1201 658 1186 q 601 1217 626 1217 q 560 1201 576 1217 q 544 1163 544 1186 q 560 1124 544 1139 q 601 1110 576 1110 m 451 1353 l 594 1538 l 907 1538 l 908 1532 l 674 1353 l 451 1353 z "},"Ã":{"ha":1203,"x_min":13,"x_max":1192,"o":"m 13 0 l 418 956 l 786 956 l 1192 0 l 844 0 l 796 131 l 394 131 l 347 0 l 13 0 m 479 357 l 713 357 l 657 514 q 644 549 651 528 q 630 594 638 569 q 615 644 622 619 q 601 689 608 669 l 592 689 q 574 633 585 664 q 554 570 564 601 q 535 514 544 539 l 479 357 m 258 1026 q 285 1121 258 1074 q 362 1199 313 1168 q 476 1229 411 1229 q 572 1215 526 1229 q 661 1187 618 1201 q 746 1172 704 1172 q 795 1188 775 1172 q 824 1229 815 1204 l 943 1229 q 916 1135 943 1182 q 840 1058 889 1089 q 725 1026 792 1026 q 628 1041 675 1026 q 540 1070 582 1056 q 456 1085 497 1085 q 407 1068 426 1085 q 378 1026 388 1051 l 258 1026 z "},"Æ":{"ha":1578,"x_min":-7,"x_max":1518,"o":"m -7 0 l 474 956 l 1508 956 l 1508 722 l 919 722 l 954 594 l 1422 594 l 1422 372 l 1017 372 l 1054 233 l 1518 233 l 1518 0 l 799 0 l 765 131 l 383 131 l 326 0 l -7 0 m 483 357 l 707 357 l 650 588 q 644 610 647 599 q 639 635 642 622 q 634 660 636 647 q 629 682 632 672 l 621 682 q 613 662 618 674 q 603 638 608 650 q 592 613 597 626 q 581 588 586 600 l 483 357 z "},"Ǽ":{"ha":1578,"x_min":-7,"x_max":1518,"o":"m -7 0 l 474 956 l 1508 956 l 1508 722 l 919 722 l 954 594 l 1422 594 l 1422 372 l 1017 372 l 1054 233 l 1518 233 l 1518 0 l 799 0 l 765 131 l 383 131 l 326 0 l -7 0 m 483 357 l 707 357 l 650 588 q 644 610 647 599 q 639 635 642 622 q 634 660 636 647 q 629 682 632 672 l 621 682 q 613 662 618 674 q 603 638 608 650 q 592 613 597 626 q 581 588 586 600 l 483 357 m 674 1044 l 818 1229 l 1129 1229 l 1131 1224 l 897 1044 l 674 1044 z "},"B":{"ha":1186,"x_min":103,"x_max":1131,"o":"m 103 0 l 103 956 l 833 956 q 971 926 908 956 q 1071 843 1033 896 q 1108 721 1108 790 q 1085 607 1108 651 q 1024 537 1063 563 q 942 499 986 511 l 942 493 q 1036 455 993 482 q 1105 379 1079 428 q 1131 254 1131 331 q 1092 121 1131 178 q 988 32 1053 64 q 842 0 922 0 l 103 0 m 428 222 l 721 222 q 777 244 756 222 q 799 311 799 267 q 789 349 799 332 q 761 376 779 367 q 721 386 743 386 l 428 386 l 428 222 m 428 583 l 699 583 q 740 594 724 583 q 767 624 757 604 q 776 672 776 643 q 753 724 776 703 q 699 746 731 746 l 428 746 l 428 583 z "},"C":{"ha":1193,"x_min":63,"x_max":1131,"o":"m 618 -17 q 310 40 433 -17 q 124 206 186 96 q 63 478 63 315 q 204 846 63 719 q 619 972 346 972 q 887 923 772 972 q 1066 782 1001 874 q 1131 563 1131 690 l 817 563 q 792 655 817 615 q 724 717 768 694 q 615 739 679 739 q 490 709 539 739 q 419 627 442 679 q 396 510 396 575 l 396 447 q 419 331 396 383 q 489 247 442 278 q 611 217 536 217 q 728 238 681 217 q 801 297 776 258 q 826 388 826 336 l 1131 388 q 1069 173 1131 264 q 894 33 1008 82 q 618 -17 779 -17 z "},"Ć":{"ha":1193,"x_min":63,"x_max":1131,"o":"m 618 -17 q 310 40 433 -17 q 124 206 186 96 q 63 478 63 315 q 204 846 63 719 q 619 972 346 972 q 887 923 772 972 q 1066 782 1001 874 q 1131 563 1131 690 l 817 563 q 792 655 817 615 q 724 717 768 694 q 615 739 679 739 q 490 709 539 739 q 419 627 442 679 q 396 510 396 575 l 396 447 q 419 331 396 383 q 489 247 442 278 q 611 217 536 217 q 728 238 681 217 q 801 297 776 258 q 826 388 826 336 l 1131 388 q 1069 173 1131 264 q 894 33 1008 82 q 618 -17 779 -17 m 458 1044 l 603 1229 l 914 1229 l 915 1224 l 682 1044 l 458 1044 z "},"Č":{"ha":1193,"x_min":63,"x_max":1131,"o":"m 618 -17 q 310 40 433 -17 q 124 206 186 96 q 63 478 63 315 q 204 846 63 719 q 619 972 346 972 q 887 923 772 972 q 1066 782 1001 874 q 1131 563 1131 690 l 817 563 q 792 655 817 615 q 724 717 768 694 q 615 739 679 739 q 490 709 539 739 q 419 627 442 679 q 396 510 396 575 l 396 447 q 419 331 396 383 q 489 247 442 278 q 611 217 536 217 q 728 238 681 217 q 801 297 776 258 q 826 388 826 336 l 1131 388 q 1069 173 1131 264 q 894 33 1008 82 q 618 -17 779 -17 m 279 1229 l 496 1229 l 654 1094 l 565 1094 l 725 1229 l 942 1229 l 728 1036 l 493 1036 l 279 1229 z "},"Ç":{"ha":1193,"x_min":63,"x_max":1131,"o":"m 618 -17 q 310 40 433 -17 q 124 206 186 96 q 63 478 63 315 q 204 846 63 719 q 619 972 346 972 q 887 923 772 972 q 1066 782 1001 874 q 1131 563 1131 690 l 817 563 q 792 655 817 615 q 724 717 768 694 q 615 739 679 739 q 490 709 539 739 q 419 627 442 679 q 396 510 396 575 l 396 447 q 419 331 396 383 q 489 247 442 278 q 611 217 536 217 q 728 238 681 217 q 801 297 776 258 q 826 388 826 336 l 1131 388 q 1069 173 1131 264 q 894 33 1008 82 q 618 -17 779 -17 m 622 -293 q 509 -287 568 -293 q 417 -271 450 -281 l 417 -192 l 583 -192 q 624 -187 608 -192 q 640 -161 640 -183 q 628 -134 640 -140 q 586 -128 617 -128 l 519 -128 l 550 54 l 694 54 l 676 -40 q 735 -56 706 -43 q 785 -96 765 -69 q 806 -165 806 -122 q 787 -229 806 -204 q 739 -268 768 -254 q 678 -287 710 -282 q 622 -293 647 -293 z "},"Ĉ":{"ha":1193,"x_min":63,"x_max":1131,"o":"m 618 -17 q 310 40 433 -17 q 124 206 186 96 q 63 478 63 315 q 204 846 63 719 q 619 972 346 972 q 887 923 772 972 q 1066 782 1001 874 q 1131 563 1131 690 l 817 563 q 792 655 817 615 q 724 717 768 694 q 615 739 679 739 q 490 709 539 739 q 419 627 442 679 q 396 510 396 575 l 396 447 q 419 331 396 383 q 489 247 442 278 q 611 217 536 217 q 728 238 681 217 q 801 297 776 258 q 826 388 826 336 l 1131 388 q 1069 173 1131 264 q 894 33 1008 82 q 618 -17 779 -17 m 279 1036 l 493 1229 l 728 1229 l 942 1036 l 725 1036 l 565 1172 l 654 1172 l 496 1036 l 279 1036 z "},"Ċ":{"ha":1193,"x_min":63,"x_max":1131,"o":"m 618 -17 q 310 40 433 -17 q 124 206 186 96 q 63 478 63 315 q 204 846 63 719 q 619 972 346 972 q 887 923 772 972 q 1066 782 1001 874 q 1131 563 1131 690 l 817 563 q 792 655 817 615 q 724 717 768 694 q 615 739 679 739 q 490 709 539 739 q 419 627 442 679 q 396 510 396 575 l 396 447 q 419 331 396 383 q 489 247 442 278 q 611 217 536 217 q 728 238 681 217 q 801 297 776 258 q 826 388 826 336 l 1131 388 q 1069 173 1131 264 q 894 33 1008 82 q 618 -17 779 -17 m 492 1029 l 492 1229 l 731 1229 l 731 1029 l 492 1029 z "},"D":{"ha":1189,"x_min":103,"x_max":1126,"o":"m 103 0 l 103 956 l 588 956 q 878 902 758 956 q 1063 742 999 849 q 1126 478 1126 636 q 1063 214 1126 321 q 878 53 999 107 q 588 0 758 0 l 103 0 m 428 233 l 575 233 q 669 249 628 233 q 738 292 710 264 q 779 360 765 321 q 793 450 793 400 l 793 508 q 779 597 793 557 q 738 665 765 636 q 669 708 710 693 q 575 722 628 722 l 428 722 l 428 233 z "},"Ǆ":{"ha":2285,"x_min":103,"x_max":2242,"o":"m 103 0 l 103 956 l 588 956 q 878 902 758 956 q 1063 742 999 849 q 1126 478 1126 636 q 1063 214 1126 321 q 878 53 999 107 q 588 0 758 0 l 103 0 m 428 233 l 575 233 q 669 249 628 233 q 738 292 710 264 q 779 360 765 321 q 793 450 793 400 l 793 508 q 779 597 793 557 q 738 665 765 636 q 669 708 710 693 q 575 722 628 722 l 428 722 l 428 233 m 1208 0 l 1208 99 l 1707 722 l 1246 722 l 1246 956 l 2229 956 l 2229 857 l 1731 233 l 2242 233 l 2242 0 l 1208 0 m 1401 1229 l 1618 1229 l 1776 1094 l 1688 1094 l 1847 1229 l 2064 1229 l 1850 1036 l 1615 1036 l 1401 1229 z "},"Ð":{"ha":1189,"x_min":0,"x_max":1126,"o":"m 0 383 l 0 578 l 607 578 l 607 383 l 0 383 m 103 0 l 103 956 l 588 956 q 878 902 758 956 q 1063 742 999 849 q 1126 478 1126 636 q 1063 214 1126 321 q 878 53 999 107 q 588 0 758 0 l 103 0 m 428 233 l 575 233 q 669 249 628 233 q 738 292 710 264 q 779 360 765 321 q 793 450 793 400 l 793 508 q 779 597 793 557 q 738 665 765 636 q 669 708 710 693 q 575 722 628 722 l 428 722 l 428 233 z "},"Ď":{"ha":1189,"x_min":103,"x_max":1126,"o":"m 103 0 l 103 956 l 588 956 q 878 902 758 956 q 1063 742 999 849 q 1126 478 1126 636 q 1063 214 1126 321 q 878 53 999 107 q 588 0 758 0 l 103 0 m 428 233 l 575 233 q 669 249 628 233 q 738 292 710 264 q 779 360 765 321 q 793 450 793 400 l 793 508 q 779 597 793 557 q 738 665 765 636 q 669 708 710 693 q 575 722 628 722 l 428 722 l 428 233 m 261 1229 l 478 1229 l 636 1094 l 547 1094 l 707 1229 l 924 1229 l 710 1036 l 475 1036 l 261 1229 z "},"Đ":{"ha":1189,"x_min":0,"x_max":1126,"o":"m 0 383 l 0 578 l 607 578 l 607 383 l 0 383 m 103 0 l 103 956 l 588 956 q 878 902 758 956 q 1063 742 999 849 q 1126 478 1126 636 q 1063 214 1126 321 q 878 53 999 107 q 588 0 758 0 l 103 0 m 428 233 l 575 233 q 669 249 628 233 q 738 292 710 264 q 779 360 765 321 q 793 450 793 400 l 793 508 q 779 597 793 557 q 738 665 765 636 q 669 708 710 693 q 575 722 628 722 l 428 722 l 428 233 z "},"ǅ":{"ha":2050,"x_min":103,"x_max":2018,"o":"m 103 0 l 103 956 l 588 956 q 878 902 758 956 q 1063 742 999 849 q 1126 478 1126 636 q 1063 214 1126 321 q 878 53 999 107 q 588 0 758 0 l 103 0 m 428 233 l 575 233 q 669 249 628 233 q 738 292 710 264 q 779 360 765 321 q 793 450 793 400 l 793 508 q 779 597 793 557 q 738 665 765 636 q 669 708 710 693 q 575 722 628 722 l 428 722 l 428 233 m 1219 0 l 1219 90 l 1569 542 l 1239 542 l 1239 733 l 2006 733 l 2006 647 l 1651 192 l 2018 192 l 2018 0 l 1219 0 m 1293 1007 l 1506 1007 l 1664 872 l 1575 872 l 1735 1007 l 1949 1007 l 1735 814 l 1507 814 l 1293 1007 z "},"E":{"ha":1099,"x_min":106,"x_max":1039,"o":"m 106 0 l 106 956 l 1029 956 l 1029 722 l 431 722 l 431 594 l 944 594 l 944 372 l 431 372 l 431 233 l 1039 233 l 1039 0 l 106 0 z "},"É":{"ha":1099,"x_min":106,"x_max":1039,"o":"m 106 0 l 106 956 l 1029 956 l 1029 722 l 431 722 l 431 594 l 944 594 l 944 372 l 431 372 l 431 233 l 1039 233 l 1039 0 l 106 0 m 421 1044 l 565 1229 l 876 1229 l 878 1224 l 644 1044 l 421 1044 z "},"Ĕ":{"ha":1099,"x_min":106,"x_max":1039,"o":"m 106 0 l 106 956 l 1029 956 l 1029 722 l 431 722 l 431 594 l 944 594 l 944 372 l 431 372 l 431 233 l 1039 233 l 1039 0 l 106 0 m 571 1026 q 417 1058 481 1026 q 318 1136 353 1089 q 283 1229 283 1183 l 433 1229 q 458 1197 438 1213 q 508 1170 478 1181 q 572 1160 539 1160 q 640 1171 610 1160 q 690 1199 671 1182 q 711 1229 710 1215 l 860 1229 q 825 1135 860 1182 q 725 1058 790 1089 q 571 1026 660 1026 z "},"Ě":{"ha":1099,"x_min":106,"x_max":1039,"o":"m 106 0 l 106 956 l 1029 956 l 1029 722 l 431 722 l 431 594 l 944 594 l 944 372 l 431 372 l 431 233 l 1039 233 l 1039 0 l 106 0 m 242 1229 l 458 1229 l 617 1094 l 528 1094 l 688 1229 l 904 1229 l 690 1036 l 456 1036 l 242 1229 z "},"Ê":{"ha":1099,"x_min":106,"x_max":1039,"o":"m 106 0 l 106 956 l 1029 956 l 1029 722 l 431 722 l 431 594 l 944 594 l 944 372 l 431 372 l 431 233 l 1039 233 l 1039 0 l 106 0 m 242 1036 l 456 1229 l 690 1229 l 904 1036 l 688 1036 l 528 1172 l 617 1172 l 458 1036 l 242 1036 z "},"Ế":{"ha":1099,"x_min":106,"x_max":1039,"o":"m 106 0 l 106 956 l 1029 956 l 1029 722 l 431 722 l 431 594 l 944 594 l 944 372 l 431 372 l 431 233 l 1039 233 l 1039 0 l 106 0 m 242 1036 l 456 1229 l 690 1229 l 904 1036 l 688 1036 l 528 1172 l 617 1172 l 458 1036 l 242 1036 m 421 1269 l 565 1454 l 876 1454 l 878 1449 l 644 1269 l 421 1269 z "},"Ệ":{"ha":1099,"x_min":106,"x_max":1039,"o":"m 106 0 l 106 956 l 1029 956 l 1029 722 l 431 722 l 431 594 l 944 594 l 944 372 l 431 372 l 431 233 l 1039 233 l 1039 0 l 106 0 m 454 -276 l 454 -83 l 693 -83 l 693 -276 l 454 -276 m 242 1036 l 456 1229 l 690 1229 l 904 1036 l 688 1036 l 528 1172 l 617 1172 l 458 1036 l 242 1036 z "},"Ề":{"ha":1099,"x_min":106,"x_max":1039,"o":"m 106 0 l 106 956 l 1029 956 l 1029 722 l 431 722 l 431 594 l 944 594 l 944 372 l 431 372 l 431 233 l 1039 233 l 1039 0 l 106 0 m 242 1036 l 456 1229 l 690 1229 l 904 1036 l 688 1036 l 528 1172 l 617 1172 l 458 1036 l 242 1036 m 719 1269 l 496 1269 l 263 1449 l 264 1454 l 575 1454 l 719 1269 z "},"Ể":{"ha":1099,"x_min":106,"x_max":1039,"o":"m 106 0 l 106 956 l 1029 956 l 1029 722 l 431 722 l 431 594 l 944 594 l 944 372 l 431 372 l 431 233 l 1039 233 l 1039 0 l 106 0 m 242 1036 l 456 1229 l 690 1229 l 904 1036 l 688 1036 l 528 1172 l 617 1172 l 458 1036 l 242 1036 m 508 1263 l 508 1338 l 518 1338 q 555 1342 547 1338 q 563 1361 563 1347 q 549 1381 563 1376 q 511 1385 536 1385 l 426 1385 l 426 1458 q 472 1465 444 1463 q 526 1468 499 1467 q 572 1469 554 1469 q 631 1465 597 1469 q 697 1449 665 1460 q 749 1421 728 1439 q 771 1375 771 1403 q 750 1331 771 1347 q 699 1308 729 1315 q 635 1297 668 1300 l 635 1263 l 508 1263 z "},"Ễ":{"ha":1099,"x_min":106,"x_max":1039,"o":"m 106 0 l 106 956 l 1029 956 l 1029 722 l 431 722 l 431 594 l 944 594 l 944 372 l 431 372 l 431 233 l 1039 233 l 1039 0 l 106 0 m 242 1036 l 456 1229 l 690 1229 l 904 1036 l 688 1036 l 528 1172 l 617 1172 l 458 1036 l 242 1036 m 229 1251 q 256 1346 229 1299 q 333 1424 283 1393 q 447 1454 382 1454 q 543 1440 497 1454 q 632 1411 589 1425 q 717 1397 675 1397 q 766 1413 746 1397 q 793 1454 786 1429 l 913 1454 q 885 1360 913 1407 q 810 1283 858 1314 q 696 1251 761 1251 q 599 1266 646 1251 q 510 1295 553 1281 q 426 1310 467 1310 q 377 1293 397 1310 q 349 1251 357 1276 l 229 1251 z "},"Ȅ":{"ha":1099,"x_min":106,"x_max":1039,"o":"m 106 0 l 106 956 l 1029 956 l 1029 722 l 431 722 l 431 594 l 944 594 l 944 372 l 431 372 l 431 233 l 1039 233 l 1039 0 l 106 0 m 686 1044 l 469 1221 l 471 1229 l 757 1229 l 875 1044 l 686 1044 m 342 1044 l 126 1221 l 128 1229 l 413 1229 l 532 1044 l 342 1044 z "},"Ë":{"ha":1099,"x_min":106,"x_max":1039,"o":"m 106 0 l 106 956 l 1029 956 l 1029 722 l 431 722 l 431 594 l 944 594 l 944 372 l 431 372 l 431 233 l 1039 233 l 1039 0 l 106 0 m 281 1029 l 281 1229 l 518 1229 l 518 1029 l 281 1029 m 624 1029 l 624 1229 l 863 1229 l 863 1029 l 624 1029 z "},"Ė":{"ha":1099,"x_min":106,"x_max":1039,"o":"m 106 0 l 106 956 l 1029 956 l 1029 722 l 431 722 l 431 594 l 944 594 l 944 372 l 431 372 l 431 233 l 1039 233 l 1039 0 l 106 0 m 454 1029 l 454 1229 l 693 1229 l 693 1029 l 454 1029 z "},"Ẹ":{"ha":1099,"x_min":106,"x_max":1039,"o":"m 106 0 l 106 956 l 1029 956 l 1029 722 l 431 722 l 431 594 l 944 594 l 944 372 l 431 372 l 431 233 l 1039 233 l 1039 0 l 106 0 m 454 -276 l 454 -83 l 693 -83 l 693 -276 l 454 -276 z "},"È":{"ha":1099,"x_min":106,"x_max":1039,"o":"m 106 0 l 106 956 l 1029 956 l 1029 722 l 431 722 l 431 594 l 944 594 l 944 372 l 431 372 l 431 233 l 1039 233 l 1039 0 l 106 0 m 719 1044 l 496 1044 l 263 1224 l 263 1229 l 575 1229 l 719 1044 z "},"Ẻ":{"ha":1099,"x_min":106,"x_max":1039,"o":"m 106 0 l 106 956 l 1029 956 l 1029 722 l 431 722 l 431 594 l 944 594 l 944 372 l 431 372 l 431 233 l 1039 233 l 1039 0 l 106 0 m 508 1038 l 508 1113 l 518 1113 q 555 1117 547 1113 q 563 1136 563 1121 q 549 1156 563 1151 q 511 1160 536 1160 l 426 1160 l 426 1233 q 472 1240 444 1238 q 526 1243 499 1242 q 572 1244 554 1244 q 631 1240 597 1244 q 697 1224 665 1235 q 749 1196 728 1214 q 771 1149 771 1178 q 751 1106 771 1122 q 699 1083 731 1090 q 635 1072 668 1075 l 635 1038 l 508 1038 z "},"Ȇ":{"ha":1099,"x_min":106,"x_max":1039,"o":"m 106 0 l 106 956 l 1029 956 l 1029 722 l 431 722 l 431 594 l 944 594 l 944 372 l 431 372 l 431 233 l 1039 233 l 1039 0 l 106 0 m 283 1026 q 318 1122 283 1075 q 418 1199 353 1168 q 572 1229 483 1229 q 726 1199 661 1229 q 825 1122 790 1168 q 860 1026 860 1075 l 711 1026 q 690 1058 708 1042 q 640 1085 671 1074 q 572 1096 610 1096 q 508 1086 539 1096 q 458 1060 478 1076 q 433 1026 438 1044 l 283 1026 z "},"Ē":{"ha":1099,"x_min":106,"x_max":1039,"o":"m 106 0 l 106 956 l 1029 956 l 1029 722 l 431 722 l 431 594 l 944 594 l 944 372 l 431 372 l 431 233 l 1039 233 l 1039 0 l 106 0 m 324 1036 l 324 1175 l 819 1175 l 819 1036 l 324 1036 z "},"Ę":{"ha":1099,"x_min":106,"x_max":1039,"o":"m 106 0 l 106 956 l 1029 956 l 1029 722 l 431 722 l 431 594 l 944 594 l 944 372 l 431 372 l 431 233 l 1039 233 l 1039 0 l 106 0 m 871 -293 q 780 -277 824 -293 q 709 -226 736 -261 q 682 -135 682 -192 q 706 -47 682 -83 q 754 17 731 -11 l 915 17 l 915 11 q 877 -33 890 -6 q 864 -86 864 -60 q 883 -140 864 -115 q 940 -164 903 -164 l 1039 -164 l 1039 -272 q 957 -287 1003 -282 q 871 -293 911 -293 z "},"Ẽ":{"ha":1099,"x_min":106,"x_max":1039,"o":"m 106 0 l 106 956 l 1029 956 l 1029 722 l 431 722 l 431 594 l 944 594 l 944 372 l 431 372 l 431 233 l 1039 233 l 1039 0 l 106 0 m 229 1026 q 256 1121 229 1074 q 333 1199 283 1168 q 447 1229 382 1229 q 543 1215 497 1229 q 632 1187 589 1201 q 717 1172 675 1172 q 766 1188 746 1172 q 793 1229 786 1204 l 913 1229 q 885 1135 913 1182 q 810 1058 858 1089 q 696 1026 761 1026 q 599 1041 646 1026 q 510 1070 553 1056 q 426 1085 467 1085 q 377 1068 397 1085 q 349 1026 357 1051 l 229 1026 z "},"F":{"ha":1024,"x_min":103,"x_max":972,"o":"m 103 0 l 103 956 l 972 956 l 972 722 l 428 722 l 428 560 l 901 560 l 901 332 l 428 332 l 428 0 l 103 0 z "},"G":{"ha":1282,"x_min":63,"x_max":1190,"o":"m 592 -17 q 195 107 328 -17 q 63 478 63 231 q 132 751 63 642 q 333 917 201 861 q 649 972 464 972 q 858 949 760 972 q 1031 881 956 926 q 1148 768 1106 836 q 1190 610 1190 700 l 876 610 q 860 665 876 640 q 813 706 843 689 q 744 731 783 722 q 663 739 706 739 q 546 724 596 739 q 463 678 496 708 q 413 606 429 649 q 396 508 396 564 l 396 447 q 424 321 396 372 q 510 243 453 269 q 653 217 567 217 q 763 231 713 217 q 845 271 814 244 q 876 333 876 297 l 876 339 l 622 339 l 622 533 l 1190 533 l 1190 0 l 1014 0 l 983 100 q 876 36 935 63 q 747 -3 817 10 q 592 -17 676 -17 z "},"Ğ":{"ha":1282,"x_min":63,"x_max":1190,"o":"m 592 -17 q 195 107 328 -17 q 63 478 63 231 q 132 751 63 642 q 333 917 201 861 q 649 972 464 972 q 858 949 760 972 q 1031 881 956 926 q 1148 768 1106 836 q 1190 610 1190 700 l 876 610 q 860 665 876 640 q 813 706 843 689 q 744 731 783 722 q 663 739 706 739 q 546 724 596 739 q 463 678 496 708 q 413 606 429 649 q 396 508 396 564 l 396 447 q 424 321 396 372 q 510 243 453 269 q 653 217 567 217 q 763 231 713 217 q 845 271 814 244 q 876 333 876 297 l 876 339 l 622 339 l 622 533 l 1190 533 l 1190 0 l 1014 0 l 983 100 q 876 36 935 63 q 747 -3 817 10 q 592 -17 676 -17 m 639 1026 q 484 1058 549 1026 q 385 1136 419 1089 q 351 1229 351 1183 l 501 1229 q 526 1197 506 1213 q 576 1170 546 1181 q 639 1160 606 1160 q 708 1171 678 1160 q 758 1199 739 1182 q 779 1229 776 1215 l 928 1229 q 892 1136 928 1183 q 792 1058 857 1089 q 639 1026 728 1026 z "},"Ǧ":{"ha":1282,"x_min":63,"x_max":1190,"o":"m 592 -17 q 195 107 328 -17 q 63 478 63 231 q 132 751 63 642 q 333 917 201 861 q 649 972 464 972 q 858 949 760 972 q 1031 881 956 926 q 1148 768 1106 836 q 1190 610 1190 700 l 876 610 q 860 665 876 640 q 813 706 843 689 q 744 731 783 722 q 663 739 706 739 q 546 724 596 739 q 463 678 496 708 q 413 606 429 649 q 396 508 396 564 l 396 447 q 424 321 396 372 q 510 243 453 269 q 653 217 567 217 q 763 231 713 217 q 845 271 814 244 q 876 333 876 297 l 876 339 l 622 339 l 622 533 l 1190 533 l 1190 0 l 1014 0 l 983 100 q 876 36 935 63 q 747 -3 817 10 q 592 -17 676 -17 m 308 1229 l 525 1229 l 683 1094 l 594 1094 l 754 1229 l 971 1229 l 757 1036 l 522 1036 l 308 1229 z "},"Ĝ":{"ha":1282,"x_min":63,"x_max":1190,"o":"m 592 -17 q 195 107 328 -17 q 63 478 63 231 q 132 751 63 642 q 333 917 201 861 q 649 972 464 972 q 858 949 760 972 q 1031 881 956 926 q 1148 768 1106 836 q 1190 610 1190 700 l 876 610 q 860 665 876 640 q 813 706 843 689 q 744 731 783 722 q 663 739 706 739 q 546 724 596 739 q 463 678 496 708 q 413 606 429 649 q 396 508 396 564 l 396 447 q 424 321 396 372 q 510 243 453 269 q 653 217 567 217 q 763 231 713 217 q 845 271 814 244 q 876 333 876 297 l 876 339 l 622 339 l 622 533 l 1190 533 l 1190 0 l 1014 0 l 983 100 q 876 36 935 63 q 747 -3 817 10 q 592 -17 676 -17 m 308 1036 l 522 1229 l 757 1229 l 971 1036 l 754 1036 l 594 1172 l 683 1172 l 525 1036 l 308 1036 z "},"Ģ":{"ha":1282,"x_min":63,"x_max":1190,"o":"m 592 -17 q 195 107 328 -17 q 63 478 63 231 q 132 751 63 642 q 333 917 201 861 q 649 972 464 972 q 858 949 760 972 q 1031 881 956 926 q 1148 768 1106 836 q 1190 610 1190 700 l 876 610 q 860 665 876 640 q 813 706 843 689 q 744 731 783 722 q 663 739 706 739 q 546 724 596 739 q 463 678 496 708 q 413 606 429 649 q 396 508 396 564 l 396 447 q 424 321 396 372 q 510 243 453 269 q 653 217 567 217 q 763 231 713 217 q 845 271 814 244 q 876 333 876 297 l 876 339 l 622 339 l 622 533 l 1190 533 l 1190 0 l 1014 0 l 983 100 q 876 36 935 63 q 747 -3 817 10 q 592 -17 676 -17 m 499 -535 l 499 -425 q 599 -392 565 -422 q 632 -306 632 -362 l 499 -306 l 499 -76 l 776 -76 l 776 -271 q 747 -415 776 -358 q 656 -501 717 -472 q 499 -535 594 -531 z "},"Ġ":{"ha":1282,"x_min":63,"x_max":1190,"o":"m 592 -17 q 195 107 328 -17 q 63 478 63 231 q 132 751 63 642 q 333 917 201 861 q 649 972 464 972 q 858 949 760 972 q 1031 881 956 926 q 1148 768 1106 836 q 1190 610 1190 700 l 876 610 q 860 665 876 640 q 813 706 843 689 q 744 731 783 722 q 663 739 706 739 q 546 724 596 739 q 463 678 496 708 q 413 606 429 649 q 396 508 396 564 l 396 447 q 424 321 396 372 q 510 243 453 269 q 653 217 567 217 q 763 231 713 217 q 845 271 814 244 q 876 333 876 297 l 876 339 l 622 339 l 622 533 l 1190 533 l 1190 0 l 1014 0 l 983 100 q 876 36 935 63 q 747 -3 817 10 q 592 -17 676 -17 m 521 1029 l 521 1229 l 760 1229 l 760 1029 l 521 1029 z "},"H":{"ha":1279,"x_min":103,"x_max":1176,"o":"m 103 0 l 103 956 l 428 956 l 428 613 l 851 613 l 851 956 l 1176 956 l 1176 0 l 851 0 l 851 358 l 428 358 l 428 0 l 103 0 z "},"Ħ":{"ha":1279,"x_min":-10,"x_max":1289,"o":"m 103 0 l 103 956 l 428 956 l 428 613 l 851 613 l 851 956 l 1176 956 l 1176 0 l 851 0 l 851 358 l 428 358 l 428 0 l 103 0 m -10 699 l -10 868 l 1289 868 l 1289 699 l -10 699 z "},"Ĥ":{"ha":1279,"x_min":103,"x_max":1176,"o":"m 103 0 l 103 956 l 428 956 l 428 613 l 851 613 l 851 956 l 1176 956 l 1176 0 l 851 0 l 851 358 l 428 358 l 428 0 l 103 0 m 310 1036 l 524 1229 l 758 1229 l 972 1036 l 756 1036 l 596 1172 l 685 1172 l 526 1036 l 310 1036 z "},"Ḥ":{"ha":1279,"x_min":103,"x_max":1176,"o":"m 103 0 l 103 956 l 428 956 l 428 613 l 851 613 l 851 956 l 1176 956 l 1176 0 l 851 0 l 851 358 l 428 358 l 428 0 l 103 0 m 519 -276 l 519 -83 l 758 -83 l 758 -276 l 519 -276 z "},"I":{"ha":531,"x_min":103,"x_max":428,"o":"m 103 0 l 103 956 l 428 956 l 428 0 l 103 0 z "},"Ĳ":{"ha":1525,"x_min":103,"x_max":1428,"o":"m 103 0 l 103 956 l 428 956 l 428 0 l 103 0 m 993 -17 q 760 20 857 -17 q 613 136 664 57 q 563 340 563 215 l 563 358 l 868 358 l 868 339 q 897 244 868 272 q 982 217 926 217 q 1073 247 1043 217 q 1103 351 1103 278 l 1103 956 l 1428 956 l 1428 356 q 1376 143 1428 225 q 1226 22 1324 61 q 993 -17 1129 -17 z "},"Í":{"ha":531,"x_min":103,"x_max":572,"o":"m 103 0 l 103 956 l 428 956 l 428 0 l 103 0 m 115 1044 l 260 1229 l 571 1229 l 572 1224 l 339 1044 l 115 1044 z "},"Ĭ":{"ha":531,"x_min":-22,"x_max":554,"o":"m 103 0 l 103 956 l 428 956 l 428 0 l 103 0 m 265 1026 q 111 1058 175 1026 q 13 1136 47 1089 q -22 1229 -22 1183 l 128 1229 q 152 1197 132 1213 q 203 1170 172 1181 q 265 1160 233 1160 q 335 1171 304 1160 q 384 1199 365 1182 q 406 1229 403 1215 l 554 1229 q 519 1136 554 1183 q 419 1058 485 1089 q 265 1026 354 1026 z "},"Ǐ":{"ha":531,"x_min":-64,"x_max":599,"o":"m 103 0 l 103 956 l 428 956 l 428 0 l 103 0 m -64 1229 l 153 1229 l 311 1094 l 222 1094 l 382 1229 l 599 1229 l 385 1036 l 150 1036 l -64 1229 z "},"Î":{"ha":531,"x_min":-64,"x_max":599,"o":"m 103 0 l 103 956 l 428 956 l 428 0 l 103 0 m -64 1036 l 150 1229 l 385 1229 l 599 1036 l 382 1036 l 222 1172 l 311 1172 l 153 1036 l -64 1036 z "},"Ȉ":{"ha":531,"x_min":-179,"x_max":569,"o":"m 103 0 l 103 956 l 428 956 l 428 0 l 103 0 m 381 1044 l 164 1221 l 165 1229 l 451 1229 l 569 1044 l 381 1044 m 36 1044 l -179 1221 l -178 1229 l 107 1229 l 226 1044 l 36 1044 z "},"Ï":{"ha":531,"x_min":-25,"x_max":557,"o":"m 103 0 l 103 956 l 428 956 l 428 0 l 103 0 m -25 1029 l -25 1229 l 213 1229 l 213 1029 l -25 1029 m 318 1029 l 318 1229 l 557 1229 l 557 1029 l 318 1029 z "},"İ":{"ha":531,"x_min":103,"x_max":428,"o":"m 103 0 l 103 956 l 428 956 l 428 0 l 103 0 m 149 1029 l 149 1229 l 388 1229 l 388 1029 l 149 1029 z "},"Ị":{"ha":531,"x_min":103,"x_max":428,"o":"m 103 0 l 103 956 l 428 956 l 428 0 l 103 0 m 146 -276 l 146 -83 l 385 -83 l 385 -276 l 146 -276 z "},"Ì":{"ha":531,"x_min":-43,"x_max":428,"o":"m 103 0 l 103 956 l 428 956 l 428 0 l 103 0 m 414 1044 l 190 1044 l -43 1224 l -42 1229 l 269 1229 l 414 1044 z "},"Ỉ":{"ha":531,"x_min":103,"x_max":465,"o":"m 103 0 l 103 956 l 428 956 l 428 0 l 103 0 m 203 1038 l 203 1113 l 213 1113 q 249 1117 242 1113 q 257 1136 257 1121 q 244 1156 257 1151 q 206 1160 231 1160 l 121 1160 l 121 1233 q 166 1240 139 1238 q 221 1243 193 1242 q 267 1244 249 1244 q 326 1240 292 1244 q 391 1224 360 1235 q 444 1196 422 1214 q 465 1149 465 1178 q 445 1106 465 1122 q 394 1083 425 1090 q 329 1072 363 1075 l 329 1038 l 203 1038 z "},"Ȋ":{"ha":531,"x_min":-22,"x_max":554,"o":"m 103 0 l 103 956 l 428 956 l 428 0 l 103 0 m -22 1026 q 13 1122 -22 1075 q 113 1199 47 1168 q 267 1229 178 1229 q 420 1199 356 1229 q 519 1122 485 1168 q 554 1026 554 1075 l 406 1026 q 384 1058 403 1042 q 335 1085 365 1074 q 267 1096 306 1096 q 203 1086 233 1096 q 152 1060 172 1076 q 128 1026 132 1044 l -22 1026 z "},"Ī":{"ha":531,"x_min":18,"x_max":514,"o":"m 103 0 l 103 956 l 428 956 l 428 0 l 103 0 m 18 1036 l 18 1175 l 514 1175 l 514 1036 l 18 1036 z "},"Į":{"ha":531,"x_min":57,"x_max":428,"o":"m 103 0 l 103 956 l 428 956 l 428 0 l 103 0 m 247 -293 q 156 -277 200 -293 q 85 -226 113 -261 q 57 -135 57 -192 q 81 -47 57 -83 q 131 17 106 -11 l 292 17 l 292 11 q 253 -33 267 -6 q 240 -86 240 -60 q 259 -140 240 -115 q 317 -164 278 -164 l 415 -164 l 415 -272 q 333 -287 379 -282 q 247 -293 286 -293 z "},"Ĩ":{"ha":531,"x_min":-76,"x_max":607,"o":"m 103 0 l 103 956 l 428 956 l 428 0 l 103 0 m -76 1026 q -49 1121 -76 1074 q 27 1199 -22 1168 q 142 1229 76 1229 q 238 1215 192 1229 q 326 1187 283 1201 q 411 1172 369 1172 q 460 1188 440 1172 q 488 1229 481 1204 l 607 1229 q 580 1135 607 1182 q 504 1058 553 1089 q 390 1026 456 1026 q 294 1041 340 1026 q 204 1070 247 1056 q 121 1085 161 1085 q 72 1068 92 1085 q 43 1026 51 1051 l -76 1026 z "},"J":{"ha":994,"x_min":32,"x_max":897,"o":"m 463 -17 q 230 20 326 -17 q 83 136 133 57 q 32 340 32 215 l 32 358 l 338 358 l 338 339 q 367 244 338 272 q 451 217 396 217 q 542 247 513 217 q 572 351 572 278 l 572 956 l 897 956 l 897 356 q 845 143 897 225 q 696 22 793 61 q 463 -17 599 -17 z "},"Ĵ":{"ha":994,"x_min":32,"x_max":1064,"o":"m 463 -17 q 230 20 326 -17 q 83 136 133 57 q 32 340 32 215 l 32 358 l 338 358 l 338 339 q 367 244 338 272 q 451 217 396 217 q 542 247 513 217 q 572 351 572 278 l 572 956 l 897 956 l 897 356 q 845 143 897 225 q 696 22 793 61 q 463 -17 599 -17 m 401 1036 l 615 1229 l 850 1229 l 1064 1036 l 847 1036 l 688 1172 l 776 1172 l 618 1036 l 401 1036 z "},"K":{"ha":1265,"x_min":103,"x_max":1242,"o":"m 103 0 l 103 956 l 428 956 l 428 540 l 829 956 l 1232 956 l 850 564 l 1242 0 l 851 0 l 615 358 l 428 194 l 428 0 l 103 0 z "},"Ķ":{"ha":1265,"x_min":103,"x_max":1242,"o":"m 103 0 l 103 956 l 428 956 l 428 540 l 829 956 l 1232 956 l 850 564 l 1242 0 l 851 0 l 615 358 l 428 194 l 428 0 l 103 0 m 497 -535 l 497 -425 q 597 -392 564 -422 q 631 -306 631 -362 l 497 -306 l 497 -76 l 774 -76 l 774 -271 q 744 -415 774 -358 q 653 -501 715 -472 q 497 -535 592 -531 z "},"L":{"ha":1010,"x_min":103,"x_max":983,"o":"m 103 0 l 103 956 l 428 956 l 428 254 l 983 254 l 983 0 l 103 0 z "},"Ǉ":{"ha":1968,"x_min":103,"x_max":1872,"o":"m 103 0 l 103 956 l 428 956 l 428 254 l 983 254 l 983 0 l 103 0 m 1438 -17 q 1203 20 1300 -17 q 1056 136 1107 57 q 1006 340 1006 215 l 1006 358 l 1311 358 l 1311 339 q 1340 244 1311 272 q 1426 217 1369 217 q 1517 247 1488 217 q 1546 351 1546 278 l 1546 956 l 1872 956 l 1872 356 q 1820 143 1872 225 q 1671 22 1768 61 q 1438 -17 1574 -17 z "},"Ĺ":{"ha":1010,"x_min":103,"x_max":983,"o":"m 103 0 l 103 956 l 428 956 l 428 254 l 983 254 l 983 0 l 103 0 m 115 1044 l 258 1229 l 571 1229 l 572 1224 l 338 1044 l 115 1044 z "},"Ľ":{"ha":1010,"x_min":103,"x_max":983,"o":"m 103 0 l 103 956 l 428 956 l 428 254 l 983 254 l 983 0 l 103 0 m 672 771 l 672 1007 l 906 1007 l 844 771 l 672 771 z "},"Ļ":{"ha":1010,"x_min":103,"x_max":983,"o":"m 103 0 l 103 956 l 428 956 l 428 254 l 983 254 l 983 0 l 103 0 m 413 -535 l 413 -425 q 513 -392 479 -422 q 546 -306 546 -362 l 413 -306 l 413 -76 l 689 -76 l 689 -272 q 660 -415 689 -358 q 569 -501 631 -472 q 413 -535 507 -531 z "},"Ŀ":{"ha":1010,"x_min":103,"x_max":983,"o":"m 103 0 l 103 956 l 428 956 l 428 254 l 983 254 l 983 0 l 103 0 m 650 431 l 650 624 l 896 624 l 896 431 l 650 431 z "},"ǈ":{"ha":1467,"x_min":103,"x_max":1386,"o":"m 103 0 l 103 956 l 428 956 l 428 254 l 983 254 l 983 0 l 103 0 m 1093 819 l 1093 1007 l 1386 1007 l 1386 819 l 1093 819 m 1107 -292 q 1048 -289 1082 -292 q 981 -280 1014 -286 q 924 -267 949 -274 l 924 -99 l 1000 -99 q 1070 -73 1047 -99 q 1093 -4 1093 -47 l 1093 733 l 1386 733 l 1386 -21 q 1358 -173 1386 -112 q 1269 -262 1331 -233 q 1107 -292 1207 -292 z "},"Ł":{"ha":1010,"x_min":0,"x_max":983,"o":"m 103 0 l 103 956 l 428 956 l 428 254 l 983 254 l 983 0 l 103 0 m 0 213 l 0 356 l 661 751 l 661 606 l 0 213 z "},"M":{"ha":1493,"x_min":103,"x_max":1390,"o":"m 103 0 l 103 956 l 586 956 l 689 613 q 708 549 697 589 q 731 466 719 510 q 750 388 742 422 l 760 388 q 777 456 767 417 q 799 537 788 494 q 821 613 811 579 l 924 956 l 1390 956 l 1390 0 l 1072 0 l 1072 381 q 1073 476 1072 426 q 1075 573 1074 526 q 1076 651 1076 619 l 1065 651 q 1048 582 1058 622 q 1026 503 1038 542 q 1006 436 1015 464 l 869 0 l 603 0 l 465 436 q 442 513 454 472 q 422 590 431 553 q 406 651 413 626 l 394 651 q 397 578 396 622 q 399 482 399 533 q 400 381 400 431 l 400 0 l 103 0 z "},"N":{"ha":1278,"x_min":103,"x_max":1175,"o":"m 103 0 l 103 956 l 383 956 l 768 585 q 796 555 778 575 q 833 513 814 535 q 865 478 853 492 l 875 479 q 875 544 875 508 q 875 604 875 579 l 875 956 l 1175 956 l 1175 0 l 897 0 l 506 379 q 455 431 479 406 q 413 476 431 457 l 403 475 q 404 422 404 453 q 404 367 404 390 l 404 0 l 103 0 z "},"Ǌ":{"ha":2272,"x_min":103,"x_max":2175,"o":"m 103 0 l 103 956 l 383 956 l 768 585 q 796 555 778 575 q 833 513 814 535 q 865 478 853 492 l 875 479 q 875 544 875 508 q 875 604 875 579 l 875 956 l 1175 956 l 1175 0 l 897 0 l 506 379 q 455 431 479 406 q 413 476 431 457 l 403 475 q 404 422 404 453 q 404 367 404 390 l 404 0 l 103 0 m 1740 -17 q 1508 20 1604 -17 q 1360 136 1411 57 q 1310 340 1310 215 l 1310 358 l 1615 358 l 1615 339 q 1644 244 1615 272 q 1729 217 1674 217 q 1820 247 1790 217 q 1850 351 1850 278 l 1850 956 l 2175 956 l 2175 356 q 2123 143 2175 225 q 1974 22 2071 61 q 1740 -17 1876 -17 z "},"Ń":{"ha":1278,"x_min":103,"x_max":1175,"o":"m 103 0 l 103 956 l 383 956 l 768 585 q 796 555 778 575 q 833 513 814 535 q 865 478 853 492 l 875 479 q 875 544 875 508 q 875 604 875 579 l 875 956 l 1175 956 l 1175 0 l 897 0 l 506 379 q 455 431 479 406 q 413 476 431 457 l 403 475 q 404 422 404 453 q 404 367 404 390 l 404 0 l 103 0 m 489 1044 l 633 1229 l 944 1229 l 946 1224 l 713 1044 l 489 1044 z "},"Ň":{"ha":1278,"x_min":103,"x_max":1175,"o":"m 103 0 l 103 956 l 383 956 l 768 585 q 796 555 778 575 q 833 513 814 535 q 865 478 853 492 l 875 479 q 875 544 875 508 q 875 604 875 579 l 875 956 l 1175 956 l 1175 0 l 897 0 l 506 379 q 455 431 479 406 q 413 476 431 457 l 403 475 q 404 422 404 453 q 404 367 404 390 l 404 0 l 103 0 m 310 1229 l 526 1229 l 685 1094 l 596 1094 l 756 1229 l 972 1229 l 758 1036 l 524 1036 l 310 1229 z "},"Ņ":{"ha":1278,"x_min":103,"x_max":1175,"o":"m 103 0 l 103 956 l 383 956 l 768 585 q 796 555 778 575 q 833 513 814 535 q 865 478 853 492 l 875 479 q 875 544 875 508 q 875 604 875 579 l 875 956 l 1175 956 l 1175 0 l 897 0 l 506 379 q 455 431 479 406 q 413 476 431 457 l 403 475 q 404 422 404 453 q 404 367 404 390 l 404 0 l 103 0 m 499 -535 l 499 -425 q 599 -392 565 -422 q 632 -306 632 -362 l 499 -306 l 499 -76 l 776 -76 l 776 -271 q 747 -415 776 -358 q 656 -501 717 -472 q 499 -535 594 -531 z "},"Ŋ":{"ha":1278,"x_min":103,"x_max":1175,"o":"m 900 -292 q 841 -289 875 -292 q 774 -280 807 -286 q 715 -267 740 -274 l 715 -96 l 785 -96 q 854 -70 832 -96 q 876 -1 876 -44 l 876 19 l 504 379 q 456 427 479 403 q 415 469 432 451 l 406 468 q 406 422 406 449 q 406 367 406 394 l 406 0 l 103 0 l 103 956 l 385 956 l 769 585 q 797 556 779 575 q 832 518 814 538 q 863 485 850 499 l 874 486 q 874 542 874 511 q 874 604 874 574 l 874 956 l 1175 956 l 1175 -19 q 1160 -140 1175 -89 q 1113 -225 1146 -192 q 1027 -275 1079 -258 q 900 -292 975 -292 z "},"Ɲ":{"ha":1278,"x_min":-58,"x_max":1175,"o":"m 126 -292 q 67 -289 101 -292 q 0 -280 33 -286 q -58 -267 -33 -274 l -58 -96 l 11 -96 q 81 -70 58 -96 q 103 -1 103 -44 l 103 956 l 385 956 l 769 585 q 797 556 779 575 q 832 518 814 538 q 863 485 850 499 l 874 486 q 874 542 874 511 q 874 604 874 574 l 874 956 l 1175 956 l 1175 0 l 896 0 l 504 379 q 456 427 479 403 q 415 469 432 451 l 406 468 q 406 421 406 447 q 406 367 406 394 l 406 -19 q 390 -140 406 -89 q 340 -225 374 -192 q 254 -275 307 -258 q 126 -292 201 -292 z "},"ǋ":{"ha":1735,"x_min":103,"x_max":1656,"o":"m 103 0 l 103 956 l 383 956 l 768 585 q 796 555 778 575 q 833 513 814 535 q 865 478 853 492 l 875 479 q 875 544 875 508 q 875 604 875 579 l 875 956 l 1175 956 l 1175 0 l 897 0 l 506 379 q 455 431 479 406 q 413 476 431 457 l 403 475 q 404 422 404 453 q 404 367 404 390 l 404 0 l 103 0 m 1361 819 l 1361 1007 l 1656 1007 l 1656 819 l 1361 819 m 1376 -292 q 1317 -289 1351 -292 q 1250 -280 1283 -286 q 1192 -267 1217 -274 l 1192 -99 l 1269 -99 q 1338 -73 1315 -99 q 1361 -4 1361 -47 l 1361 733 l 1656 733 l 1656 -21 q 1627 -173 1656 -112 q 1538 -262 1599 -233 q 1376 -292 1476 -292 z "},"Ñ":{"ha":1278,"x_min":103,"x_max":1175,"o":"m 103 0 l 103 956 l 383 956 l 768 585 q 796 555 778 575 q 833 513 814 535 q 865 478 853 492 l 875 479 q 875 544 875 508 q 875 604 875 579 l 875 956 l 1175 956 l 1175 0 l 897 0 l 506 379 q 455 431 479 406 q 413 476 431 457 l 403 475 q 404 422 404 453 q 404 367 404 390 l 404 0 l 103 0 m 297 1026 q 324 1121 297 1074 q 401 1199 351 1168 q 515 1229 450 1229 q 611 1215 565 1229 q 700 1187 657 1201 q 785 1172 743 1172 q 834 1188 814 1172 q 861 1229 854 1204 l 981 1229 q 953 1135 981 1182 q 878 1058 926 1089 q 764 1026 829 1026 q 667 1041 714 1026 q 578 1070 621 1056 q 494 1085 535 1085 q 445 1068 465 1085 q 417 1026 425 1051 l 297 1026 z "},"O":{"ha":1279,"x_min":63,"x_max":1217,"o":"m 639 -17 q 331 41 460 -17 q 132 209 201 99 q 63 478 63 319 q 132 748 63 638 q 331 915 201 858 q 639 972 460 972 q 949 915 819 972 q 1147 748 1078 858 q 1217 478 1217 638 q 1147 209 1217 319 q 949 41 1078 99 q 639 -17 819 -17 m 639 217 q 742 233 697 217 q 819 281 788 250 q 867 355 851 313 q 883 449 883 397 l 883 510 q 867 602 883 560 q 819 675 851 644 q 742 722 788 706 q 639 739 697 739 q 536 722 582 739 q 459 675 490 706 q 412 602 428 644 q 396 510 396 560 l 396 449 q 412 355 396 397 q 459 281 428 313 q 536 233 490 250 q 639 217 582 217 z "},"Ó":{"ha":1279,"x_min":63,"x_max":1217,"o":"m 639 -17 q 331 41 460 -17 q 132 209 201 99 q 63 478 63 319 q 132 748 63 638 q 331 915 201 858 q 639 972 460 972 q 949 915 819 972 q 1147 748 1078 858 q 1217 478 1217 638 q 1147 209 1217 319 q 949 41 1078 99 q 639 -17 819 -17 m 639 217 q 742 233 697 217 q 819 281 788 250 q 867 355 851 313 q 883 449 883 397 l 883 510 q 867 602 883 560 q 819 675 851 644 q 742 722 788 706 q 639 739 697 739 q 536 722 582 739 q 459 675 490 706 q 412 602 428 644 q 396 510 396 560 l 396 449 q 412 355 396 397 q 459 281 428 313 q 536 233 490 250 q 639 217 582 217 m 489 1044 l 632 1229 l 944 1229 l 946 1224 l 711 1044 l 489 1044 z "},"Ŏ":{"ha":1279,"x_min":63,"x_max":1217,"o":"m 639 -17 q 331 41 460 -17 q 132 209 201 99 q 63 478 63 319 q 132 748 63 638 q 331 915 201 858 q 639 972 460 972 q 949 915 819 972 q 1147 748 1078 858 q 1217 478 1217 638 q 1147 209 1217 319 q 949 41 1078 99 q 639 -17 819 -17 m 639 217 q 742 233 697 217 q 819 281 788 250 q 867 355 851 313 q 883 449 883 397 l 883 510 q 867 602 883 560 q 819 675 851 644 q 742 722 788 706 q 639 739 697 739 q 536 722 582 739 q 459 675 490 706 q 412 602 428 644 q 396 510 396 560 l 396 449 q 412 355 396 397 q 459 281 428 313 q 536 233 490 250 q 639 217 582 217 m 639 1026 q 484 1058 549 1026 q 385 1136 419 1089 q 351 1229 351 1183 l 501 1229 q 526 1197 506 1213 q 576 1170 546 1181 q 639 1160 606 1160 q 708 1171 678 1160 q 758 1199 739 1182 q 779 1229 776 1215 l 928 1229 q 892 1136 928 1183 q 792 1058 857 1089 q 639 1026 728 1026 z "},"Ǒ":{"ha":1279,"x_min":63,"x_max":1217,"o":"m 639 -17 q 331 41 460 -17 q 132 209 201 99 q 63 478 63 319 q 132 748 63 638 q 331 915 201 858 q 639 972 460 972 q 949 915 819 972 q 1147 748 1078 858 q 1217 478 1217 638 q 1147 209 1217 319 q 949 41 1078 99 q 639 -17 819 -17 m 639 217 q 742 233 697 217 q 819 281 788 250 q 867 355 851 313 q 883 449 883 397 l 883 510 q 867 602 883 560 q 819 675 851 644 q 742 722 788 706 q 639 739 697 739 q 536 722 582 739 q 459 675 490 706 q 412 602 428 644 q 396 510 396 560 l 396 449 q 412 355 396 397 q 459 281 428 313 q 536 233 490 250 q 639 217 582 217 m 308 1229 l 525 1229 l 683 1094 l 594 1094 l 754 1229 l 971 1229 l 757 1036 l 522 1036 l 308 1229 z "},"Ô":{"ha":1279,"x_min":63,"x_max":1217,"o":"m 639 -17 q 331 41 460 -17 q 132 209 201 99 q 63 478 63 319 q 132 748 63 638 q 331 915 201 858 q 639 972 460 972 q 949 915 819 972 q 1147 748 1078 858 q 1217 478 1217 638 q 1147 209 1217 319 q 949 41 1078 99 q 639 -17 819 -17 m 639 217 q 742 233 697 217 q 819 281 788 250 q 867 355 851 313 q 883 449 883 397 l 883 510 q 867 602 883 560 q 819 675 851 644 q 742 722 788 706 q 639 739 697 739 q 536 722 582 739 q 459 675 490 706 q 412 602 428 644 q 396 510 396 560 l 396 449 q 412 355 396 397 q 459 281 428 313 q 536 233 490 250 q 639 217 582 217 m 308 1036 l 522 1229 l 757 1229 l 971 1036 l 754 1036 l 594 1172 l 683 1172 l 525 1036 l 308 1036 z "},"Ố":{"ha":1279,"x_min":63,"x_max":1217,"o":"m 639 -17 q 331 41 460 -17 q 132 209 201 99 q 63 478 63 319 q 132 748 63 638 q 331 915 201 858 q 639 972 460 972 q 949 915 819 972 q 1147 748 1078 858 q 1217 478 1217 638 q 1147 209 1217 319 q 949 41 1078 99 q 639 -17 819 -17 m 639 217 q 742 233 697 217 q 819 281 788 250 q 867 355 851 313 q 883 449 883 397 l 883 510 q 867 602 883 560 q 819 675 851 644 q 742 722 788 706 q 639 739 697 739 q 536 722 582 739 q 459 675 490 706 q 412 602 428 644 q 396 510 396 560 l 396 449 q 412 355 396 397 q 459 281 428 313 q 536 233 490 250 q 639 217 582 217 m 308 1036 l 522 1229 l 757 1229 l 971 1036 l 754 1036 l 594 1172 l 683 1172 l 525 1036 l 308 1036 m 489 1269 l 632 1454 l 944 1454 l 946 1449 l 711 1269 l 489 1269 z "},"Ộ":{"ha":1279,"x_min":63,"x_max":1217,"o":"m 639 -17 q 331 41 460 -17 q 132 209 201 99 q 63 478 63 319 q 132 748 63 638 q 331 915 201 858 q 639 972 460 972 q 949 915 819 972 q 1147 748 1078 858 q 1217 478 1217 638 q 1147 209 1217 319 q 949 41 1078 99 q 639 -17 819 -17 m 639 217 q 742 233 697 217 q 819 281 788 250 q 867 355 851 313 q 883 449 883 397 l 883 510 q 867 602 883 560 q 819 675 851 644 q 742 722 788 706 q 639 739 697 739 q 536 722 582 739 q 459 675 490 706 q 412 602 428 644 q 396 510 396 560 l 396 449 q 412 355 396 397 q 459 281 428 313 q 536 233 490 250 q 639 217 582 217 m 521 -276 l 521 -83 l 760 -83 l 760 -276 l 521 -276 m 308 1036 l 522 1229 l 757 1229 l 971 1036 l 754 1036 l 594 1172 l 683 1172 l 525 1036 l 308 1036 z "},"Ồ":{"ha":1279,"x_min":63,"x_max":1217,"o":"m 639 -17 q 331 41 460 -17 q 132 209 201 99 q 63 478 63 319 q 132 748 63 638 q 331 915 201 858 q 639 972 460 972 q 949 915 819 972 q 1147 748 1078 858 q 1217 478 1217 638 q 1147 209 1217 319 q 949 41 1078 99 q 639 -17 819 -17 m 639 217 q 742 233 697 217 q 819 281 788 250 q 867 355 851 313 q 883 449 883 397 l 883 510 q 867 602 883 560 q 819 675 851 644 q 742 722 788 706 q 639 739 697 739 q 536 722 582 739 q 459 675 490 706 q 412 602 428 644 q 396 510 396 560 l 396 449 q 412 355 396 397 q 459 281 428 313 q 536 233 490 250 q 639 217 582 217 m 308 1036 l 522 1229 l 757 1229 l 971 1036 l 754 1036 l 594 1172 l 683 1172 l 525 1036 l 308 1036 m 786 1269 l 564 1269 l 329 1449 l 331 1454 l 643 1454 l 786 1269 z "},"Ổ":{"ha":1279,"x_min":63,"x_max":1217,"o":"m 639 -17 q 331 41 460 -17 q 132 209 201 99 q 63 478 63 319 q 132 748 63 638 q 331 915 201 858 q 639 972 460 972 q 949 915 819 972 q 1147 748 1078 858 q 1217 478 1217 638 q 1147 209 1217 319 q 949 41 1078 99 q 639 -17 819 -17 m 639 217 q 742 233 697 217 q 819 281 788 250 q 867 355 851 313 q 883 449 883 397 l 883 510 q 867 602 883 560 q 819 675 851 644 q 742 722 788 706 q 639 739 697 739 q 536 722 582 739 q 459 675 490 706 q 412 602 428 644 q 396 510 396 560 l 396 449 q 412 355 396 397 q 459 281 428 313 q 536 233 490 250 q 639 217 582 217 m 308 1036 l 522 1229 l 757 1229 l 971 1036 l 754 1036 l 594 1172 l 683 1172 l 525 1036 l 308 1036 m 575 1263 l 575 1338 l 586 1338 q 622 1342 614 1338 q 631 1361 631 1347 q 617 1381 631 1376 q 578 1385 604 1385 l 493 1385 l 493 1458 q 538 1465 511 1463 q 593 1468 565 1467 q 639 1469 621 1469 q 698 1465 664 1469 q 764 1449 732 1460 q 817 1421 796 1439 q 838 1375 838 1403 q 817 1332 838 1349 q 767 1308 797 1315 q 701 1297 736 1300 l 701 1263 l 575 1263 z "},"Ỗ":{"ha":1279,"x_min":63,"x_max":1217,"o":"m 639 -17 q 331 41 460 -17 q 132 209 201 99 q 63 478 63 319 q 132 748 63 638 q 331 915 201 858 q 639 972 460 972 q 949 915 819 972 q 1147 748 1078 858 q 1217 478 1217 638 q 1147 209 1217 319 q 949 41 1078 99 q 639 -17 819 -17 m 639 217 q 742 233 697 217 q 819 281 788 250 q 867 355 851 313 q 883 449 883 397 l 883 510 q 867 602 883 560 q 819 675 851 644 q 742 722 788 706 q 639 739 697 739 q 536 722 582 739 q 459 675 490 706 q 412 602 428 644 q 396 510 396 560 l 396 449 q 412 355 396 397 q 459 281 428 313 q 536 233 490 250 q 639 217 582 217 m 308 1036 l 522 1229 l 757 1229 l 971 1036 l 754 1036 l 594 1172 l 683 1172 l 525 1036 l 308 1036 m 296 1251 q 323 1346 296 1299 q 399 1424 350 1393 q 514 1454 449 1454 q 610 1440 564 1454 q 699 1411 656 1425 q 783 1397 742 1397 q 833 1413 813 1397 q 861 1454 853 1429 l 981 1454 q 953 1360 981 1407 q 878 1283 926 1314 q 763 1251 829 1251 q 666 1266 713 1251 q 577 1295 619 1281 q 493 1310 535 1310 q 444 1293 464 1310 q 415 1251 425 1276 l 296 1251 z "},"Ȍ":{"ha":1279,"x_min":63,"x_max":1217,"o":"m 639 -17 q 331 41 460 -17 q 132 209 201 99 q 63 478 63 319 q 132 748 63 638 q 331 915 201 858 q 639 972 460 972 q 949 915 819 972 q 1147 748 1078 858 q 1217 478 1217 638 q 1147 209 1217 319 q 949 41 1078 99 q 639 -17 819 -17 m 639 217 q 742 233 697 217 q 819 281 788 250 q 867 355 851 313 q 883 449 883 397 l 883 510 q 867 602 883 560 q 819 675 851 644 q 742 722 788 706 q 639 739 697 739 q 536 722 582 739 q 459 675 490 706 q 412 602 428 644 q 396 510 396 560 l 396 449 q 412 355 396 397 q 459 281 428 313 q 536 233 490 250 q 639 217 582 217 m 753 1044 l 538 1221 l 539 1229 l 824 1229 l 943 1044 l 753 1044 m 410 1044 l 193 1221 l 194 1229 l 479 1229 l 599 1044 l 410 1044 z "},"Ö":{"ha":1279,"x_min":63,"x_max":1217,"o":"m 639 -17 q 331 41 460 -17 q 132 209 201 99 q 63 478 63 319 q 132 748 63 638 q 331 915 201 858 q 639 972 460 972 q 949 915 819 972 q 1147 748 1078 858 q 1217 478 1217 638 q 1147 209 1217 319 q 949 41 1078 99 q 639 -17 819 -17 m 639 217 q 742 233 697 217 q 819 281 788 250 q 867 355 851 313 q 883 449 883 397 l 883 510 q 867 602 883 560 q 819 675 851 644 q 742 722 788 706 q 639 739 697 739 q 536 722 582 739 q 459 675 490 706 q 412 602 428 644 q 396 510 396 560 l 396 449 q 412 355 396 397 q 459 281 428 313 q 536 233 490 250 q 639 217 582 217 m 349 1029 l 349 1229 l 586 1229 l 586 1029 l 349 1029 m 692 1029 l 692 1229 l 931 1229 l 931 1029 l 692 1029 z "},"Ȫ":{"ha":1279,"x_min":63,"x_max":1217,"o":"m 639 -17 q 331 41 460 -17 q 132 209 201 99 q 63 478 63 319 q 132 748 63 638 q 331 915 201 858 q 639 972 460 972 q 949 915 819 972 q 1147 748 1078 858 q 1217 478 1217 638 q 1147 209 1217 319 q 949 41 1078 99 q 639 -17 819 -17 m 639 217 q 742 233 697 217 q 819 281 788 250 q 867 355 851 313 q 883 449 883 397 l 883 510 q 867 602 883 560 q 819 675 851 644 q 742 722 788 706 q 639 739 697 739 q 536 722 582 739 q 459 675 490 706 q 412 602 428 644 q 396 510 396 560 l 396 449 q 412 355 396 397 q 459 281 428 313 q 536 233 490 250 q 639 217 582 217 m 349 1029 l 349 1229 l 586 1229 l 586 1029 l 349 1029 m 692 1029 l 692 1229 l 931 1229 l 931 1029 l 692 1029 m 392 1289 l 392 1428 l 886 1428 l 886 1289 l 392 1289 z "},"Ȱ":{"ha":1279,"x_min":63,"x_max":1217,"o":"m 639 -17 q 331 41 460 -17 q 132 209 201 99 q 63 478 63 319 q 132 748 63 638 q 331 915 201 858 q 639 972 460 972 q 949 915 819 972 q 1147 748 1078 858 q 1217 478 1217 638 q 1147 209 1217 319 q 949 41 1078 99 q 639 -17 819 -17 m 639 217 q 742 233 697 217 q 819 281 788 250 q 867 355 851 313 q 883 449 883 397 l 883 510 q 867 602 883 560 q 819 675 851 644 q 742 722 788 706 q 639 739 697 739 q 536 722 582 739 q 459 675 490 706 q 412 602 428 644 q 396 510 396 560 l 396 449 q 412 355 396 397 q 459 281 428 313 q 536 233 490 250 q 639 217 582 217 m 521 1029 l 521 1229 l 760 1229 l 760 1029 l 521 1029 m 393 1289 l 393 1428 l 888 1428 l 888 1289 l 393 1289 z "},"Ọ":{"ha":1279,"x_min":63,"x_max":1217,"o":"m 639 -17 q 331 41 460 -17 q 132 209 201 99 q 63 478 63 319 q 132 748 63 638 q 331 915 201 858 q 639 972 460 972 q 949 915 819 972 q 1147 748 1078 858 q 1217 478 1217 638 q 1147 209 1217 319 q 949 41 1078 99 q 639 -17 819 -17 m 639 217 q 742 233 697 217 q 819 281 788 250 q 867 355 851 313 q 883 449 883 397 l 883 510 q 867 602 883 560 q 819 675 851 644 q 742 722 788 706 q 639 739 697 739 q 536 722 582 739 q 459 675 490 706 q 412 602 428 644 q 396 510 396 560 l 396 449 q 412 355 396 397 q 459 281 428 313 q 536 233 490 250 q 639 217 582 217 m 521 -276 l 521 -83 l 760 -83 l 760 -276 l 521 -276 z "},"Ò":{"ha":1279,"x_min":63,"x_max":1217,"o":"m 639 -17 q 331 41 460 -17 q 132 209 201 99 q 63 478 63 319 q 132 748 63 638 q 331 915 201 858 q 639 972 460 972 q 949 915 819 972 q 1147 748 1078 858 q 1217 478 1217 638 q 1147 209 1217 319 q 949 41 1078 99 q 639 -17 819 -17 m 639 217 q 742 233 697 217 q 819 281 788 250 q 867 355 851 313 q 883 449 883 397 l 883 510 q 867 602 883 560 q 819 675 851 644 q 742 722 788 706 q 639 739 697 739 q 536 722 582 739 q 459 675 490 706 q 412 602 428 644 q 396 510 396 560 l 396 449 q 412 355 396 397 q 459 281 428 313 q 536 233 490 250 q 639 217 582 217 m 786 1044 l 564 1044 l 329 1224 l 331 1229 l 643 1229 l 786 1044 z "},"Ỏ":{"ha":1279,"x_min":63,"x_max":1217,"o":"m 639 -17 q 331 41 460 -17 q 132 209 201 99 q 63 478 63 319 q 132 748 63 638 q 331 915 201 858 q 639 972 460 972 q 949 915 819 972 q 1147 748 1078 858 q 1217 478 1217 638 q 1147 209 1217 319 q 949 41 1078 99 q 639 -17 819 -17 m 639 217 q 742 233 697 217 q 819 281 788 250 q 867 355 851 313 q 883 449 883 397 l 883 510 q 867 602 883 560 q 819 675 851 644 q 742 722 788 706 q 639 739 697 739 q 536 722 582 739 q 459 675 490 706 q 412 602 428 644 q 396 510 396 560 l 396 449 q 412 355 396 397 q 459 281 428 313 q 536 233 490 250 q 639 217 582 217 m 575 1038 l 575 1113 l 586 1113 q 622 1117 614 1113 q 631 1136 631 1122 q 617 1156 631 1151 q 578 1160 603 1160 l 493 1160 l 493 1233 q 538 1240 511 1238 q 593 1243 565 1242 q 639 1244 621 1244 q 698 1240 664 1244 q 764 1224 732 1235 q 817 1195 796 1214 q 838 1150 838 1176 q 817 1107 838 1124 q 767 1083 797 1090 q 701 1072 736 1075 l 701 1038 l 575 1038 z "},"Ơ":{"ha":1279,"x_min":63,"x_max":1315,"o":"m 639 -17 q 331 41 460 -17 q 132 209 201 99 q 63 478 63 319 q 132 748 63 638 q 331 915 201 858 q 639 972 460 972 q 949 915 819 972 q 1147 748 1078 858 q 1217 478 1217 638 q 1147 209 1217 319 q 949 41 1078 99 q 639 -17 819 -17 m 639 217 q 742 233 697 217 q 819 281 788 250 q 867 355 851 313 q 883 449 883 397 l 883 510 q 867 602 883 560 q 819 675 851 644 q 742 722 788 706 q 639 739 697 739 q 536 722 582 739 q 459 675 490 706 q 412 602 428 644 q 396 510 396 560 l 396 449 q 412 355 396 397 q 459 281 428 313 q 536 233 490 250 q 639 217 582 217 m 974 733 l 974 860 q 1091 878 1047 860 q 1140 935 1135 897 l 1031 935 l 1031 1146 l 1315 1146 l 1315 1017 q 1276 862 1315 925 q 1162 766 1238 799 q 974 733 1086 733 z "},"Ớ":{"ha":1279,"x_min":63,"x_max":1315,"o":"m 639 -17 q 331 41 460 -17 q 132 209 201 99 q 63 478 63 319 q 132 748 63 638 q 331 915 201 858 q 639 972 460 972 q 949 915 819 972 q 1147 748 1078 858 q 1217 478 1217 638 q 1147 209 1217 319 q 949 41 1078 99 q 639 -17 819 -17 m 639 217 q 742 233 697 217 q 819 281 788 250 q 867 355 851 313 q 883 449 883 397 l 883 510 q 867 602 883 560 q 819 675 851 644 q 742 722 788 706 q 639 739 697 739 q 536 722 582 739 q 459 675 490 706 q 412 602 428 644 q 396 510 396 560 l 396 449 q 412 355 396 397 q 459 281 428 313 q 536 233 490 250 q 639 217 582 217 m 974 733 l 974 860 q 1091 878 1047 860 q 1140 935 1135 897 l 1031 935 l 1031 1146 l 1315 1146 l 1315 1017 q 1276 862 1315 925 q 1162 766 1238 799 q 974 733 1086 733 m 489 1044 l 633 1229 l 944 1229 l 946 1224 l 713 1044 l 489 1044 z "},"Ợ":{"ha":1279,"x_min":63,"x_max":1315,"o":"m 639 -17 q 331 41 460 -17 q 132 209 201 99 q 63 478 63 319 q 132 748 63 638 q 331 915 201 858 q 639 972 460 972 q 949 915 819 972 q 1147 748 1078 858 q 1217 478 1217 638 q 1147 209 1217 319 q 949 41 1078 99 q 639 -17 819 -17 m 639 217 q 742 233 697 217 q 819 281 788 250 q 867 355 851 313 q 883 449 883 397 l 883 510 q 867 602 883 560 q 819 675 851 644 q 742 722 788 706 q 639 739 697 739 q 536 722 582 739 q 459 675 490 706 q 412 602 428 644 q 396 510 396 560 l 396 449 q 412 355 396 397 q 459 281 428 313 q 536 233 490 250 q 639 217 582 217 m 974 733 l 974 860 q 1091 878 1047 860 q 1140 935 1135 897 l 1031 935 l 1031 1146 l 1315 1146 l 1315 1017 q 1276 862 1315 925 q 1162 766 1238 799 q 974 733 1086 733 m 521 -276 l 521 -83 l 760 -83 l 760 -276 l 521 -276 z "},"Ờ":{"ha":1279,"x_min":63,"x_max":1315,"o":"m 639 -17 q 331 41 460 -17 q 132 209 201 99 q 63 478 63 319 q 132 748 63 638 q 331 915 201 858 q 639 972 460 972 q 949 915 819 972 q 1147 748 1078 858 q 1217 478 1217 638 q 1147 209 1217 319 q 949 41 1078 99 q 639 -17 819 -17 m 639 217 q 742 233 697 217 q 819 281 788 250 q 867 355 851 313 q 883 449 883 397 l 883 510 q 867 602 883 560 q 819 675 851 644 q 742 722 788 706 q 639 739 697 739 q 536 722 582 739 q 459 675 490 706 q 412 602 428 644 q 396 510 396 560 l 396 449 q 412 355 396 397 q 459 281 428 313 q 536 233 490 250 q 639 217 582 217 m 974 733 l 974 860 q 1091 878 1047 860 q 1140 935 1135 897 l 1031 935 l 1031 1146 l 1315 1146 l 1315 1017 q 1276 862 1315 925 q 1162 766 1238 799 q 974 733 1086 733 m 788 1044 l 564 1044 l 331 1224 l 332 1229 l 643 1229 l 788 1044 z "},"Ở":{"ha":1279,"x_min":63,"x_max":1315,"o":"m 639 -17 q 331 41 460 -17 q 132 209 201 99 q 63 478 63 319 q 132 748 63 638 q 331 915 201 858 q 639 972 460 972 q 949 915 819 972 q 1147 748 1078 858 q 1217 478 1217 638 q 1147 209 1217 319 q 949 41 1078 99 q 639 -17 819 -17 m 639 217 q 742 233 697 217 q 819 281 788 250 q 867 355 851 313 q 883 449 883 397 l 883 510 q 867 602 883 560 q 819 675 851 644 q 742 722 788 706 q 639 739 697 739 q 536 722 582 739 q 459 675 490 706 q 412 602 428 644 q 396 510 396 560 l 396 449 q 412 355 396 397 q 459 281 428 313 q 536 233 490 250 q 639 217 582 217 m 974 733 l 974 860 q 1091 878 1047 860 q 1140 935 1135 897 l 1031 935 l 1031 1146 l 1315 1146 l 1315 1017 q 1276 862 1315 925 q 1162 766 1238 799 q 974 733 1086 733 m 576 1038 l 576 1113 l 586 1113 q 623 1117 615 1113 q 631 1136 631 1122 q 617 1156 631 1151 q 579 1160 604 1160 l 494 1160 l 494 1233 q 540 1240 513 1238 q 594 1243 567 1242 q 640 1244 622 1244 q 699 1240 665 1244 q 765 1224 733 1235 q 817 1195 796 1214 q 839 1150 839 1176 q 818 1107 839 1124 q 767 1083 797 1090 q 703 1072 736 1075 l 703 1038 l 576 1038 z "},"Ỡ":{"ha":1279,"x_min":63,"x_max":1315,"o":"m 639 -17 q 331 41 460 -17 q 132 209 201 99 q 63 478 63 319 q 132 748 63 638 q 331 915 201 858 q 639 972 460 972 q 949 915 819 972 q 1147 748 1078 858 q 1217 478 1217 638 q 1147 209 1217 319 q 949 41 1078 99 q 639 -17 819 -17 m 639 217 q 742 233 697 217 q 819 281 788 250 q 867 355 851 313 q 883 449 883 397 l 883 510 q 867 602 883 560 q 819 675 851 644 q 742 722 788 706 q 639 739 697 739 q 536 722 582 739 q 459 675 490 706 q 412 602 428 644 q 396 510 396 560 l 396 449 q 412 355 396 397 q 459 281 428 313 q 536 233 490 250 q 639 217 582 217 m 974 733 l 974 860 q 1091 878 1047 860 q 1140 935 1135 897 l 1031 935 l 1031 1146 l 1315 1146 l 1315 1017 q 1276 862 1315 925 q 1162 766 1238 799 q 974 733 1086 733 m 315 1026 q 341 1121 315 1074 q 413 1199 367 1168 q 522 1229 460 1229 q 613 1215 569 1229 q 696 1187 656 1201 q 776 1172 736 1172 q 823 1188 804 1172 q 849 1229 842 1204 l 963 1229 q 937 1135 963 1182 q 865 1058 911 1089 q 757 1026 818 1026 q 666 1041 710 1026 q 581 1070 622 1056 q 503 1085 540 1085 q 456 1068 475 1085 q 429 1026 438 1051 l 315 1026 z "},"Ő":{"ha":1279,"x_min":63,"x_max":1217,"o":"m 639 -17 q 331 41 460 -17 q 132 209 201 99 q 63 478 63 319 q 132 748 63 638 q 331 915 201 858 q 639 972 460 972 q 949 915 819 972 q 1147 748 1078 858 q 1217 478 1217 638 q 1147 209 1217 319 q 949 41 1078 99 q 639 -17 819 -17 m 639 217 q 742 233 697 217 q 819 281 788 250 q 867 355 851 313 q 883 449 883 397 l 883 510 q 867 602 883 560 q 819 675 851 644 q 742 722 788 706 q 639 739 697 739 q 536 722 582 739 q 459 675 490 706 q 412 602 428 644 q 396 510 396 560 l 396 449 q 412 355 396 397 q 459 281 428 313 q 536 233 490 250 q 639 217 582 217 m 689 1044 l 808 1229 l 1093 1229 l 1094 1221 l 878 1044 l 689 1044 m 344 1044 l 464 1229 l 749 1229 l 750 1221 l 535 1044 l 344 1044 z "},"Ȏ":{"ha":1279,"x_min":63,"x_max":1217,"o":"m 639 -17 q 331 41 460 -17 q 132 209 201 99 q 63 478 63 319 q 132 748 63 638 q 331 915 201 858 q 639 972 460 972 q 949 915 819 972 q 1147 748 1078 858 q 1217 478 1217 638 q 1147 209 1217 319 q 949 41 1078 99 q 639 -17 819 -17 m 639 217 q 742 233 697 217 q 819 281 788 250 q 867 355 851 313 q 883 449 883 397 l 883 510 q 867 602 883 560 q 819 675 851 644 q 742 722 788 706 q 639 739 697 739 q 536 722 582 739 q 459 675 490 706 q 412 602 428 644 q 396 510 396 560 l 396 449 q 412 355 396 397 q 459 281 428 313 q 536 233 490 250 q 639 217 582 217 m 351 1026 q 386 1122 351 1075 q 485 1199 421 1168 q 639 1229 550 1229 q 794 1199 729 1229 q 893 1122 858 1168 q 928 1026 928 1075 l 778 1026 q 757 1058 775 1042 q 708 1085 739 1074 q 639 1096 678 1096 q 576 1086 607 1096 q 525 1060 546 1076 q 500 1026 504 1044 l 351 1026 z "},"Ō":{"ha":1279,"x_min":63,"x_max":1217,"o":"m 639 -17 q 331 41 460 -17 q 132 209 201 99 q 63 478 63 319 q 132 748 63 638 q 331 915 201 858 q 639 972 460 972 q 949 915 819 972 q 1147 748 1078 858 q 1217 478 1217 638 q 1147 209 1217 319 q 949 41 1078 99 q 639 -17 819 -17 m 639 217 q 742 233 697 217 q 819 281 788 250 q 867 355 851 313 q 883 449 883 397 l 883 510 q 867 602 883 560 q 819 675 851 644 q 742 722 788 706 q 639 739 697 739 q 536 722 582 739 q 459 675 490 706 q 412 602 428 644 q 396 510 396 560 l 396 449 q 412 355 396 397 q 459 281 428 313 q 536 233 490 250 q 639 217 582 217 m 392 1036 l 392 1175 l 886 1175 l 886 1036 l 392 1036 z "},"Ǫ":{"ha":1279,"x_min":63,"x_max":1217,"o":"m 639 -17 q 331 41 460 -17 q 132 209 201 99 q 63 478 63 319 q 132 748 63 638 q 331 915 201 858 q 639 972 460 972 q 949 915 819 972 q 1147 748 1078 858 q 1217 478 1217 638 q 1147 209 1217 319 q 949 41 1078 99 q 639 -17 819 -17 m 639 217 q 742 233 697 217 q 819 281 788 250 q 867 355 851 313 q 883 449 883 397 l 883 510 q 867 602 883 560 q 819 675 851 644 q 742 722 788 706 q 639 739 697 739 q 536 722 582 739 q 459 675 490 706 q 412 602 428 644 q 396 510 396 560 l 396 449 q 412 355 396 397 q 459 281 428 313 q 536 233 490 250 q 639 217 582 217 m 815 -293 q 724 -277 768 -293 q 653 -226 681 -261 q 625 -135 625 -192 q 649 -47 625 -83 q 699 17 674 -11 l 860 17 l 860 11 q 822 -33 835 -6 q 808 -86 808 -60 q 827 -140 808 -115 q 885 -164 846 -164 l 983 -164 l 983 -272 q 900 -287 946 -282 q 815 -293 854 -293 z "},"Ø":{"ha":1279,"x_min":63,"x_max":1217,"o":"m 639 -17 q 331 41 460 -17 q 132 209 201 99 q 63 478 63 319 q 132 748 63 638 q 331 915 201 858 q 639 972 460 972 q 949 915 819 972 q 1147 748 1078 858 q 1217 478 1217 638 q 1147 209 1217 319 q 949 41 1078 99 q 639 -17 819 -17 m 639 217 q 742 233 697 217 q 819 281 788 250 q 867 355 851 313 q 883 449 883 397 l 883 510 q 867 602 883 560 q 819 675 851 644 q 742 722 788 706 q 639 739 697 739 q 536 722 582 739 q 459 675 490 706 q 412 602 428 644 q 396 510 396 560 l 396 449 q 412 355 396 397 q 459 281 428 313 q 536 233 490 250 q 639 217 582 217 m 88 -51 l 1022 1006 l 1190 1006 l 256 -51 l 88 -51 z "},"Ǿ":{"ha":1279,"x_min":63,"x_max":1217,"o":"m 639 -17 q 331 41 460 -17 q 132 209 201 99 q 63 478 63 319 q 132 748 63 638 q 331 915 201 858 q 639 972 460 972 q 949 915 819 972 q 1147 748 1078 858 q 1217 478 1217 638 q 1147 209 1217 319 q 949 41 1078 99 q 639 -17 819 -17 m 639 217 q 742 233 697 217 q 819 281 788 250 q 867 355 851 313 q 883 449 883 397 l 883 510 q 867 602 883 560 q 819 675 851 644 q 742 722 788 706 q 639 739 697 739 q 536 722 582 739 q 459 675 490 706 q 412 602 428 644 q 396 510 396 560 l 396 449 q 412 355 396 397 q 459 281 428 313 q 536 233 490 250 q 639 217 582 217 m 88 -51 l 1022 1006 l 1190 1006 l 256 -51 l 88 -51 m 489 1044 l 632 1229 l 944 1229 l 946 1224 l 711 1044 l 489 1044 z "},"Õ":{"ha":1279,"x_min":63,"x_max":1217,"o":"m 639 -17 q 331 41 460 -17 q 132 209 201 99 q 63 478 63 319 q 132 748 63 638 q 331 915 201 858 q 639 972 460 972 q 949 915 819 972 q 1147 748 1078 858 q 1217 478 1217 638 q 1147 209 1217 319 q 949 41 1078 99 q 639 -17 819 -17 m 639 217 q 742 233 697 217 q 819 281 788 250 q 867 355 851 313 q 883 449 883 397 l 883 510 q 867 602 883 560 q 819 675 851 644 q 742 722 788 706 q 639 739 697 739 q 536 722 582 739 q 459 675 490 706 q 412 602 428 644 q 396 510 396 560 l 396 449 q 412 355 396 397 q 459 281 428 313 q 536 233 490 250 q 639 217 582 217 m 296 1026 q 323 1121 296 1074 q 399 1199 350 1168 q 514 1229 449 1229 q 610 1215 564 1229 q 699 1187 656 1201 q 783 1172 742 1172 q 833 1188 813 1172 q 861 1229 853 1204 l 981 1229 q 953 1135 981 1182 q 878 1058 926 1089 q 763 1026 829 1026 q 666 1041 713 1026 q 577 1070 619 1056 q 493 1085 535 1085 q 444 1068 464 1085 q 415 1026 425 1051 l 296 1026 z "},"Ȭ":{"ha":1279,"x_min":63,"x_max":1217,"o":"m 639 -17 q 331 41 460 -17 q 132 209 201 99 q 63 478 63 319 q 132 748 63 638 q 331 915 201 858 q 639 972 460 972 q 949 915 819 972 q 1147 748 1078 858 q 1217 478 1217 638 q 1147 209 1217 319 q 949 41 1078 99 q 639 -17 819 -17 m 639 217 q 742 233 697 217 q 819 281 788 250 q 867 355 851 313 q 883 449 883 397 l 883 510 q 867 602 883 560 q 819 675 851 644 q 742 722 788 706 q 639 739 697 739 q 536 722 582 739 q 459 675 490 706 q 412 602 428 644 q 396 510 396 560 l 396 449 q 412 355 396 397 q 459 281 428 313 q 536 233 490 250 q 639 217 582 217 m 296 1026 q 323 1121 296 1074 q 399 1199 350 1168 q 514 1229 449 1229 q 610 1215 564 1229 q 699 1187 656 1201 q 783 1172 742 1172 q 833 1188 813 1172 q 861 1229 853 1204 l 981 1229 q 953 1135 981 1182 q 878 1058 926 1089 q 763 1026 829 1026 q 666 1041 713 1026 q 577 1070 619 1056 q 493 1085 535 1085 q 444 1068 464 1085 q 415 1026 425 1051 l 296 1026 m 392 1289 l 392 1428 l 886 1428 l 886 1289 l 392 1289 z "},"Œ":{"ha":1876,"x_min":63,"x_max":1817,"o":"m 590 -17 q 300 41 418 -17 q 122 209 182 99 q 63 478 63 319 q 122 748 63 638 q 300 915 182 858 q 590 972 418 972 q 750 954 676 972 q 882 903 824 936 l 882 956 l 1806 956 l 1806 722 l 1208 722 l 1208 594 l 1722 594 l 1722 372 l 1208 372 l 1208 233 l 1817 233 l 1817 0 l 882 0 l 882 53 q 750 1 824 19 q 590 -17 676 -17 m 639 217 q 742 233 697 217 q 819 281 788 250 q 867 355 851 313 q 883 449 883 397 l 883 510 q 867 602 883 560 q 819 675 851 644 q 742 722 788 706 q 639 739 697 739 q 536 722 582 739 q 459 675 490 706 q 412 602 428 644 q 396 510 396 560 l 396 449 q 412 355 396 397 q 459 281 428 313 q 536 233 490 250 q 639 217 582 217 z "},"P":{"ha":1103,"x_min":103,"x_max":1082,"o":"m 103 0 l 103 956 l 769 956 q 932 914 861 956 q 1042 799 1003 872 q 1082 628 1082 725 q 1042 453 1082 528 q 931 337 1001 378 q 769 296 860 296 l 428 296 l 428 0 l 103 0 m 428 526 l 669 526 q 746 551 721 526 q 771 625 771 576 q 759 680 771 658 q 726 713 747 701 q 669 724 704 724 l 428 724 l 428 526 z "},"Þ":{"ha":1126,"x_min":103,"x_max":1068,"o":"m 103 0 l 103 956 l 428 956 l 428 822 l 756 822 q 918 781 847 822 q 1028 665 989 739 q 1068 493 1068 590 q 1028 319 1068 393 q 917 203 988 244 q 756 163 846 163 l 428 163 l 428 0 l 103 0 m 428 393 l 656 393 q 732 418 707 393 q 757 492 757 443 q 745 547 757 525 q 712 579 733 568 q 656 590 690 590 l 428 590 l 428 393 z "},"Q":{"ha":1279,"x_min":63,"x_max":1217,"o":"m 783 -182 l 621 -12 q 611 -14 617 -14 q 599 -14 606 -14 q 317 44 438 -14 q 129 213 196 103 q 63 478 63 324 q 132 748 63 638 q 331 915 201 858 q 639 972 460 972 q 949 915 819 972 q 1147 748 1078 858 q 1217 478 1217 638 q 1146 208 1217 318 q 944 39 1075 97 l 1186 -182 l 783 -182 m 639 217 q 742 233 697 217 q 819 281 788 250 q 867 355 851 313 q 883 449 883 397 l 883 510 q 867 602 883 560 q 819 675 851 644 q 742 722 788 706 q 639 739 697 739 q 536 722 582 739 q 459 675 490 706 q 412 602 428 644 q 396 510 396 560 l 396 449 q 412 355 396 397 q 459 281 428 313 q 536 233 490 250 q 639 217 582 217 z "},"R":{"ha":1196,"x_min":103,"x_max":1164,"o":"m 103 0 l 103 956 l 817 956 q 995 912 924 956 q 1103 797 1067 868 q 1139 644 1139 726 q 1096 478 1139 551 q 975 361 1053 406 l 1164 0 l 797 0 l 653 310 l 428 310 l 428 0 l 103 0 m 428 535 l 718 535 q 781 561 756 535 q 807 633 807 588 q 795 683 807 663 q 763 716 783 704 q 718 728 743 728 l 428 728 l 428 535 z "},"Ŕ":{"ha":1196,"x_min":103,"x_max":1164,"o":"m 103 0 l 103 956 l 817 956 q 995 912 924 956 q 1103 797 1067 868 q 1139 644 1139 726 q 1096 478 1139 551 q 975 361 1053 406 l 1164 0 l 797 0 l 653 310 l 428 310 l 428 0 l 103 0 m 428 535 l 718 535 q 781 561 756 535 q 807 633 807 588 q 795 683 807 663 q 763 716 783 704 q 718 728 743 728 l 428 728 l 428 535 m 440 1044 l 583 1229 l 896 1229 l 897 1224 l 663 1044 l 440 1044 z "},"Ř":{"ha":1196,"x_min":103,"x_max":1164,"o":"m 103 0 l 103 956 l 817 956 q 995 912 924 956 q 1103 797 1067 868 q 1139 644 1139 726 q 1096 478 1139 551 q 975 361 1053 406 l 1164 0 l 797 0 l 653 310 l 428 310 l 428 0 l 103 0 m 428 535 l 718 535 q 781 561 756 535 q 807 633 807 588 q 795 683 807 663 q 763 716 783 704 q 718 728 743 728 l 428 728 l 428 535 m 260 1229 l 476 1229 l 635 1094 l 546 1094 l 706 1229 l 922 1229 l 708 1036 l 474 1036 l 260 1229 z "},"Ŗ":{"ha":1196,"x_min":103,"x_max":1164,"o":"m 103 0 l 103 956 l 817 956 q 995 912 924 956 q 1103 797 1067 868 q 1139 644 1139 726 q 1096 478 1139 551 q 975 361 1053 406 l 1164 0 l 797 0 l 653 310 l 428 310 l 428 0 l 103 0 m 428 535 l 718 535 q 781 561 756 535 q 807 633 807 588 q 795 683 807 663 q 763 716 783 704 q 718 728 743 728 l 428 728 l 428 535 m 463 -535 l 463 -425 q 563 -392 529 -422 q 596 -306 596 -362 l 463 -306 l 463 -76 l 739 -76 l 739 -271 q 710 -415 739 -358 q 619 -501 681 -472 q 463 -535 557 -531 z "},"Ȑ":{"ha":1196,"x_min":103,"x_max":1164,"o":"m 103 0 l 103 956 l 817 956 q 995 912 924 956 q 1103 797 1067 868 q 1139 644 1139 726 q 1096 478 1139 551 q 975 361 1053 406 l 1164 0 l 797 0 l 653 310 l 428 310 l 428 0 l 103 0 m 428 535 l 718 535 q 781 561 756 535 q 807 633 807 588 q 795 683 807 663 q 763 716 783 704 q 718 728 743 728 l 428 728 l 428 535 m 704 1044 l 489 1221 l 490 1229 l 775 1229 l 894 1044 l 704 1044 m 361 1044 l 144 1221 l 146 1229 l 431 1229 l 550 1044 l 361 1044 z "},"Ȓ":{"ha":1196,"x_min":103,"x_max":1164,"o":"m 103 0 l 103 956 l 817 956 q 995 912 924 956 q 1103 797 1067 868 q 1139 644 1139 726 q 1096 478 1139 551 q 975 361 1053 406 l 1164 0 l 797 0 l 653 310 l 428 310 l 428 0 l 103 0 m 428 535 l 718 535 q 781 561 756 535 q 807 633 807 588 q 795 683 807 663 q 763 716 783 704 q 718 728 743 728 l 428 728 l 428 535 m 303 1026 q 338 1122 303 1075 q 437 1199 372 1168 q 590 1229 501 1229 q 745 1199 681 1229 q 844 1122 810 1168 q 879 1026 879 1075 l 729 1026 q 708 1058 726 1042 q 660 1085 690 1074 q 590 1096 629 1096 q 528 1086 558 1096 q 476 1060 497 1076 q 451 1026 456 1044 l 303 1026 z "},"S":{"ha":1114,"x_min":60,"x_max":1064,"o":"m 592 -17 q 384 -2 481 -17 q 215 48 288 13 q 101 147 143 83 q 60 306 60 210 q 60 313 60 308 q 61 324 60 318 l 374 324 q 372 313 372 318 q 372 304 372 308 q 396 240 372 263 q 463 210 419 218 q 560 203 506 203 q 606 203 582 203 q 651 208 629 204 q 692 218 674 211 q 720 237 710 225 q 731 267 731 249 q 703 308 731 293 q 629 331 676 322 q 524 349 582 340 q 404 369 467 357 q 283 402 342 382 q 178 456 225 422 q 104 542 132 490 q 76 667 76 593 q 116 808 76 750 q 223 903 156 867 q 378 956 290 939 q 560 972 465 972 q 742 956 657 972 q 894 903 828 939 q 997 813 960 868 q 1035 678 1035 757 l 1035 661 l 725 661 l 725 667 q 710 715 725 693 q 661 751 694 738 q 572 764 628 764 q 482 756 518 764 q 428 733 446 747 q 410 701 410 718 q 438 661 410 676 q 512 636 465 646 q 617 618 558 626 q 738 599 675 610 q 858 569 800 588 q 963 517 915 550 q 1037 436 1010 485 q 1064 317 1064 388 q 1002 125 1064 199 q 833 17 940 51 q 592 -17 726 -17 z "},"Ś":{"ha":1114,"x_min":60,"x_max":1064,"o":"m 592 -17 q 384 -2 481 -17 q 215 48 288 13 q 101 147 143 83 q 60 306 60 210 q 60 313 60 308 q 61 324 60 318 l 374 324 q 372 313 372 318 q 372 304 372 308 q 396 240 372 263 q 463 210 419 218 q 560 203 506 203 q 606 203 582 203 q 651 208 629 204 q 692 218 674 211 q 720 237 710 225 q 731 267 731 249 q 703 308 731 293 q 629 331 676 322 q 524 349 582 340 q 404 369 467 357 q 283 402 342 382 q 178 456 225 422 q 104 542 132 490 q 76 667 76 593 q 116 808 76 750 q 223 903 156 867 q 378 956 290 939 q 560 972 465 972 q 742 956 657 972 q 894 903 828 939 q 997 813 960 868 q 1035 678 1035 757 l 1035 661 l 725 661 l 725 667 q 710 715 725 693 q 661 751 694 738 q 572 764 628 764 q 482 756 518 764 q 428 733 446 747 q 410 701 410 718 q 438 661 410 676 q 512 636 465 646 q 617 618 558 626 q 738 599 675 610 q 858 569 800 588 q 963 517 915 550 q 1037 436 1010 485 q 1064 317 1064 388 q 1002 125 1064 199 q 833 17 940 51 q 592 -17 726 -17 m 413 1044 l 556 1229 l 868 1229 l 869 1224 l 635 1044 l 413 1044 z "},"Š":{"ha":1114,"x_min":60,"x_max":1064,"o":"m 592 -17 q 384 -2 481 -17 q 215 48 288 13 q 101 147 143 83 q 60 306 60 210 q 60 313 60 308 q 61 324 60 318 l 374 324 q 372 313 372 318 q 372 304 372 308 q 396 240 372 263 q 463 210 419 218 q 560 203 506 203 q 606 203 582 203 q 651 208 629 204 q 692 218 674 211 q 720 237 710 225 q 731 267 731 249 q 703 308 731 293 q 629 331 676 322 q 524 349 582 340 q 404 369 467 357 q 283 402 342 382 q 178 456 225 422 q 104 542 132 490 q 76 667 76 593 q 116 808 76 750 q 223 903 156 867 q 378 956 290 939 q 560 972 465 972 q 742 956 657 972 q 894 903 828 939 q 997 813 960 868 q 1035 678 1035 757 l 1035 661 l 725 661 l 725 667 q 710 715 725 693 q 661 751 694 738 q 572 764 628 764 q 482 756 518 764 q 428 733 446 747 q 410 701 410 718 q 438 661 410 676 q 512 636 465 646 q 617 618 558 626 q 738 599 675 610 q 858 569 800 588 q 963 517 915 550 q 1037 436 1010 485 q 1064 317 1064 388 q 1002 125 1064 199 q 833 17 940 51 q 592 -17 726 -17 m 232 1229 l 449 1229 l 607 1094 l 518 1094 l 678 1229 l 894 1229 l 681 1036 l 446 1036 l 232 1229 z "},"Ş":{"ha":1114,"x_min":60,"x_max":1064,"o":"m 592 -17 q 384 -2 481 -17 q 215 48 288 13 q 101 147 143 83 q 60 306 60 210 q 60 313 60 308 q 61 324 60 318 l 374 324 q 372 313 372 318 q 372 304 372 308 q 396 240 372 263 q 463 210 419 218 q 560 203 506 203 q 606 203 582 203 q 651 208 629 204 q 692 218 674 211 q 720 237 710 225 q 731 267 731 249 q 703 308 731 293 q 629 331 676 322 q 524 349 582 340 q 404 369 467 357 q 283 402 342 382 q 178 456 225 422 q 104 542 132 490 q 76 667 76 593 q 116 808 76 750 q 223 903 156 867 q 378 956 290 939 q 560 972 465 972 q 742 956 657 972 q 894 903 828 939 q 997 813 960 868 q 1035 678 1035 757 l 1035 661 l 725 661 l 725 667 q 710 715 725 693 q 661 751 694 738 q 572 764 628 764 q 482 756 518 764 q 428 733 446 747 q 410 701 410 718 q 438 661 410 676 q 512 636 465 646 q 617 618 558 626 q 738 599 675 610 q 858 569 800 588 q 963 517 915 550 q 1037 436 1010 485 q 1064 317 1064 388 q 1002 125 1064 199 q 833 17 940 51 q 592 -17 726 -17 m 564 -293 q 452 -287 511 -293 q 360 -271 393 -281 l 360 -192 l 525 -192 q 567 -187 551 -192 q 583 -161 583 -183 q 572 -134 583 -140 q 528 -128 560 -128 l 463 -128 l 493 54 l 636 54 l 618 -40 q 678 -56 649 -43 q 728 -96 708 -69 q 747 -165 747 -122 q 728 -229 747 -204 q 681 -268 710 -254 q 622 -287 653 -282 q 564 -293 590 -293 z "},"Ŝ":{"ha":1114,"x_min":60,"x_max":1064,"o":"m 592 -17 q 384 -2 481 -17 q 215 48 288 13 q 101 147 143 83 q 60 306 60 210 q 60 313 60 308 q 61 324 60 318 l 374 324 q 372 313 372 318 q 372 304 372 308 q 396 240 372 263 q 463 210 419 218 q 560 203 506 203 q 606 203 582 203 q 651 208 629 204 q 692 218 674 211 q 720 237 710 225 q 731 267 731 249 q 703 308 731 293 q 629 331 676 322 q 524 349 582 340 q 404 369 467 357 q 283 402 342 382 q 178 456 225 422 q 104 542 132 490 q 76 667 76 593 q 116 808 76 750 q 223 903 156 867 q 378 956 290 939 q 560 972 465 972 q 742 956 657 972 q 894 903 828 939 q 997 813 960 868 q 1035 678 1035 757 l 1035 661 l 725 661 l 725 667 q 710 715 725 693 q 661 751 694 738 q 572 764 628 764 q 482 756 518 764 q 428 733 446 747 q 410 701 410 718 q 438 661 410 676 q 512 636 465 646 q 617 618 558 626 q 738 599 675 610 q 858 569 800 588 q 963 517 915 550 q 1037 436 1010 485 q 1064 317 1064 388 q 1002 125 1064 199 q 833 17 940 51 q 592 -17 726 -17 m 232 1036 l 446 1229 l 681 1229 l 894 1036 l 678 1036 l 518 1172 l 607 1172 l 449 1036 l 232 1036 z "},"Ș":{"ha":1114,"x_min":60,"x_max":1064,"o":"m 592 -17 q 384 -2 481 -17 q 215 48 288 13 q 101 147 143 83 q 60 306 60 210 q 60 313 60 308 q 61 324 60 318 l 374 324 q 372 313 372 318 q 372 304 372 308 q 396 240 372 263 q 463 210 419 218 q 560 203 506 203 q 606 203 582 203 q 651 208 629 204 q 692 218 674 211 q 720 237 710 225 q 731 267 731 249 q 703 308 731 293 q 629 331 676 322 q 524 349 582 340 q 404 369 467 357 q 283 402 342 382 q 178 456 225 422 q 104 542 132 490 q 76 667 76 593 q 116 808 76 750 q 223 903 156 867 q 378 956 290 939 q 560 972 465 972 q 742 956 657 972 q 894 903 828 939 q 997 813 960 868 q 1035 678 1035 757 l 1035 661 l 725 661 l 725 667 q 710 715 725 693 q 661 751 694 738 q 572 764 628 764 q 482 756 518 764 q 428 733 446 747 q 410 701 410 718 q 438 661 410 676 q 512 636 465 646 q 617 618 558 626 q 738 599 675 610 q 858 569 800 588 q 963 517 915 550 q 1037 436 1010 485 q 1064 317 1064 388 q 1002 125 1064 199 q 833 17 940 51 q 592 -17 726 -17 m 417 -535 l 417 -425 q 517 -392 483 -422 q 550 -306 550 -362 l 417 -306 l 417 -76 l 693 -76 l 693 -271 q 664 -415 693 -358 q 573 -501 635 -472 q 417 -535 511 -531 z "},"Ṣ":{"ha":1114,"x_min":60,"x_max":1064,"o":"m 592 -17 q 384 -2 481 -17 q 215 48 288 13 q 101 147 143 83 q 60 306 60 210 q 60 313 60 308 q 61 324 60 318 l 374 324 q 372 313 372 318 q 372 304 372 308 q 396 240 372 263 q 463 210 419 218 q 560 203 506 203 q 606 203 582 203 q 651 208 629 204 q 692 218 674 211 q 720 237 710 225 q 731 267 731 249 q 703 308 731 293 q 629 331 676 322 q 524 349 582 340 q 404 369 467 357 q 283 402 342 382 q 178 456 225 422 q 104 542 132 490 q 76 667 76 593 q 116 808 76 750 q 223 903 156 867 q 378 956 290 939 q 560 972 465 972 q 742 956 657 972 q 894 903 828 939 q 997 813 960 868 q 1035 678 1035 757 l 1035 661 l 725 661 l 725 667 q 710 715 725 693 q 661 751 694 738 q 572 764 628 764 q 482 756 518 764 q 428 733 446 747 q 410 701 410 718 q 438 661 410 676 q 512 636 465 646 q 617 618 558 626 q 738 599 675 610 q 858 569 800 588 q 963 517 915 550 q 1037 436 1010 485 q 1064 317 1064 388 q 1002 125 1064 199 q 833 17 940 51 q 592 -17 726 -17 m 436 -276 l 436 -83 l 675 -83 l 675 -276 l 436 -276 z "},"ẞ":{"ha":1336,"x_min":99,"x_max":1281,"o":"m 99 0 l 99 563 q 165 779 99 688 q 366 922 231 871 q 710 972 501 972 q 908 958 814 972 q 1078 910 1003 943 q 1196 826 1153 878 q 1239 701 1239 774 q 1219 602 1239 643 q 1167 535 1199 561 q 1104 492 1136 508 l 1104 479 q 1235 403 1189 458 q 1281 263 1281 347 q 1242 128 1281 188 q 1131 35 1204 69 q 946 0 1057 0 l 517 0 l 517 228 l 853 228 q 908 235 886 228 q 940 258 929 243 q 950 299 950 274 q 940 340 950 325 q 908 363 929 356 q 853 369 886 369 l 517 369 l 517 568 l 801 568 q 881 593 851 568 q 910 656 910 618 q 857 734 910 713 q 682 756 804 756 q 522 731 578 756 q 444 661 465 707 q 424 547 424 615 l 424 0 l 99 0 z "},"Ə":{"ha":1279,"x_min":64,"x_max":1217,"o":"m 639 -17 q 402 17 508 -17 q 220 116 296 51 q 104 272 144 181 q 64 479 64 364 l 64 539 l 881 539 q 849 656 881 608 q 762 730 818 704 q 629 756 706 756 q 543 746 583 756 q 472 718 503 736 q 422 675 442 700 q 394 618 401 650 l 64 618 q 122 772 74 706 q 248 883 171 838 q 425 950 325 928 q 639 972 525 972 q 949 915 819 972 q 1147 748 1078 858 q 1217 478 1217 638 q 1147 209 1217 319 q 949 41 1078 99 q 639 -17 819 -17 m 639 217 q 749 235 700 217 q 831 289 799 254 q 871 369 863 324 l 408 369 q 433 306 414 335 q 484 258 453 278 q 554 228 515 239 q 639 217 593 217 z "},"T":{"ha":1111,"x_min":32,"x_max":1076,"o":"m 392 0 l 392 703 l 32 703 l 32 956 l 1076 956 l 1076 703 l 717 703 l 717 0 l 392 0 z "},"Ŧ":{"ha":1111,"x_min":32,"x_max":1076,"o":"m 392 0 l 392 703 l 32 703 l 32 956 l 1076 956 l 1076 703 l 717 703 l 717 0 l 392 0 m 215 351 l 215 521 l 894 521 l 894 351 l 215 351 z "},"Ť":{"ha":1111,"x_min":32,"x_max":1076,"o":"m 392 0 l 392 703 l 32 703 l 32 956 l 1076 956 l 1076 703 l 717 703 l 717 0 l 392 0 m 225 1229 l 442 1229 l 600 1094 l 511 1094 l 671 1229 l 888 1229 l 674 1036 l 439 1036 l 225 1229 z "},"Ţ":{"ha":1111,"x_min":32,"x_max":1076,"o":"m 392 0 l 392 703 l 32 703 l 32 956 l 1076 956 l 1076 703 l 717 703 l 717 0 l 392 0 m 564 -293 q 452 -287 511 -293 q 360 -271 393 -281 l 360 -192 l 525 -192 q 567 -187 551 -192 q 583 -161 583 -183 q 572 -134 583 -140 q 528 -128 560 -128 l 463 -128 l 493 54 l 636 54 l 618 -40 q 678 -56 649 -43 q 728 -96 708 -69 q 747 -165 747 -122 q 728 -229 747 -204 q 681 -268 710 -254 q 622 -287 653 -282 q 564 -293 590 -293 z "},"Ț":{"ha":1111,"x_min":32,"x_max":1076,"o":"m 392 0 l 392 703 l 32 703 l 32 956 l 1076 956 l 1076 703 l 717 703 l 717 0 l 392 0 m 417 -535 l 417 -425 q 517 -392 483 -422 q 550 -306 550 -362 l 417 -306 l 417 -76 l 693 -76 l 693 -272 q 664 -415 693 -358 q 573 -501 635 -472 q 417 -535 511 -531 z "},"Ṭ":{"ha":1111,"x_min":32,"x_max":1076,"o":"m 392 0 l 392 703 l 32 703 l 32 956 l 1076 956 l 1076 703 l 717 703 l 717 0 l 392 0 m 436 -276 l 436 -83 l 675 -83 l 675 -276 l 436 -276 z "},"U":{"ha":1265,"x_min":103,"x_max":1163,"o":"m 633 -17 q 342 33 460 -17 q 163 181 224 83 q 103 422 103 279 l 103 956 l 428 956 l 428 432 q 481 276 428 335 q 632 218 533 218 q 785 276 732 218 q 838 432 838 335 l 838 956 l 1163 956 l 1163 422 q 1103 181 1163 279 q 925 33 1043 83 q 633 -17 807 -17 z "},"Ú":{"ha":1265,"x_min":103,"x_max":1163,"o":"m 633 -17 q 342 33 460 -17 q 163 181 224 83 q 103 422 103 279 l 103 956 l 428 956 l 428 432 q 481 276 428 335 q 632 218 533 218 q 785 276 732 218 q 838 432 838 335 l 838 956 l 1163 956 l 1163 422 q 1103 181 1163 279 q 925 33 1043 83 q 633 -17 807 -17 m 483 1044 l 628 1229 l 939 1229 l 940 1224 l 707 1044 l 483 1044 z "},"Ŭ":{"ha":1265,"x_min":103,"x_max":1163,"o":"m 633 -17 q 342 33 460 -17 q 163 181 224 83 q 103 422 103 279 l 103 956 l 428 956 l 428 432 q 481 276 428 335 q 632 218 533 218 q 785 276 732 218 q 838 432 838 335 l 838 956 l 1163 956 l 1163 422 q 1103 181 1163 279 q 925 33 1043 83 q 633 -17 807 -17 m 633 1026 q 479 1058 543 1026 q 381 1136 415 1089 q 346 1229 346 1183 l 496 1229 q 520 1197 500 1213 q 571 1170 540 1181 q 633 1160 601 1160 q 703 1171 672 1160 q 752 1199 733 1182 q 774 1229 771 1215 l 922 1229 q 888 1136 922 1183 q 788 1058 853 1089 q 633 1026 722 1026 z "},"Ǔ":{"ha":1265,"x_min":103,"x_max":1163,"o":"m 633 -17 q 342 33 460 -17 q 163 181 224 83 q 103 422 103 279 l 103 956 l 428 956 l 428 432 q 481 276 428 335 q 632 218 533 218 q 785 276 732 218 q 838 432 838 335 l 838 956 l 1163 956 l 1163 422 q 1103 181 1163 279 q 925 33 1043 83 q 633 -17 807 -17 m 304 1229 l 521 1229 l 679 1094 l 590 1094 l 750 1229 l 967 1229 l 753 1036 l 518 1036 l 304 1229 z "},"Û":{"ha":1265,"x_min":103,"x_max":1163,"o":"m 633 -17 q 342 33 460 -17 q 163 181 224 83 q 103 422 103 279 l 103 956 l 428 956 l 428 432 q 481 276 428 335 q 632 218 533 218 q 785 276 732 218 q 838 432 838 335 l 838 956 l 1163 956 l 1163 422 q 1103 181 1163 279 q 925 33 1043 83 q 633 -17 807 -17 m 304 1036 l 518 1229 l 753 1229 l 967 1036 l 750 1036 l 590 1172 l 679 1172 l 521 1036 l 304 1036 z "},"Ȕ":{"ha":1265,"x_min":103,"x_max":1163,"o":"m 633 -17 q 342 33 460 -17 q 163 181 224 83 q 103 422 103 279 l 103 956 l 428 956 l 428 432 q 481 276 428 335 q 632 218 533 218 q 785 276 732 218 q 838 432 838 335 l 838 956 l 1163 956 l 1163 422 q 1103 181 1163 279 q 925 33 1043 83 q 633 -17 807 -17 m 749 1044 l 532 1221 l 533 1229 l 819 1229 l 938 1044 l 749 1044 m 404 1044 l 189 1221 l 190 1229 l 475 1229 l 594 1044 l 404 1044 z "},"Ü":{"ha":1265,"x_min":103,"x_max":1163,"o":"m 633 -17 q 342 33 460 -17 q 163 181 224 83 q 103 422 103 279 l 103 956 l 428 956 l 428 432 q 481 276 428 335 q 632 218 533 218 q 785 276 732 218 q 838 432 838 335 l 838 956 l 1163 956 l 1163 422 q 1103 181 1163 279 q 925 33 1043 83 q 633 -17 807 -17 m 343 1029 l 343 1229 l 581 1229 l 581 1029 l 343 1029 m 686 1029 l 686 1229 l 925 1229 l 925 1029 l 686 1029 z "},"Ǘ":{"ha":1265,"x_min":103,"x_max":1163,"o":"m 633 -17 q 342 33 460 -17 q 163 181 224 83 q 103 422 103 279 l 103 956 l 428 956 l 428 432 q 481 276 428 335 q 632 218 533 218 q 785 276 732 218 q 838 432 838 335 l 838 956 l 1163 956 l 1163 422 q 1103 181 1163 279 q 925 33 1043 83 q 633 -17 807 -17 m 343 1029 l 343 1229 l 581 1229 l 581 1029 l 343 1029 m 686 1029 l 686 1229 l 925 1229 l 925 1029 l 686 1029 m 483 1297 l 628 1482 l 939 1482 l 940 1476 l 707 1297 l 483 1297 z "},"Ǚ":{"ha":1265,"x_min":103,"x_max":1163,"o":"m 633 -17 q 342 33 460 -17 q 163 181 224 83 q 103 422 103 279 l 103 956 l 428 956 l 428 432 q 481 276 428 335 q 632 218 533 218 q 785 276 732 218 q 838 432 838 335 l 838 956 l 1163 956 l 1163 422 q 1103 181 1163 279 q 925 33 1043 83 q 633 -17 807 -17 m 343 1029 l 343 1229 l 581 1229 l 581 1029 l 343 1029 m 686 1029 l 686 1229 l 925 1229 l 925 1029 l 686 1029 m 304 1482 l 521 1482 l 679 1347 l 590 1347 l 750 1482 l 967 1482 l 753 1289 l 518 1289 l 304 1482 z "},"Ǜ":{"ha":1265,"x_min":103,"x_max":1163,"o":"m 633 -17 q 342 33 460 -17 q 163 181 224 83 q 103 422 103 279 l 103 956 l 428 956 l 428 432 q 481 276 428 335 q 632 218 533 218 q 785 276 732 218 q 838 432 838 335 l 838 956 l 1163 956 l 1163 422 q 1103 181 1163 279 q 925 33 1043 83 q 633 -17 807 -17 m 343 1029 l 343 1229 l 581 1229 l 581 1029 l 343 1029 m 686 1029 l 686 1229 l 925 1229 l 925 1029 l 686 1029 m 782 1297 l 558 1297 l 325 1476 l 326 1482 l 638 1482 l 782 1297 z "},"Ǖ":{"ha":1265,"x_min":103,"x_max":1163,"o":"m 632 -17 q 342 33 460 -17 q 163 181 224 83 q 103 422 103 279 l 103 956 l 428 956 l 428 432 q 481 276 428 335 q 632 218 533 218 q 785 276 732 218 q 838 432 838 335 l 838 956 l 1163 956 l 1163 422 q 1103 181 1163 279 q 925 33 1043 83 q 632 -17 807 -17 m 343 1029 l 343 1229 l 581 1229 l 581 1029 l 343 1029 m 686 1029 l 686 1229 l 925 1229 l 925 1029 l 686 1029 m 386 1289 l 386 1428 l 882 1428 l 882 1289 l 386 1289 z "},"Ụ":{"ha":1265,"x_min":103,"x_max":1163,"o":"m 633 -17 q 342 33 460 -17 q 163 181 224 83 q 103 422 103 279 l 103 956 l 428 956 l 428 432 q 481 276 428 335 q 632 218 533 218 q 785 276 732 218 q 838 432 838 335 l 838 956 l 1163 956 l 1163 422 q 1103 181 1163 279 q 925 33 1043 83 q 633 -17 807 -17 m 514 -276 l 514 -83 l 753 -83 l 753 -276 l 514 -276 z "},"Ù":{"ha":1265,"x_min":103,"x_max":1163,"o":"m 633 -17 q 342 33 460 -17 q 163 181 224 83 q 103 422 103 279 l 103 956 l 428 956 l 428 432 q 481 276 428 335 q 632 218 533 218 q 785 276 732 218 q 838 432 838 335 l 838 956 l 1163 956 l 1163 422 q 1103 181 1163 279 q 925 33 1043 83 q 633 -17 807 -17 m 782 1044 l 558 1044 l 325 1224 l 326 1229 l 638 1229 l 782 1044 z "},"Ủ":{"ha":1265,"x_min":103,"x_max":1163,"o":"m 633 -17 q 342 33 460 -17 q 163 181 224 83 q 103 422 103 279 l 103 956 l 428 956 l 428 432 q 481 276 428 335 q 632 218 533 218 q 785 276 732 218 q 838 432 838 335 l 838 956 l 1163 956 l 1163 422 q 1103 181 1163 279 q 925 33 1043 83 q 633 -17 807 -17 m 571 1038 l 571 1113 l 581 1113 q 617 1117 610 1113 q 625 1136 625 1122 q 612 1156 625 1151 q 574 1160 599 1160 l 489 1160 l 489 1233 q 534 1240 507 1238 q 589 1243 561 1242 q 635 1244 617 1244 q 694 1240 660 1244 q 759 1224 728 1235 q 812 1196 790 1214 q 833 1150 833 1178 q 813 1107 833 1124 q 762 1083 793 1090 q 697 1072 731 1075 l 697 1038 l 571 1038 z "},"Ư":{"ha":1265,"x_min":103,"x_max":1315,"o":"m 633 -17 q 342 33 460 -17 q 163 181 224 83 q 103 422 103 279 l 103 956 l 428 956 l 428 432 q 481 276 428 335 q 632 218 533 218 q 785 276 732 218 q 838 432 838 335 l 838 956 l 1163 956 l 1163 422 q 1103 181 1163 279 q 925 33 1043 83 q 633 -17 807 -17 m 975 829 l 975 956 q 1092 974 1049 956 q 1142 1031 1136 993 l 1032 1031 l 1032 1242 l 1315 1242 l 1315 1113 q 1277 958 1315 1022 q 1163 862 1239 894 q 975 829 1088 829 z "},"Ứ":{"ha":1265,"x_min":103,"x_max":1315,"o":"m 633 -17 q 342 33 460 -17 q 163 181 224 83 q 103 422 103 279 l 103 956 l 428 956 l 428 432 q 481 276 428 335 q 632 218 533 218 q 785 276 732 218 q 838 432 838 335 l 838 956 l 1163 956 l 1163 422 q 1103 181 1163 279 q 925 33 1043 83 q 633 -17 807 -17 m 975 829 l 975 956 q 1092 974 1049 956 q 1142 1031 1136 993 l 1032 1031 l 1032 1242 l 1315 1242 l 1315 1113 q 1277 958 1315 1022 q 1163 862 1239 894 q 975 829 1088 829 m 483 1044 l 628 1229 l 939 1229 l 940 1224 l 707 1044 l 483 1044 z "},"Ự":{"ha":1265,"x_min":103,"x_max":1315,"o":"m 633 -17 q 342 33 460 -17 q 163 181 224 83 q 103 422 103 279 l 103 956 l 428 956 l 428 432 q 481 276 428 335 q 632 218 533 218 q 785 276 732 218 q 838 432 838 335 l 838 956 l 1163 956 l 1163 422 q 1103 181 1163 279 q 925 33 1043 83 q 633 -17 807 -17 m 975 829 l 975 956 q 1092 974 1049 956 q 1142 1031 1136 993 l 1032 1031 l 1032 1242 l 1315 1242 l 1315 1113 q 1277 958 1315 1022 q 1163 862 1239 894 q 975 829 1088 829 m 514 -276 l 514 -83 l 753 -83 l 753 -276 l 514 -276 z "},"Ừ":{"ha":1265,"x_min":103,"x_max":1315,"o":"m 633 -17 q 342 33 460 -17 q 163 181 224 83 q 103 422 103 279 l 103 956 l 428 956 l 428 432 q 481 276 428 335 q 632 218 533 218 q 785 276 732 218 q 838 432 838 335 l 838 956 l 1163 956 l 1163 422 q 1103 181 1163 279 q 925 33 1043 83 q 633 -17 807 -17 m 975 829 l 975 956 q 1092 974 1049 956 q 1142 1031 1136 993 l 1032 1031 l 1032 1242 l 1315 1242 l 1315 1113 q 1277 958 1315 1022 q 1163 862 1239 894 q 975 829 1088 829 m 782 1044 l 558 1044 l 325 1224 l 326 1229 l 638 1229 l 782 1044 z "},"Ử":{"ha":1265,"x_min":103,"x_max":1315,"o":"m 633 -17 q 342 33 460 -17 q 163 181 224 83 q 103 422 103 279 l 103 956 l 428 956 l 428 432 q 481 276 428 335 q 632 218 533 218 q 785 276 732 218 q 838 432 838 335 l 838 956 l 1163 956 l 1163 422 q 1103 181 1163 279 q 925 33 1043 83 q 633 -17 807 -17 m 975 829 l 975 956 q 1092 974 1049 956 q 1142 1031 1136 993 l 1032 1031 l 1032 1242 l 1315 1242 l 1315 1113 q 1277 958 1315 1022 q 1163 862 1239 894 q 975 829 1088 829 m 571 1038 l 571 1113 l 581 1113 q 617 1117 610 1113 q 625 1136 625 1122 q 612 1156 625 1151 q 574 1160 599 1160 l 489 1160 l 489 1233 q 534 1240 507 1238 q 589 1243 561 1242 q 635 1244 617 1244 q 694 1240 660 1244 q 759 1224 728 1235 q 812 1196 790 1214 q 833 1150 833 1178 q 813 1107 833 1124 q 762 1083 793 1090 q 697 1072 731 1075 l 697 1038 l 571 1038 z "},"Ữ":{"ha":1265,"x_min":103,"x_max":1315,"o":"m 633 -17 q 342 33 460 -17 q 163 181 224 83 q 103 422 103 279 l 103 956 l 428 956 l 428 432 q 481 276 428 335 q 632 218 533 218 q 785 276 732 218 q 838 432 838 335 l 838 956 l 1163 956 l 1163 422 q 1103 181 1163 279 q 925 33 1043 83 q 633 -17 807 -17 m 975 829 l 975 956 q 1092 974 1049 956 q 1142 1031 1136 993 l 1032 1031 l 1032 1242 l 1315 1242 l 1315 1113 q 1277 958 1315 1022 q 1163 862 1239 894 q 975 829 1088 829 m 310 1026 q 335 1121 310 1074 q 408 1199 361 1168 q 517 1229 454 1229 q 607 1215 564 1229 q 690 1187 650 1201 q 771 1172 731 1172 q 817 1188 799 1172 q 843 1229 836 1204 l 957 1229 q 931 1135 957 1182 q 859 1058 906 1089 q 751 1026 813 1026 q 660 1041 704 1026 q 576 1070 617 1056 q 497 1085 535 1085 q 451 1068 469 1085 q 424 1026 432 1051 l 310 1026 z "},"Ű":{"ha":1265,"x_min":103,"x_max":1163,"o":"m 633 -17 q 342 33 460 -17 q 163 181 224 83 q 103 422 103 279 l 103 956 l 428 956 l 428 432 q 481 276 428 335 q 632 218 533 218 q 785 276 732 218 q 838 432 838 335 l 838 956 l 1163 956 l 1163 422 q 1103 181 1163 279 q 925 33 1043 83 q 633 -17 807 -17 m 683 1044 l 803 1229 l 1088 1229 l 1089 1221 l 874 1044 l 683 1044 m 340 1044 l 458 1229 l 744 1229 l 746 1221 l 529 1044 l 340 1044 z "},"Ȗ":{"ha":1265,"x_min":103,"x_max":1163,"o":"m 633 -17 q 342 33 460 -17 q 163 181 224 83 q 103 422 103 279 l 103 956 l 428 956 l 428 432 q 481 276 428 335 q 632 218 533 218 q 785 276 732 218 q 838 432 838 335 l 838 956 l 1163 956 l 1163 422 q 1103 181 1163 279 q 925 33 1043 83 q 633 -17 807 -17 m 346 1026 q 381 1122 346 1075 q 481 1199 415 1168 q 635 1229 546 1229 q 788 1199 724 1229 q 888 1122 853 1168 q 922 1026 922 1075 l 774 1026 q 752 1058 771 1042 q 703 1085 733 1074 q 635 1096 674 1096 q 571 1086 601 1096 q 520 1060 540 1076 q 496 1026 500 1044 l 346 1026 z "},"Ū":{"ha":1265,"x_min":103,"x_max":1163,"o":"m 633 -17 q 342 33 460 -17 q 163 181 224 83 q 103 422 103 279 l 103 956 l 428 956 l 428 432 q 481 276 428 335 q 632 218 533 218 q 785 276 732 218 q 838 432 838 335 l 838 956 l 1163 956 l 1163 422 q 1103 181 1163 279 q 925 33 1043 83 q 633 -17 807 -17 m 386 1036 l 386 1175 l 882 1175 l 882 1036 l 386 1036 z "},"Ų":{"ha":1265,"x_min":103,"x_max":1163,"o":"m 633 -17 q 342 33 460 -17 q 163 181 224 83 q 103 422 103 279 l 103 956 l 428 956 l 428 432 q 481 276 428 335 q 632 218 533 218 q 785 276 732 218 q 838 432 838 335 l 838 956 l 1163 956 l 1163 422 q 1103 181 1163 279 q 925 33 1043 83 q 633 -17 807 -17 m 814 -293 q 723 -277 767 -293 q 652 -226 679 -261 q 625 -135 625 -192 q 649 -47 625 -83 q 697 17 674 -11 l 858 17 l 858 11 q 820 -33 833 -6 q 807 -86 807 -60 q 826 -140 807 -115 q 883 -164 846 -164 l 982 -164 l 982 -272 q 900 -287 946 -282 q 814 -293 854 -293 z "},"Ů":{"ha":1265,"x_min":103,"x_max":1163,"o":"m 632 -17 q 342 33 460 -17 q 163 181 224 83 q 103 422 103 279 l 103 956 l 428 956 l 428 432 q 481 276 428 335 q 632 218 533 218 q 785 276 732 218 q 838 432 838 335 l 838 956 l 1163 956 l 1163 422 q 1103 181 1163 279 q 925 33 1043 83 q 632 -17 807 -17 m 635 1015 q 523 1056 567 1015 q 479 1163 479 1097 q 523 1269 479 1228 q 635 1311 567 1311 q 745 1269 701 1311 q 789 1163 789 1228 q 745 1057 789 1099 q 635 1015 701 1015 m 635 1110 q 675 1125 658 1110 q 692 1164 692 1140 q 675 1201 692 1186 q 635 1217 658 1217 q 594 1201 610 1217 q 578 1163 578 1186 q 594 1124 578 1139 q 635 1110 610 1110 z "},"Ũ":{"ha":1265,"x_min":103,"x_max":1163,"o":"m 633 -17 q 342 33 460 -17 q 163 181 224 83 q 103 422 103 279 l 103 956 l 428 956 l 428 432 q 481 276 428 335 q 632 218 533 218 q 785 276 732 218 q 838 432 838 335 l 838 956 l 1163 956 l 1163 422 q 1103 181 1163 279 q 925 33 1043 83 q 633 -17 807 -17 m 292 1026 q 319 1121 292 1074 q 395 1199 346 1168 q 510 1229 444 1229 q 606 1215 560 1229 q 694 1187 651 1201 q 779 1172 738 1172 q 828 1188 808 1172 q 856 1229 849 1204 l 975 1229 q 948 1135 975 1182 q 872 1058 921 1089 q 758 1026 824 1026 q 662 1041 708 1026 q 572 1070 615 1056 q 489 1085 529 1085 q 440 1068 460 1085 q 411 1026 419 1051 l 292 1026 z "},"V":{"ha":1192,"x_min":18,"x_max":1174,"o":"m 419 0 l 18 956 l 372 956 l 525 535 q 546 478 533 515 q 572 399 558 440 q 597 324 586 358 l 607 324 q 630 394 617 354 q 656 472 643 433 q 679 535 669 510 l 835 956 l 1174 956 l 772 0 l 419 0 z "},"W":{"ha":1549,"x_min":7,"x_max":1542,"o":"m 260 0 l 7 956 l 342 956 l 440 540 q 453 490 447 518 q 464 436 458 463 q 472 392 469 410 l 481 392 q 487 424 483 406 q 494 463 490 443 q 503 503 499 483 q 511 540 507 524 l 606 956 l 967 956 l 1064 540 q 1074 494 1068 521 q 1085 440 1079 467 q 1094 392 1090 413 l 1103 392 q 1110 426 1106 407 q 1117 465 1114 444 q 1126 504 1121 485 q 1133 540 1131 524 l 1231 956 l 1542 956 l 1290 0 l 924 0 l 808 493 q 798 538 804 514 q 787 583 792 561 q 779 621 782 606 l 771 621 q 762 581 767 604 q 751 534 757 557 q 742 493 746 511 l 625 0 l 260 0 z "},"Ẃ":{"ha":1549,"x_min":7,"x_max":1542,"o":"m 260 0 l 7 956 l 342 956 l 440 540 q 453 490 447 518 q 464 436 458 463 q 472 392 469 410 l 481 392 q 487 424 483 406 q 494 463 490 443 q 503 503 499 483 q 511 540 507 524 l 606 956 l 967 956 l 1064 540 q 1074 494 1068 521 q 1085 440 1079 467 q 1094 392 1090 413 l 1103 392 q 1110 426 1106 407 q 1117 465 1114 444 q 1126 504 1121 485 q 1133 540 1131 524 l 1231 956 l 1542 956 l 1290 0 l 924 0 l 808 493 q 798 538 804 514 q 787 583 792 561 q 779 621 782 606 l 771 621 q 762 581 767 604 q 751 534 757 557 q 742 493 746 511 l 625 0 l 260 0 m 625 1044 l 769 1229 l 1081 1229 l 1082 1224 l 849 1044 l 625 1044 z "},"Ŵ":{"ha":1549,"x_min":7,"x_max":1542,"o":"m 260 0 l 7 956 l 342 956 l 440 540 q 453 490 447 518 q 464 436 458 463 q 472 392 469 410 l 481 392 q 487 424 483 406 q 494 463 490 443 q 503 503 499 483 q 511 540 507 524 l 606 956 l 967 956 l 1064 540 q 1074 494 1068 521 q 1085 440 1079 467 q 1094 392 1090 413 l 1103 392 q 1110 426 1106 407 q 1117 465 1114 444 q 1126 504 1121 485 q 1133 540 1131 524 l 1231 956 l 1542 956 l 1290 0 l 924 0 l 808 493 q 798 538 804 514 q 787 583 792 561 q 779 621 782 606 l 771 621 q 762 581 767 604 q 751 534 757 557 q 742 493 746 511 l 625 0 l 260 0 m 446 1036 l 660 1229 l 894 1229 l 1108 1036 l 892 1036 l 732 1172 l 821 1172 l 663 1036 l 446 1036 z "},"Ẅ":{"ha":1549,"x_min":7,"x_max":1542,"o":"m 260 0 l 7 956 l 342 956 l 440 540 q 453 490 447 518 q 463 436 458 463 q 472 392 468 410 l 479 392 q 487 424 483 406 q 494 463 490 443 q 503 503 499 483 q 511 540 507 524 l 606 956 l 967 956 l 1064 540 q 1074 494 1068 521 q 1085 440 1079 467 q 1094 392 1090 413 l 1103 392 q 1110 426 1106 407 q 1117 465 1114 444 q 1126 504 1121 485 q 1133 540 1131 524 l 1231 956 l 1542 956 l 1290 0 l 924 0 l 807 493 q 798 538 804 514 q 787 583 792 561 q 778 621 782 606 l 771 621 q 762 581 767 604 q 751 534 757 557 q 742 493 746 511 l 625 0 l 260 0 m 485 1029 l 485 1229 l 722 1229 l 722 1029 l 485 1029 m 828 1029 l 828 1229 l 1067 1229 l 1067 1029 l 828 1029 z "},"Ẁ":{"ha":1549,"x_min":7,"x_max":1542,"o":"m 260 0 l 7 956 l 342 956 l 440 540 q 453 490 447 518 q 464 436 458 463 q 472 392 469 410 l 481 392 q 487 424 483 406 q 494 463 490 443 q 503 503 499 483 q 511 540 507 524 l 606 956 l 967 956 l 1064 540 q 1074 494 1068 521 q 1085 440 1079 467 q 1094 392 1090 413 l 1103 392 q 1110 426 1106 407 q 1117 465 1114 444 q 1126 504 1121 485 q 1133 540 1131 524 l 1231 956 l 1542 956 l 1290 0 l 924 0 l 808 493 q 798 538 804 514 q 787 583 792 561 q 779 621 782 606 l 771 621 q 762 581 767 604 q 751 534 757 557 q 742 493 746 511 l 625 0 l 260 0 m 924 1044 l 700 1044 l 467 1224 l 468 1229 l 779 1229 l 924 1044 z "},"X":{"ha":1208,"x_min":11,"x_max":1213,"o":"m 11 0 l 410 500 l 49 956 l 456 956 l 622 721 l 631 721 l 803 956 l 1178 956 l 814 506 l 1213 0 l 806 0 l 603 283 l 594 283 l 388 0 l 11 0 z "},"Y":{"ha":1211,"x_min":17,"x_max":1194,"o":"m 444 0 l 444 374 l 17 956 l 394 956 l 610 636 l 618 636 l 833 956 l 1194 956 l 769 374 l 769 0 l 444 0 z "},"Ý":{"ha":1211,"x_min":17,"x_max":1194,"o":"m 444 0 l 444 374 l 17 956 l 394 956 l 610 636 l 618 636 l 833 956 l 1194 956 l 769 374 l 769 0 l 444 0 m 461 1044 l 604 1229 l 917 1229 l 918 1224 l 683 1044 l 461 1044 z "},"Ŷ":{"ha":1211,"x_min":17,"x_max":1194,"o":"m 444 0 l 444 374 l 17 956 l 394 956 l 610 636 l 618 636 l 833 956 l 1194 956 l 769 374 l 769 0 l 444 0 m 281 1036 l 494 1229 l 729 1229 l 943 1036 l 726 1036 l 567 1172 l 656 1172 l 497 1036 l 281 1036 z "},"Ÿ":{"ha":1211,"x_min":17,"x_max":1194,"o":"m 444 0 l 444 374 l 17 956 l 394 956 l 610 636 l 618 636 l 833 956 l 1194 956 l 769 374 l 769 0 l 444 0 m 321 1029 l 321 1229 l 558 1229 l 558 1029 l 321 1029 m 664 1029 l 664 1229 l 903 1229 l 903 1029 l 664 1029 z "},"Ỵ":{"ha":1211,"x_min":17,"x_max":1194,"o":"m 444 0 l 444 374 l 17 956 l 394 956 l 610 636 l 618 636 l 833 956 l 1194 956 l 769 374 l 769 0 l 444 0 m 490 -276 l 490 -83 l 729 -83 l 729 -276 l 490 -276 z "},"Ỳ":{"ha":1211,"x_min":17,"x_max":1194,"o":"m 444 0 l 444 374 l 17 956 l 394 956 l 610 636 l 618 636 l 833 956 l 1194 956 l 769 374 l 769 0 l 444 0 m 758 1044 l 536 1044 l 301 1224 l 303 1229 l 615 1229 l 758 1044 z "},"Ỷ":{"ha":1211,"x_min":17,"x_max":1194,"o":"m 444 0 l 444 374 l 17 956 l 394 956 l 610 636 l 618 636 l 833 956 l 1194 956 l 769 374 l 769 0 l 444 0 m 547 1038 l 547 1113 l 558 1113 q 594 1117 586 1113 q 603 1136 603 1122 q 589 1156 603 1151 q 550 1160 575 1160 l 465 1160 l 465 1233 q 511 1240 483 1238 q 566 1243 539 1242 q 611 1244 593 1244 q 670 1240 636 1244 q 736 1224 704 1235 q 789 1196 768 1214 q 810 1150 810 1178 q 790 1106 810 1122 q 738 1083 769 1090 q 674 1072 707 1075 l 674 1038 l 547 1038 z "},"Ȳ":{"ha":1211,"x_min":17,"x_max":1194,"o":"m 444 0 l 444 374 l 17 956 l 394 956 l 610 636 l 618 636 l 833 956 l 1194 956 l 769 374 l 769 0 l 444 0 m 364 1036 l 364 1175 l 858 1175 l 858 1036 l 364 1036 z "},"Ỹ":{"ha":1211,"x_min":17,"x_max":1194,"o":"m 444 0 l 444 374 l 17 956 l 394 956 l 610 636 l 618 636 l 833 956 l 1194 956 l 769 374 l 769 0 l 444 0 m 268 1026 q 295 1121 268 1074 q 372 1199 322 1168 q 486 1229 421 1229 q 582 1215 536 1229 q 671 1187 628 1201 q 756 1172 714 1172 q 805 1188 785 1172 q 833 1229 825 1204 l 953 1229 q 926 1135 953 1182 q 850 1058 899 1089 q 735 1026 801 1026 q 638 1041 685 1026 q 549 1070 592 1056 q 465 1085 507 1085 q 417 1068 436 1085 q 388 1026 397 1051 l 268 1026 z "},"Z":{"ha":1111,"x_min":33,"x_max":1068,"o":"m 33 0 l 33 99 l 532 722 l 71 722 l 71 956 l 1056 956 l 1056 857 l 556 233 l 1068 233 l 1068 0 l 33 0 z "},"Ź":{"ha":1111,"x_min":33,"x_max":1068,"o":"m 33 0 l 33 99 l 532 722 l 71 722 l 71 956 l 1056 956 l 1056 857 l 556 233 l 1068 233 l 1068 0 l 33 0 m 407 1044 l 551 1229 l 863 1229 l 864 1224 l 631 1044 l 407 1044 z "},"Ž":{"ha":1111,"x_min":33,"x_max":1068,"o":"m 33 0 l 33 99 l 532 722 l 71 722 l 71 956 l 1056 956 l 1056 857 l 556 233 l 1068 233 l 1068 0 l 33 0 m 228 1229 l 444 1229 l 603 1094 l 514 1094 l 674 1229 l 890 1229 l 676 1036 l 442 1036 l 228 1229 z "},"Ż":{"ha":1111,"x_min":33,"x_max":1068,"o":"m 33 0 l 33 99 l 532 722 l 71 722 l 71 956 l 1056 956 l 1056 857 l 556 233 l 1068 233 l 1068 0 l 33 0 m 440 1029 l 440 1229 l 679 1229 l 679 1029 l 440 1029 z "},"a":{"ha":1025,"x_min":42,"x_max":1021,"o":"m 338 -17 q 219 -6 274 -17 q 126 28 165 4 q 64 94 86 53 q 42 196 42 135 q 82 332 42 281 q 198 409 122 383 q 380 444 274 435 q 619 453 486 453 l 619 478 q 603 533 619 513 q 556 564 586 554 q 488 574 526 574 q 431 569 461 574 q 378 550 400 564 q 357 511 357 536 l 357 506 l 63 506 q 61 515 61 511 q 61 524 61 518 q 110 642 61 590 q 257 722 160 693 q 496 750 354 750 q 713 727 619 750 q 860 651 807 704 q 914 510 914 599 l 914 229 q 925 191 914 207 q 958 175 936 175 l 1021 175 l 1021 11 q 957 -8 1000 1 q 863 -17 914 -17 q 753 -4 797 -17 q 683 30 708 8 q 647 78 657 51 l 636 78 q 558 28 601 50 q 460 -5 514 7 q 338 -17 406 -17 m 440 157 q 494 163 464 157 q 553 183 525 169 q 601 215 582 196 q 619 263 619 235 l 619 317 q 455 305 518 317 q 363 272 392 293 q 333 222 333 251 q 349 181 333 196 q 390 162 365 167 q 440 157 414 157 z "},"á":{"ha":1025,"x_min":42,"x_max":1021,"o":"m 338 -17 q 219 -6 274 -17 q 126 28 165 4 q 64 94 86 53 q 42 196 42 135 q 82 332 42 281 q 198 409 122 383 q 380 444 274 435 q 619 453 486 453 l 619 478 q 603 533 619 513 q 556 564 586 554 q 488 574 526 574 q 431 569 461 574 q 378 550 400 564 q 357 511 357 536 l 357 506 l 63 506 q 61 515 61 511 q 61 524 61 518 q 110 642 61 590 q 257 722 160 693 q 496 750 354 750 q 713 727 619 750 q 860 651 807 704 q 914 510 914 599 l 914 229 q 925 191 914 207 q 958 175 936 175 l 1021 175 l 1021 11 q 957 -8 1000 1 q 863 -17 914 -17 q 753 -4 797 -17 q 683 30 708 8 q 647 78 657 51 l 636 78 q 558 28 601 50 q 460 -5 514 7 q 338 -17 406 -17 m 440 157 q 494 163 464 157 q 553 183 525 169 q 601 215 582 196 q 619 263 619 235 l 619 317 q 455 305 518 317 q 363 272 392 293 q 333 222 333 251 q 349 181 333 196 q 390 162 365 167 q 440 157 414 157 m 331 821 l 475 1006 l 783 1006 l 785 1000 l 550 821 l 331 821 z "},"ă":{"ha":1025,"x_min":42,"x_max":1021,"o":"m 338 -17 q 219 -6 274 -17 q 126 28 165 4 q 64 94 86 53 q 42 196 42 135 q 82 332 42 281 q 198 409 122 383 q 380 444 274 435 q 619 453 486 453 l 619 478 q 603 533 619 513 q 556 564 586 554 q 488 574 526 574 q 431 569 461 574 q 378 550 400 564 q 357 511 357 536 l 357 506 l 63 506 q 61 515 61 511 q 61 524 61 518 q 110 642 61 590 q 257 722 160 693 q 496 750 354 750 q 713 727 619 750 q 860 651 807 704 q 914 510 914 599 l 914 229 q 925 191 914 207 q 958 175 936 175 l 1021 175 l 1021 11 q 957 -8 1000 1 q 863 -17 914 -17 q 753 -4 797 -17 q 683 30 708 8 q 647 78 657 51 l 636 78 q 558 28 601 50 q 460 -5 514 7 q 338 -17 406 -17 m 440 157 q 494 163 464 157 q 553 183 525 169 q 601 215 582 196 q 619 263 619 235 l 619 317 q 455 305 518 317 q 363 272 392 293 q 333 222 333 251 q 349 181 333 196 q 390 162 365 167 q 440 157 414 157 m 489 803 q 334 834 399 803 q 235 913 269 865 q 201 1006 201 960 l 351 1006 q 378 970 356 986 q 430 945 400 954 q 489 936 460 936 q 558 947 528 936 q 608 975 589 958 q 629 1006 626 992 l 778 1006 q 742 913 778 960 q 642 834 707 865 q 489 803 578 803 z "},"ắ":{"ha":1025,"x_min":42,"x_max":1021,"o":"m 338 -17 q 219 -6 274 -17 q 126 28 165 4 q 64 94 86 53 q 42 196 42 135 q 82 332 42 281 q 198 409 122 383 q 380 444 274 435 q 619 453 486 453 l 619 478 q 603 533 619 513 q 556 564 586 554 q 488 574 526 574 q 431 569 461 574 q 378 550 400 564 q 357 511 357 536 l 357 506 l 63 506 q 61 515 61 511 q 61 524 61 518 q 110 642 61 590 q 257 722 160 693 q 496 750 354 750 q 713 727 619 750 q 860 651 807 704 q 914 510 914 599 l 914 229 q 925 191 914 207 q 958 175 936 175 l 1021 175 l 1021 11 q 957 -8 1000 1 q 863 -17 914 -17 q 753 -4 797 -17 q 683 30 708 8 q 647 78 657 51 l 636 78 q 558 28 601 50 q 460 -5 514 7 q 338 -17 406 -17 m 440 157 q 494 163 464 157 q 553 183 525 169 q 601 215 582 196 q 619 263 619 235 l 619 317 q 455 305 518 317 q 363 272 392 293 q 333 222 333 251 q 349 181 333 196 q 390 162 365 167 q 440 157 414 157 m 489 803 q 334 834 399 803 q 235 913 269 865 q 201 1006 201 960 l 351 1006 q 378 970 356 986 q 430 945 400 954 q 489 936 460 936 q 558 947 528 936 q 608 975 589 958 q 629 1006 626 992 l 778 1006 q 742 913 778 960 q 642 834 707 865 q 489 803 578 803 m 331 1074 l 475 1258 l 783 1258 l 785 1253 l 550 1074 l 331 1074 z "},"ặ":{"ha":1025,"x_min":42,"x_max":1021,"o":"m 338 -17 q 219 -6 274 -17 q 126 28 165 4 q 64 94 86 53 q 42 196 42 135 q 82 332 42 281 q 198 409 122 383 q 380 444 274 435 q 619 453 486 453 l 619 478 q 603 533 619 513 q 556 564 586 554 q 488 574 526 574 q 431 569 461 574 q 378 550 400 564 q 357 511 357 536 l 357 506 l 63 506 q 61 515 61 511 q 61 524 61 518 q 110 642 61 590 q 257 722 160 693 q 496 750 354 750 q 713 727 619 750 q 860 651 807 704 q 914 510 914 599 l 914 229 q 925 191 914 207 q 958 175 936 175 l 1021 175 l 1021 11 q 957 -8 1000 1 q 863 -17 914 -17 q 753 -4 797 -17 q 683 30 708 8 q 647 78 657 51 l 636 78 q 558 28 601 50 q 460 -5 514 7 q 338 -17 406 -17 m 440 157 q 494 163 464 157 q 553 183 525 169 q 601 215 582 196 q 619 263 619 235 l 619 317 q 455 305 518 317 q 363 272 392 293 q 333 222 333 251 q 349 181 333 196 q 390 162 365 167 q 440 157 414 157 m 368 -276 l 368 -83 l 607 -83 l 607 -276 l 368 -276 m 489 803 q 334 834 399 803 q 235 913 269 865 q 201 1006 201 960 l 351 1006 q 378 970 356 986 q 430 945 400 954 q 489 936 460 936 q 558 947 528 936 q 608 975 589 958 q 629 1006 626 992 l 778 1006 q 742 913 778 960 q 642 834 707 865 q 489 803 578 803 z "},"ằ":{"ha":1025,"x_min":42,"x_max":1021,"o":"m 338 -17 q 219 -6 274 -17 q 126 28 165 4 q 64 94 86 53 q 42 196 42 135 q 82 332 42 281 q 198 409 122 383 q 380 444 274 435 q 619 453 486 453 l 619 478 q 603 533 619 513 q 556 564 586 554 q 488 574 526 574 q 431 569 461 574 q 378 550 400 564 q 357 511 357 536 l 357 506 l 63 506 q 61 515 61 511 q 61 524 61 518 q 110 642 61 590 q 257 722 160 693 q 496 750 354 750 q 713 727 619 750 q 860 651 807 704 q 914 510 914 599 l 914 229 q 925 191 914 207 q 958 175 936 175 l 1021 175 l 1021 11 q 957 -8 1000 1 q 863 -17 914 -17 q 753 -4 797 -17 q 683 30 708 8 q 647 78 657 51 l 636 78 q 558 28 601 50 q 460 -5 514 7 q 338 -17 406 -17 m 440 157 q 494 163 464 157 q 553 183 525 169 q 601 215 582 196 q 619 263 619 235 l 619 317 q 455 305 518 317 q 363 272 392 293 q 333 222 333 251 q 349 181 333 196 q 390 162 365 167 q 440 157 414 157 m 489 803 q 334 834 399 803 q 235 913 269 865 q 201 1006 201 960 l 351 1006 q 378 970 356 986 q 430 945 400 954 q 489 936 460 936 q 558 947 528 936 q 608 975 589 958 q 629 1006 626 992 l 778 1006 q 742 913 778 960 q 642 834 707 865 q 489 803 578 803 m 654 1074 l 435 1074 l 200 1253 l 201 1258 l 510 1258 l 654 1074 z "},"ẳ":{"ha":1025,"x_min":42,"x_max":1021,"o":"m 338 -17 q 219 -6 274 -17 q 126 28 165 4 q 64 94 86 53 q 42 196 42 135 q 82 332 42 281 q 198 409 122 383 q 380 444 274 435 q 619 453 486 453 l 619 478 q 603 533 619 513 q 556 564 586 554 q 488 574 526 574 q 431 569 461 574 q 378 550 400 564 q 357 511 357 536 l 357 506 l 63 506 q 61 515 61 511 q 61 524 61 518 q 110 642 61 590 q 257 722 160 693 q 496 750 354 750 q 713 727 619 750 q 860 651 807 704 q 914 510 914 599 l 914 229 q 925 191 914 207 q 958 175 936 175 l 1021 175 l 1021 11 q 957 -8 1000 1 q 863 -17 914 -17 q 753 -4 797 -17 q 683 30 708 8 q 647 78 657 51 l 636 78 q 558 28 601 50 q 460 -5 514 7 q 338 -17 406 -17 m 440 157 q 494 163 464 157 q 553 183 525 169 q 601 215 582 196 q 619 263 619 235 l 619 317 q 455 305 518 317 q 363 272 392 293 q 333 222 333 251 q 349 181 333 196 q 390 162 365 167 q 440 157 414 157 m 489 803 q 334 834 399 803 q 235 913 269 865 q 201 1006 201 960 l 351 1006 q 378 970 356 986 q 430 945 400 954 q 489 936 460 936 q 558 947 528 936 q 608 975 589 958 q 629 1006 626 992 l 778 1006 q 742 913 778 960 q 642 834 707 865 q 489 803 578 803 m 425 1072 l 425 1149 l 436 1149 q 472 1153 464 1149 q 481 1171 481 1157 q 467 1191 481 1186 q 428 1196 454 1196 l 343 1196 l 343 1268 q 388 1275 361 1272 q 443 1279 415 1278 q 489 1281 471 1281 q 548 1276 514 1281 q 614 1260 582 1271 q 667 1231 646 1249 q 688 1185 688 1213 q 667 1142 688 1158 q 617 1117 647 1125 q 551 1107 586 1110 l 551 1072 l 425 1072 z "},"ẵ":{"ha":1025,"x_min":42,"x_max":1021,"o":"m 338 -17 q 219 -6 274 -17 q 126 28 165 4 q 64 94 86 53 q 42 196 42 135 q 82 332 42 281 q 198 409 122 383 q 380 444 274 435 q 619 453 486 453 l 619 478 q 603 533 619 513 q 556 564 586 554 q 488 574 526 574 q 431 569 461 574 q 378 550 400 564 q 357 511 357 536 l 357 506 l 63 506 q 61 515 61 511 q 61 524 61 518 q 110 642 61 590 q 257 722 160 693 q 496 750 354 750 q 713 727 619 750 q 860 651 807 704 q 914 510 914 599 l 914 229 q 925 191 914 207 q 958 175 936 175 l 1021 175 l 1021 11 q 957 -8 1000 1 q 863 -17 914 -17 q 753 -4 797 -17 q 683 30 708 8 q 647 78 657 51 l 636 78 q 558 28 601 50 q 460 -5 514 7 q 338 -17 406 -17 m 440 157 q 494 163 464 157 q 553 183 525 169 q 601 215 582 196 q 619 263 619 235 l 619 317 q 455 305 518 317 q 363 272 392 293 q 333 222 333 251 q 349 181 333 196 q 390 162 365 167 q 440 157 414 157 m 489 803 q 334 834 399 803 q 235 913 269 865 q 201 1006 201 960 l 351 1006 q 378 970 356 986 q 430 945 400 954 q 489 936 460 936 q 558 947 528 936 q 608 975 589 958 q 629 1006 626 992 l 778 1006 q 742 913 778 960 q 642 834 707 865 q 489 803 578 803 m 147 1056 q 174 1150 147 1103 q 251 1228 201 1197 q 365 1258 300 1258 q 461 1244 415 1258 q 550 1216 507 1231 q 635 1201 593 1201 q 684 1217 664 1201 q 711 1258 704 1233 l 831 1258 q 803 1165 831 1211 q 728 1087 776 1118 q 614 1056 679 1056 q 517 1070 564 1056 q 428 1099 471 1085 q 344 1114 385 1114 q 295 1097 315 1114 q 267 1056 275 1081 l 147 1056 z "},"ǎ":{"ha":1025,"x_min":42,"x_max":1021,"o":"m 338 -17 q 219 -6 274 -17 q 126 28 165 4 q 64 94 86 53 q 42 196 42 135 q 82 332 42 281 q 198 409 122 383 q 380 444 274 435 q 619 453 486 453 l 619 478 q 603 533 619 513 q 556 564 586 554 q 488 574 526 574 q 431 569 461 574 q 378 550 400 564 q 357 511 357 536 l 357 506 l 63 506 q 61 515 61 511 q 61 524 61 518 q 110 642 61 590 q 257 722 160 693 q 496 750 354 750 q 713 727 619 750 q 860 651 807 704 q 914 510 914 599 l 914 229 q 925 191 914 207 q 958 175 936 175 l 1021 175 l 1021 11 q 957 -8 1000 1 q 863 -17 914 -17 q 753 -4 797 -17 q 683 30 708 8 q 647 78 657 51 l 636 78 q 558 28 601 50 q 460 -5 514 7 q 338 -17 406 -17 m 440 157 q 494 163 464 157 q 553 183 525 169 q 601 215 582 196 q 619 263 619 235 l 619 317 q 455 305 518 317 q 363 272 392 293 q 333 222 333 251 q 349 181 333 196 q 390 162 365 167 q 440 157 414 157 m 163 1006 l 375 1006 l 533 871 l 444 871 l 604 1006 l 818 1006 l 604 813 l 376 813 l 163 1006 z "},"â":{"ha":1025,"x_min":42,"x_max":1021,"o":"m 338 -17 q 219 -6 274 -17 q 126 28 165 4 q 64 94 86 53 q 42 196 42 135 q 82 332 42 281 q 198 409 122 383 q 380 444 274 435 q 619 453 486 453 l 619 478 q 603 533 619 513 q 556 564 586 554 q 488 574 526 574 q 431 569 461 574 q 378 550 400 564 q 357 511 357 536 l 357 506 l 63 506 q 61 515 61 511 q 61 524 61 518 q 110 642 61 590 q 257 722 160 693 q 496 750 354 750 q 713 727 619 750 q 860 651 807 704 q 914 510 914 599 l 914 229 q 925 191 914 207 q 958 175 936 175 l 1021 175 l 1021 11 q 957 -8 1000 1 q 863 -17 914 -17 q 753 -4 797 -17 q 683 30 708 8 q 647 78 657 51 l 636 78 q 558 28 601 50 q 460 -5 514 7 q 338 -17 406 -17 m 440 157 q 494 163 464 157 q 553 183 525 169 q 601 215 582 196 q 619 263 619 235 l 619 317 q 455 305 518 317 q 363 272 392 293 q 333 222 333 251 q 349 181 333 196 q 390 162 365 167 q 440 157 414 157 m 163 813 l 376 1006 l 604 1006 l 818 813 l 604 813 l 444 949 l 533 949 l 375 813 l 163 813 z "},"ấ":{"ha":1025,"x_min":42,"x_max":1021,"o":"m 338 -17 q 219 -6 274 -17 q 126 28 165 4 q 64 94 86 53 q 42 196 42 135 q 82 332 42 281 q 198 409 122 383 q 380 444 274 435 q 619 453 486 453 l 619 478 q 603 533 619 513 q 556 564 586 554 q 488 574 526 574 q 431 569 461 574 q 378 550 400 564 q 357 511 357 536 l 357 506 l 63 506 q 61 515 61 511 q 61 524 61 518 q 110 642 61 590 q 257 722 160 693 q 496 750 354 750 q 713 727 619 750 q 860 651 807 704 q 914 510 914 599 l 914 229 q 925 191 914 207 q 958 175 936 175 l 1021 175 l 1021 11 q 957 -8 1000 1 q 863 -17 914 -17 q 753 -4 797 -17 q 683 30 708 8 q 647 78 657 51 l 636 78 q 558 28 601 50 q 460 -5 514 7 q 338 -17 406 -17 m 440 157 q 494 163 464 157 q 553 183 525 169 q 601 215 582 196 q 619 263 619 235 l 619 317 q 455 305 518 317 q 363 272 392 293 q 333 222 333 251 q 349 181 333 196 q 390 162 365 167 q 440 157 414 157 m 163 813 l 376 1006 l 604 1006 l 818 813 l 604 813 l 444 949 l 533 949 l 375 813 l 163 813 m 331 1074 l 475 1258 l 783 1258 l 785 1253 l 550 1074 l 331 1074 z "},"ậ":{"ha":1025,"x_min":42,"x_max":1021,"o":"m 338 -17 q 219 -6 274 -17 q 126 28 165 4 q 64 94 86 53 q 42 196 42 135 q 82 332 42 281 q 198 409 122 383 q 380 444 274 435 q 619 453 486 453 l 619 478 q 603 533 619 513 q 556 564 586 554 q 488 574 526 574 q 431 569 461 574 q 378 550 400 564 q 357 511 357 536 l 357 506 l 63 506 q 61 515 61 511 q 61 524 61 518 q 110 642 61 590 q 257 722 160 693 q 496 750 354 750 q 713 727 619 750 q 860 651 807 704 q 914 510 914 599 l 914 229 q 925 191 914 207 q 958 175 936 175 l 1021 175 l 1021 11 q 957 -8 1000 1 q 863 -17 914 -17 q 753 -4 797 -17 q 683 30 708 8 q 647 78 657 51 l 636 78 q 558 28 601 50 q 460 -5 514 7 q 338 -17 406 -17 m 440 157 q 494 163 464 157 q 553 183 525 169 q 601 215 582 196 q 619 263 619 235 l 619 317 q 455 305 518 317 q 363 272 392 293 q 333 222 333 251 q 349 181 333 196 q 390 162 365 167 q 440 157 414 157 m 368 -276 l 368 -83 l 607 -83 l 607 -276 l 368 -276 m 163 813 l 376 1006 l 604 1006 l 818 813 l 604 813 l 444 949 l 533 949 l 375 813 l 163 813 z "},"ầ":{"ha":1025,"x_min":42,"x_max":1021,"o":"m 338 -17 q 219 -6 274 -17 q 126 28 165 4 q 64 94 86 53 q 42 196 42 135 q 82 332 42 281 q 198 409 122 383 q 380 444 274 435 q 619 453 486 453 l 619 478 q 603 533 619 513 q 556 564 586 554 q 488 574 526 574 q 431 569 461 574 q 378 550 400 564 q 357 511 357 536 l 357 506 l 63 506 q 61 515 61 511 q 61 524 61 518 q 110 642 61 590 q 257 722 160 693 q 496 750 354 750 q 713 727 619 750 q 860 651 807 704 q 914 510 914 599 l 914 229 q 925 191 914 207 q 958 175 936 175 l 1021 175 l 1021 11 q 957 -8 1000 1 q 863 -17 914 -17 q 753 -4 797 -17 q 683 30 708 8 q 647 78 657 51 l 636 78 q 558 28 601 50 q 460 -5 514 7 q 338 -17 406 -17 m 440 157 q 494 163 464 157 q 553 183 525 169 q 601 215 582 196 q 619 263 619 235 l 619 317 q 455 305 518 317 q 363 272 392 293 q 333 222 333 251 q 349 181 333 196 q 390 162 365 167 q 440 157 414 157 m 163 813 l 376 1006 l 604 1006 l 818 813 l 604 813 l 444 949 l 533 949 l 375 813 l 163 813 m 654 1074 l 435 1074 l 200 1253 l 201 1258 l 510 1258 l 654 1074 z "},"ẩ":{"ha":1025,"x_min":42,"x_max":1021,"o":"m 338 -17 q 219 -6 274 -17 q 126 28 165 4 q 64 94 86 53 q 42 196 42 135 q 82 332 42 281 q 198 409 122 383 q 380 444 274 435 q 619 453 486 453 l 619 478 q 603 533 619 513 q 556 564 586 554 q 488 574 526 574 q 431 569 461 574 q 378 550 400 564 q 357 511 357 536 l 357 506 l 63 506 q 61 515 61 511 q 61 524 61 518 q 110 642 61 590 q 257 722 160 693 q 496 750 354 750 q 713 727 619 750 q 860 651 807 704 q 914 510 914 599 l 914 229 q 925 191 914 207 q 958 175 936 175 l 1021 175 l 1021 11 q 957 -8 1000 1 q 863 -17 914 -17 q 753 -4 797 -17 q 683 30 708 8 q 647 78 657 51 l 636 78 q 558 28 601 50 q 460 -5 514 7 q 338 -17 406 -17 m 440 157 q 494 163 464 157 q 553 183 525 169 q 601 215 582 196 q 619 263 619 235 l 619 317 q 455 305 518 317 q 363 272 392 293 q 333 222 333 251 q 349 181 333 196 q 390 162 365 167 q 440 157 414 157 m 163 813 l 376 1006 l 604 1006 l 818 813 l 604 813 l 444 949 l 533 949 l 375 813 l 163 813 m 425 1072 l 425 1149 l 436 1149 q 472 1153 464 1149 q 481 1171 481 1157 q 467 1191 481 1186 q 428 1196 454 1196 l 343 1196 l 343 1268 q 388 1275 361 1272 q 443 1279 415 1278 q 489 1281 471 1281 q 548 1276 514 1281 q 614 1260 582 1271 q 667 1231 646 1249 q 688 1185 688 1213 q 667 1142 688 1158 q 617 1117 647 1125 q 551 1107 586 1110 l 551 1072 l 425 1072 z "},"ẫ":{"ha":1025,"x_min":42,"x_max":1021,"o":"m 338 -17 q 219 -6 274 -17 q 126 28 165 4 q 64 94 86 53 q 42 196 42 135 q 82 332 42 281 q 198 409 122 383 q 380 444 274 435 q 619 453 486 453 l 619 478 q 603 533 619 513 q 556 564 586 554 q 488 574 526 574 q 431 569 461 574 q 378 550 400 564 q 357 511 357 536 l 357 506 l 63 506 q 61 515 61 511 q 61 524 61 518 q 110 642 61 590 q 257 722 160 693 q 496 750 354 750 q 713 727 619 750 q 860 651 807 704 q 914 510 914 599 l 914 229 q 925 191 914 207 q 958 175 936 175 l 1021 175 l 1021 11 q 957 -8 1000 1 q 863 -17 914 -17 q 753 -4 797 -17 q 683 30 708 8 q 647 78 657 51 l 636 78 q 558 28 601 50 q 460 -5 514 7 q 338 -17 406 -17 m 440 157 q 494 163 464 157 q 553 183 525 169 q 601 215 582 196 q 619 263 619 235 l 619 317 q 455 305 518 317 q 363 272 392 293 q 333 222 333 251 q 349 181 333 196 q 390 162 365 167 q 440 157 414 157 m 163 813 l 376 1006 l 604 1006 l 818 813 l 604 813 l 444 949 l 533 949 l 375 813 l 163 813 m 147 1056 q 174 1150 147 1103 q 251 1228 201 1197 q 365 1258 300 1258 q 461 1244 415 1258 q 550 1216 507 1231 q 635 1201 593 1201 q 684 1217 664 1201 q 711 1258 704 1233 l 831 1258 q 803 1165 831 1211 q 728 1087 776 1118 q 614 1056 679 1056 q 517 1070 564 1056 q 428 1099 471 1085 q 344 1114 385 1114 q 295 1097 315 1114 q 267 1056 275 1081 l 147 1056 z "},"ȁ":{"ha":1025,"x_min":35,"x_max":1021,"o":"m 338 -17 q 219 -6 274 -17 q 126 28 165 4 q 64 94 86 53 q 42 196 42 135 q 82 332 42 281 q 198 409 122 383 q 380 444 274 435 q 619 453 486 453 l 619 478 q 603 533 619 513 q 556 564 586 554 q 488 574 526 574 q 431 569 461 574 q 378 550 400 564 q 357 511 357 536 l 357 506 l 63 506 q 61 515 61 511 q 61 524 61 518 q 110 642 61 590 q 257 722 160 693 q 496 750 354 750 q 713 727 619 750 q 860 651 807 704 q 914 510 914 599 l 914 229 q 925 191 914 207 q 958 175 936 175 l 1021 175 l 1021 11 q 957 -8 1000 1 q 863 -17 914 -17 q 753 -4 797 -17 q 683 30 708 8 q 647 78 657 51 l 636 78 q 558 28 601 50 q 460 -5 514 7 q 338 -17 406 -17 m 440 157 q 494 163 464 157 q 553 183 525 169 q 601 215 582 196 q 619 263 619 235 l 619 317 q 455 305 518 317 q 363 272 392 293 q 333 222 333 251 q 349 181 333 196 q 390 162 365 167 q 440 157 414 157 m 581 821 l 364 999 l 365 1007 l 644 1007 l 763 821 l 581 821 m 250 821 l 35 999 l 36 1007 l 314 1007 l 433 821 l 250 821 z "},"ä":{"ha":1025,"x_min":42,"x_max":1021,"o":"m 338 -17 q 219 -6 274 -17 q 126 28 165 4 q 64 94 86 53 q 42 196 42 135 q 82 332 42 281 q 198 409 122 383 q 380 444 274 435 q 619 453 486 453 l 619 478 q 603 533 619 513 q 556 564 586 554 q 488 574 526 574 q 431 569 461 574 q 378 550 400 564 q 357 511 357 536 l 357 506 l 63 506 q 61 515 61 511 q 61 524 61 518 q 110 642 61 590 q 257 722 160 693 q 496 750 354 750 q 713 727 619 750 q 860 651 807 704 q 914 510 914 599 l 914 229 q 925 191 914 207 q 958 175 936 175 l 1021 175 l 1021 11 q 957 -8 1000 1 q 863 -17 914 -17 q 753 -4 797 -17 q 683 30 708 8 q 647 78 657 51 l 636 78 q 558 28 601 50 q 460 -5 514 7 q 338 -17 406 -17 m 440 157 q 494 163 464 157 q 553 183 525 169 q 601 215 582 196 q 619 263 619 235 l 619 317 q 455 305 518 317 q 363 272 392 293 q 333 222 333 251 q 349 181 333 196 q 390 162 365 167 q 440 157 414 157 m 199 806 l 199 1006 l 436 1006 l 436 806 l 199 806 m 542 806 l 542 1006 l 781 1006 l 781 806 l 542 806 z "},"ạ":{"ha":1025,"x_min":42,"x_max":1021,"o":"m 338 -17 q 219 -6 274 -17 q 126 28 165 4 q 64 94 86 53 q 42 196 42 135 q 82 332 42 281 q 198 409 122 383 q 380 444 274 435 q 619 453 486 453 l 619 478 q 603 533 619 513 q 556 564 586 554 q 488 574 526 574 q 431 569 461 574 q 378 550 400 564 q 357 511 357 536 l 357 506 l 63 506 q 61 515 61 511 q 61 524 61 518 q 110 642 61 590 q 257 722 160 693 q 496 750 354 750 q 713 727 619 750 q 860 651 807 704 q 914 510 914 599 l 914 229 q 925 191 914 207 q 958 175 936 175 l 1021 175 l 1021 11 q 957 -8 1000 1 q 863 -17 914 -17 q 753 -4 797 -17 q 683 30 708 8 q 647 78 657 51 l 636 78 q 558 28 601 50 q 460 -5 514 7 q 338 -17 406 -17 m 440 157 q 494 163 464 157 q 553 183 525 169 q 601 215 582 196 q 619 263 619 235 l 619 317 q 455 305 518 317 q 363 272 392 293 q 333 222 333 251 q 349 181 333 196 q 390 162 365 167 q 440 157 414 157 m 368 -276 l 368 -83 l 607 -83 l 607 -276 l 368 -276 z "},"à":{"ha":1025,"x_min":42,"x_max":1021,"o":"m 338 -17 q 219 -6 274 -17 q 126 28 165 4 q 64 94 86 53 q 42 196 42 135 q 82 332 42 281 q 198 409 122 383 q 380 444 274 435 q 619 453 486 453 l 619 478 q 603 533 619 513 q 556 564 586 554 q 488 574 526 574 q 431 569 461 574 q 378 550 400 564 q 357 511 357 536 l 357 506 l 63 506 q 61 515 61 511 q 61 524 61 518 q 110 642 61 590 q 257 722 160 693 q 496 750 354 750 q 713 727 619 750 q 860 651 807 704 q 914 510 914 599 l 914 229 q 925 191 914 207 q 958 175 936 175 l 1021 175 l 1021 11 q 957 -8 1000 1 q 863 -17 914 -17 q 753 -4 797 -17 q 683 30 708 8 q 647 78 657 51 l 636 78 q 558 28 601 50 q 460 -5 514 7 q 338 -17 406 -17 m 440 157 q 494 163 464 157 q 553 183 525 169 q 601 215 582 196 q 619 263 619 235 l 619 317 q 455 305 518 317 q 363 272 392 293 q 333 222 333 251 q 349 181 333 196 q 390 162 365 167 q 440 157 414 157 m 654 821 l 435 821 l 200 1000 l 201 1006 l 510 1006 l 654 821 z "},"ả":{"ha":1025,"x_min":42,"x_max":1021,"o":"m 338 -17 q 219 -6 274 -17 q 126 28 165 4 q 64 94 86 53 q 42 196 42 135 q 82 332 42 281 q 198 409 122 383 q 380 444 274 435 q 619 453 486 453 l 619 478 q 603 533 619 513 q 556 564 586 554 q 488 574 526 574 q 431 569 461 574 q 378 550 400 564 q 357 511 357 536 l 357 506 l 63 506 q 61 515 61 511 q 61 524 61 518 q 110 642 61 590 q 257 722 160 693 q 496 750 354 750 q 713 727 619 750 q 860 651 807 704 q 914 510 914 599 l 914 229 q 925 191 914 207 q 958 175 936 175 l 1021 175 l 1021 11 q 957 -8 1000 1 q 863 -17 914 -17 q 753 -4 797 -17 q 683 30 708 8 q 647 78 657 51 l 636 78 q 558 28 601 50 q 460 -5 514 7 q 338 -17 406 -17 m 440 157 q 494 163 464 157 q 553 183 525 169 q 601 215 582 196 q 619 263 619 235 l 619 317 q 455 305 518 317 q 363 272 392 293 q 333 222 333 251 q 349 181 333 196 q 390 162 365 167 q 440 157 414 157 m 425 819 l 425 896 l 436 896 q 472 900 464 896 q 481 918 481 904 q 467 938 481 933 q 428 943 454 943 l 343 943 l 343 1015 q 388 1022 361 1019 q 443 1026 415 1025 q 489 1028 471 1028 q 548 1023 514 1028 q 614 1007 582 1018 q 667 978 646 996 q 688 932 688 960 q 667 889 688 906 q 617 865 647 872 q 551 854 586 857 l 551 819 l 425 819 z "},"ȃ":{"ha":1025,"x_min":42,"x_max":1021,"o":"m 338 -17 q 219 -6 274 -17 q 126 28 165 4 q 64 94 86 53 q 42 196 42 135 q 82 332 42 281 q 198 409 122 383 q 380 444 274 435 q 619 453 486 453 l 619 478 q 603 533 619 513 q 556 564 586 554 q 488 574 526 574 q 431 569 461 574 q 378 550 400 564 q 357 511 357 536 l 357 506 l 63 506 q 61 515 61 511 q 61 524 61 518 q 110 642 61 590 q 257 722 160 693 q 496 750 354 750 q 713 727 619 750 q 860 651 807 704 q 914 510 914 599 l 914 229 q 925 191 914 207 q 958 175 936 175 l 1021 175 l 1021 11 q 957 -8 1000 1 q 863 -17 914 -17 q 753 -4 797 -17 q 683 30 708 8 q 647 78 657 51 l 636 78 q 558 28 601 50 q 460 -5 514 7 q 338 -17 406 -17 m 440 157 q 494 163 464 157 q 553 183 525 169 q 601 215 582 196 q 619 263 619 235 l 619 317 q 455 305 518 317 q 363 272 392 293 q 333 222 333 251 q 349 181 333 196 q 390 162 365 167 q 440 157 414 157 m 488 1006 q 642 975 576 1006 q 742 898 707 944 q 776 803 776 851 l 628 803 q 606 834 625 818 q 557 861 588 850 q 488 872 526 872 q 429 863 460 872 q 377 839 399 854 q 350 803 356 824 l 200 803 q 235 898 200 851 q 334 975 269 944 q 488 1006 399 1006 z "},"ā":{"ha":1025,"x_min":42,"x_max":1021,"o":"m 338 -17 q 219 -6 274 -17 q 126 28 165 4 q 64 94 86 53 q 42 196 42 135 q 82 332 42 281 q 198 409 122 383 q 380 444 274 435 q 619 453 486 453 l 619 478 q 603 533 619 513 q 556 564 586 554 q 488 574 526 574 q 431 569 461 574 q 378 550 400 564 q 357 511 357 536 l 357 506 l 63 506 q 61 515 61 511 q 61 524 61 518 q 110 642 61 590 q 257 722 160 693 q 496 750 354 750 q 713 727 619 750 q 860 651 807 704 q 914 510 914 599 l 914 229 q 925 191 914 207 q 958 175 936 175 l 1021 175 l 1021 11 q 957 -8 1000 1 q 863 -17 914 -17 q 753 -4 797 -17 q 683 30 708 8 q 647 78 657 51 l 636 78 q 558 28 601 50 q 460 -5 514 7 q 338 -17 406 -17 m 440 157 q 494 163 464 157 q 553 183 525 169 q 601 215 582 196 q 619 263 619 235 l 619 317 q 455 305 518 317 q 363 272 392 293 q 333 222 333 251 q 349 181 333 196 q 390 162 365 167 q 440 157 414 157 m 242 832 l 242 971 l 736 971 l 736 832 l 242 832 z "},"ą":{"ha":1025,"x_min":42,"x_max":1021,"o":"m 338 -17 q 219 -6 274 -17 q 126 28 165 4 q 64 94 86 53 q 42 196 42 135 q 82 332 42 281 q 198 409 122 383 q 380 444 274 435 q 619 453 486 453 l 619 478 q 603 533 619 513 q 556 564 586 554 q 488 574 526 574 q 431 569 461 574 q 378 550 400 564 q 357 511 357 536 l 357 506 l 63 506 q 61 515 61 511 q 61 524 61 518 q 110 642 61 590 q 257 722 160 693 q 496 750 354 750 q 713 727 619 750 q 860 651 807 704 q 914 510 914 599 l 914 229 q 925 191 914 207 q 958 175 936 175 l 1021 175 l 1021 11 q 957 -8 1000 1 q 863 -17 914 -17 q 753 -4 797 -17 q 683 30 708 8 q 647 78 657 51 l 636 78 q 558 28 601 50 q 460 -5 514 7 q 338 -17 406 -17 m 440 157 q 494 163 464 157 q 553 183 525 169 q 601 215 582 196 q 619 263 619 235 l 619 317 q 455 305 518 317 q 363 272 392 293 q 333 222 333 251 q 349 181 333 196 q 390 162 365 167 q 440 157 414 157 m 853 -293 q 762 -277 806 -293 q 690 -226 718 -261 q 663 -135 663 -192 q 687 -47 663 -83 q 736 17 711 -11 l 897 17 l 897 11 q 859 -33 872 -6 q 846 -86 846 -60 q 865 -140 846 -115 q 922 -164 883 -164 l 1021 -164 l 1021 -272 q 938 -287 985 -282 q 853 -293 892 -293 z "},"å":{"ha":1025,"x_min":42,"x_max":1021,"o":"m 338 -17 q 219 -6 274 -17 q 126 28 165 4 q 64 94 86 53 q 42 196 42 135 q 82 332 42 281 q 198 409 122 383 q 380 444 274 435 q 619 453 486 453 l 619 478 q 603 533 619 513 q 556 564 586 554 q 488 574 526 574 q 431 569 461 574 q 378 550 400 564 q 357 511 357 536 l 357 506 l 63 506 q 61 515 61 511 q 61 524 61 518 q 110 642 61 590 q 257 722 160 693 q 496 750 354 750 q 713 727 619 750 q 860 651 807 704 q 914 510 914 599 l 914 229 q 925 191 914 207 q 958 175 936 175 l 1021 175 l 1021 11 q 957 -8 1000 1 q 863 -17 914 -17 q 753 -4 797 -17 q 683 30 708 8 q 647 78 657 51 l 636 78 q 558 28 601 50 q 460 -5 514 7 q 338 -17 406 -17 m 440 157 q 494 163 464 157 q 553 183 525 169 q 601 215 582 196 q 619 263 619 235 l 619 317 q 455 305 518 317 q 363 272 392 293 q 333 222 333 251 q 349 181 333 196 q 390 162 365 167 q 440 157 414 157 m 489 797 q 381 840 425 797 q 338 947 338 883 q 381 1055 338 1011 q 489 1099 425 1099 q 597 1055 553 1099 q 640 947 640 1011 q 597 840 640 883 q 489 797 553 797 m 489 888 q 531 905 514 888 q 547 949 547 922 q 531 990 547 974 q 489 1007 514 1007 q 448 990 465 1007 q 431 947 431 972 q 448 905 431 922 q 489 888 465 888 z "},"ǻ":{"ha":1025,"x_min":42,"x_max":1021,"o":"m 338 -17 q 219 -6 274 -17 q 126 28 165 4 q 64 94 86 53 q 42 196 42 135 q 82 332 42 281 q 198 409 122 383 q 380 444 274 435 q 619 453 486 453 l 619 478 q 603 533 619 513 q 556 564 586 554 q 488 574 526 574 q 431 569 461 574 q 378 550 400 564 q 357 511 357 536 l 357 506 l 63 506 q 61 515 61 511 q 61 524 61 518 q 110 642 61 590 q 257 722 160 693 q 496 750 354 750 q 713 727 619 750 q 860 651 807 704 q 914 510 914 599 l 914 229 q 925 191 914 207 q 958 175 936 175 l 1021 175 l 1021 11 q 957 -8 1000 1 q 863 -17 914 -17 q 753 -4 797 -17 q 683 30 708 8 q 647 78 657 51 l 636 78 q 558 28 601 50 q 460 -5 514 7 q 338 -17 406 -17 m 440 157 q 494 163 464 157 q 553 183 525 169 q 601 215 582 196 q 619 263 619 235 l 619 317 q 455 305 518 317 q 363 272 392 293 q 333 222 333 251 q 349 181 333 196 q 390 162 365 167 q 440 157 414 157 m 489 797 q 381 840 425 797 q 338 947 338 883 q 381 1055 338 1011 q 489 1099 425 1099 q 597 1055 553 1099 q 640 947 640 1011 q 597 840 640 883 q 489 797 553 797 m 489 888 q 531 905 514 888 q 547 949 547 922 q 531 990 547 974 q 489 1007 514 1007 q 448 990 465 1007 q 431 947 431 972 q 448 905 431 922 q 489 888 465 888 m 331 1143 l 475 1328 l 783 1328 l 785 1322 l 550 1143 l 331 1143 z "},"ã":{"ha":1025,"x_min":42,"x_max":1021,"o":"m 338 -17 q 219 -6 274 -17 q 126 28 165 4 q 64 94 86 53 q 42 196 42 135 q 82 332 42 281 q 198 409 122 383 q 380 444 274 435 q 619 453 486 453 l 619 478 q 603 533 619 513 q 556 564 586 554 q 488 574 526 574 q 431 569 461 574 q 378 550 400 564 q 357 511 357 536 l 357 506 l 63 506 q 61 515 61 511 q 61 524 61 518 q 110 642 61 590 q 257 722 160 693 q 496 750 354 750 q 713 727 619 750 q 860 651 807 704 q 914 510 914 599 l 914 229 q 925 191 914 207 q 958 175 936 175 l 1021 175 l 1021 11 q 957 -8 1000 1 q 863 -17 914 -17 q 753 -4 797 -17 q 683 30 708 8 q 647 78 657 51 l 636 78 q 558 28 601 50 q 460 -5 514 7 q 338 -17 406 -17 m 440 157 q 494 163 464 157 q 553 183 525 169 q 601 215 582 196 q 619 263 619 235 l 619 317 q 455 305 518 317 q 363 272 392 293 q 333 222 333 251 q 349 181 333 196 q 390 162 365 167 q 440 157 414 157 m 147 803 q 174 897 147 850 q 251 975 201 944 q 365 1006 300 1006 q 461 992 415 1006 q 550 963 507 978 q 635 949 593 949 q 684 965 664 949 q 711 1006 704 981 l 831 1006 q 803 912 831 958 q 728 834 776 865 q 614 803 679 803 q 517 817 564 803 q 428 847 471 832 q 344 861 385 861 q 295 844 315 861 q 267 803 275 828 l 147 803 z "},"æ":{"ha":1582,"x_min":42,"x_max":1532,"o":"m 393 -17 q 251 -6 315 -17 q 140 28 186 4 q 67 92 93 51 q 42 196 42 133 q 82 332 42 281 q 198 410 122 383 q 380 444 274 436 q 619 453 486 453 l 619 478 q 603 533 619 513 q 558 564 588 554 q 490 574 529 574 q 432 569 463 574 q 379 550 401 564 q 357 511 357 536 l 357 506 l 63 506 q 61 515 61 511 q 61 524 61 518 q 110 642 61 590 q 257 722 160 693 q 496 750 354 750 q 667 733 589 750 q 799 675 746 715 q 928 731 857 713 q 1082 750 1000 750 q 1323 710 1222 750 q 1478 585 1424 669 q 1532 367 1532 500 l 1532 317 l 919 317 q 940 231 921 267 q 996 178 958 196 q 1089 160 1033 160 q 1154 168 1126 160 q 1200 191 1182 176 q 1227 224 1218 206 q 1236 264 1236 243 l 1531 264 q 1499 144 1531 197 q 1410 56 1468 92 q 1273 2 1353 21 q 1097 -17 1193 -17 q 897 8 986 -17 q 746 82 807 32 q 651 32 704 54 q 534 -3 599 10 q 393 -17 469 -17 m 440 157 q 494 163 464 157 q 553 183 525 169 q 601 215 582 196 q 619 263 619 235 l 619 317 q 455 305 518 317 q 363 272 392 293 q 333 222 333 251 q 349 181 333 196 q 390 162 365 167 q 440 157 414 157 m 921 453 l 1225 453 q 1216 501 1225 479 q 1189 540 1207 524 q 1144 565 1171 556 q 1085 574 1118 574 q 999 558 1033 574 q 946 516 965 543 q 921 453 926 489 z "},"ǽ":{"ha":1582,"x_min":42,"x_max":1532,"o":"m 393 -17 q 251 -6 315 -17 q 140 28 186 4 q 67 92 93 51 q 42 196 42 133 q 82 332 42 281 q 198 410 122 383 q 380 444 274 436 q 619 453 486 453 l 619 478 q 603 533 619 513 q 558 564 588 554 q 490 574 529 574 q 432 569 463 574 q 379 550 401 564 q 357 511 357 536 l 357 506 l 63 506 q 61 515 61 511 q 61 524 61 518 q 110 642 61 590 q 257 722 160 693 q 496 750 354 750 q 667 733 589 750 q 799 675 746 715 q 928 731 857 713 q 1082 750 1000 750 q 1323 710 1222 750 q 1478 585 1424 669 q 1532 367 1532 500 l 1532 317 l 919 317 q 940 231 921 267 q 996 178 958 196 q 1089 160 1033 160 q 1154 168 1126 160 q 1200 191 1182 176 q 1227 224 1218 206 q 1236 264 1236 243 l 1531 264 q 1499 144 1531 197 q 1410 56 1468 92 q 1273 2 1353 21 q 1097 -17 1193 -17 q 897 8 986 -17 q 746 82 807 32 q 651 32 704 54 q 534 -3 599 10 q 393 -17 469 -17 m 440 157 q 494 163 464 157 q 553 183 525 169 q 601 215 582 196 q 619 263 619 235 l 619 317 q 455 305 518 317 q 363 272 392 293 q 333 222 333 251 q 349 181 333 196 q 390 162 365 167 q 440 157 414 157 m 921 453 l 1225 453 q 1216 501 1225 479 q 1189 540 1207 524 q 1144 565 1171 556 q 1085 574 1118 574 q 999 558 1033 574 q 946 516 965 543 q 921 453 926 489 m 640 822 l 785 1007 l 1093 1007 l 1094 1001 l 860 822 l 640 822 z "},"b":{"ha":1015,"x_min":85,"x_max":965,"o":"m 614 -17 q 471 13 539 -17 q 356 110 403 42 l 344 110 l 324 0 l 85 0 l 85 1007 l 378 1007 l 378 660 l 389 660 q 454 712 417 692 q 533 741 492 732 q 614 750 575 750 q 797 708 718 750 q 921 582 876 667 q 965 368 965 497 q 921 152 965 238 q 797 25 876 67 q 614 -17 718 -17 m 524 194 q 608 213 575 194 q 655 266 640 232 q 669 342 669 300 l 669 392 q 655 467 669 433 q 608 520 640 500 q 524 540 575 540 q 456 527 485 540 q 410 492 428 514 q 385 442 393 471 q 376 381 376 413 l 376 353 q 391 274 376 310 q 438 216 406 238 q 524 194 471 194 z "},"c":{"ha":1025,"x_min":53,"x_max":968,"o":"m 515 -17 q 274 26 378 -17 q 111 153 169 68 q 53 367 53 239 q 111 581 53 496 q 274 709 169 667 q 515 751 378 751 q 690 733 608 751 q 835 675 772 714 q 933 577 897 636 q 968 438 968 518 l 676 438 q 656 503 676 475 q 601 544 636 531 q 515 558 565 558 q 421 538 457 558 q 368 479 385 517 q 351 393 351 442 l 351 340 q 369 255 351 292 q 424 197 386 218 q 525 175 463 175 q 612 190 575 175 q 668 234 649 206 q 688 299 688 263 l 968 299 q 933 157 968 217 q 835 59 897 97 q 691 2 774 21 q 515 -17 608 -17 z "},"ć":{"ha":1025,"x_min":53,"x_max":968,"o":"m 515 -17 q 274 26 378 -17 q 111 153 169 68 q 53 367 53 239 q 111 581 53 496 q 274 709 169 667 q 515 751 378 751 q 690 733 608 751 q 835 675 772 714 q 933 577 897 636 q 968 438 968 518 l 676 438 q 656 503 676 475 q 601 544 636 531 q 515 558 565 558 q 421 538 457 558 q 368 479 385 517 q 351 393 351 442 l 351 340 q 369 255 351 292 q 424 197 386 218 q 525 175 463 175 q 612 190 575 175 q 668 234 649 206 q 688 299 688 263 l 968 299 q 933 157 968 217 q 835 59 897 97 q 691 2 774 21 q 515 -17 608 -17 m 357 821 l 501 1006 l 810 1006 l 811 1000 l 576 821 l 357 821 z "},"č":{"ha":1025,"x_min":53,"x_max":968,"o":"m 515 -17 q 274 26 378 -17 q 111 153 169 68 q 53 367 53 239 q 111 581 53 496 q 274 709 169 667 q 515 751 378 751 q 690 733 608 751 q 835 675 772 714 q 933 577 897 636 q 968 438 968 518 l 676 438 q 656 503 676 475 q 601 544 636 531 q 515 558 565 558 q 421 538 457 558 q 368 479 385 517 q 351 393 351 442 l 351 340 q 369 255 351 292 q 424 197 386 218 q 525 175 463 175 q 612 190 575 175 q 668 234 649 206 q 688 299 688 263 l 968 299 q 933 157 968 217 q 835 59 897 97 q 691 2 774 21 q 515 -17 608 -17 m 189 1006 l 401 1006 l 560 871 l 471 871 l 631 1006 l 844 1006 l 631 813 l 403 813 l 189 1006 z "},"ç":{"ha":1025,"x_min":53,"x_max":968,"o":"m 515 -17 q 274 26 378 -17 q 111 153 169 68 q 53 367 53 239 q 111 581 53 496 q 274 709 169 667 q 515 751 378 751 q 690 733 608 751 q 835 675 772 714 q 933 577 897 636 q 968 438 968 518 l 676 438 q 656 503 676 475 q 601 544 636 531 q 515 558 565 558 q 421 538 457 558 q 368 479 385 517 q 351 393 351 442 l 351 340 q 369 255 351 292 q 424 197 386 218 q 525 175 463 175 q 612 190 575 175 q 668 234 649 206 q 688 299 688 263 l 968 299 q 933 157 968 217 q 835 59 897 97 q 691 2 774 21 q 515 -17 608 -17 m 524 -293 q 412 -287 471 -293 q 319 -271 353 -281 l 319 -192 l 485 -192 q 527 -187 511 -192 q 543 -161 543 -183 q 531 -134 543 -140 q 488 -128 519 -128 l 422 -128 l 453 54 l 596 54 l 578 -40 q 638 -56 608 -43 q 688 -96 668 -69 q 707 -165 707 -122 q 688 -229 707 -204 q 641 -268 669 -254 q 581 -287 613 -282 q 524 -293 550 -293 z "},"ĉ":{"ha":1025,"x_min":53,"x_max":968,"o":"m 515 -17 q 274 26 378 -17 q 111 153 169 68 q 53 367 53 239 q 111 581 53 496 q 274 709 169 667 q 515 751 378 751 q 690 733 608 751 q 835 675 772 714 q 933 577 897 636 q 968 438 968 518 l 676 438 q 656 503 676 475 q 601 544 636 531 q 515 558 565 558 q 421 538 457 558 q 368 479 385 517 q 351 393 351 442 l 351 340 q 369 255 351 292 q 424 197 386 218 q 525 175 463 175 q 612 190 575 175 q 668 234 649 206 q 688 299 688 263 l 968 299 q 933 157 968 217 q 835 59 897 97 q 691 2 774 21 q 515 -17 608 -17 m 189 813 l 403 1006 l 631 1006 l 844 813 l 631 813 l 471 949 l 560 949 l 401 813 l 189 813 z "},"ċ":{"ha":1025,"x_min":53,"x_max":968,"o":"m 515 -17 q 274 26 378 -17 q 111 153 169 68 q 53 367 53 239 q 111 581 53 496 q 274 709 169 667 q 515 751 378 751 q 690 733 608 751 q 835 675 772 714 q 933 577 897 636 q 968 438 968 518 l 676 438 q 656 503 676 475 q 601 544 636 531 q 515 558 565 558 q 421 538 457 558 q 368 479 385 517 q 351 393 351 442 l 351 340 q 369 255 351 292 q 424 197 386 218 q 525 175 463 175 q 612 190 575 175 q 668 234 649 206 q 688 299 688 263 l 968 299 q 933 157 968 217 q 835 59 897 97 q 691 2 774 21 q 515 -17 608 -17 m 397 806 l 397 999 l 636 999 l 636 806 l 397 806 z "},"d":{"ha":1015,"x_min":50,"x_max":932,"o":"m 401 -17 q 219 25 299 -17 q 95 152 140 67 q 50 368 50 238 q 95 582 50 497 q 219 708 140 667 q 401 750 299 750 q 483 741 442 750 q 563 712 525 732 q 626 660 601 692 l 638 660 l 638 1007 l 932 1007 l 932 0 l 693 0 l 671 110 l 660 110 q 545 13 613 42 q 401 -17 478 -17 m 493 194 q 577 216 544 194 q 625 274 610 238 q 640 353 640 310 l 640 381 q 632 442 640 413 q 606 492 624 471 q 560 527 588 514 q 493 540 532 540 q 408 520 440 540 q 361 467 376 500 q 346 392 346 433 l 346 342 q 361 266 346 300 q 408 213 376 232 q 493 194 440 194 z "},"ð":{"ha":1025,"x_min":50,"x_max":975,"o":"m 513 -17 q 269 26 374 -17 q 108 153 165 69 q 50 361 50 238 q 103 549 50 468 q 249 674 156 629 q 468 719 343 719 q 522 715 494 719 q 572 703 549 710 l 579 711 q 539 763 560 739 q 497 808 518 786 l 242 778 l 242 889 l 394 906 q 328 959 360 936 q 268 1000 296 982 l 269 1007 l 575 1007 q 603 990 588 1000 q 638 967 619 979 q 672 939 656 954 l 888 964 l 888 854 l 779 842 q 878 716 833 786 q 949 562 922 646 q 975 376 975 478 q 919 157 975 244 q 759 26 863 69 q 513 -17 656 -17 m 513 175 q 608 197 571 175 q 661 255 644 218 q 678 340 678 292 l 678 393 q 661 479 678 442 q 608 538 644 517 q 513 558 571 558 q 418 538 454 558 q 365 479 382 517 q 349 393 349 442 l 349 340 q 365 255 349 292 q 418 197 382 218 q 513 175 454 175 z "},"ď":{"ha":1015,"x_min":50,"x_max":1228,"o":"m 401 -17 q 219 25 299 -17 q 95 152 140 67 q 50 368 50 238 q 95 582 50 497 q 219 708 140 667 q 401 750 299 750 q 483 741 442 750 q 563 712 525 732 q 626 660 601 692 l 638 660 l 638 1007 l 932 1007 l 932 0 l 693 0 l 671 110 l 660 110 q 545 13 613 42 q 401 -17 478 -17 m 493 194 q 577 216 544 194 q 625 274 610 238 q 640 353 640 310 l 640 381 q 632 442 640 413 q 606 492 624 471 q 560 527 588 514 q 493 540 532 540 q 408 520 440 540 q 361 467 376 500 q 346 392 346 433 l 346 342 q 361 266 346 300 q 408 213 376 232 q 493 194 440 194 m 994 771 l 994 1007 l 1228 1007 l 1167 771 l 994 771 z "},"đ":{"ha":1015,"x_min":50,"x_max":1017,"o":"m 401 -17 q 219 25 299 -17 q 95 152 140 67 q 50 368 50 238 q 95 582 50 497 q 219 708 140 667 q 401 750 299 750 q 483 741 442 750 q 563 712 525 732 q 626 660 601 692 l 638 660 l 638 1007 l 932 1007 l 932 0 l 693 0 l 671 110 l 660 110 q 545 13 613 42 q 401 -17 478 -17 m 493 194 q 577 216 544 194 q 625 274 610 238 q 640 353 640 310 l 640 381 q 632 442 640 413 q 606 492 624 471 q 560 527 588 514 q 493 540 532 540 q 408 520 440 540 q 361 467 376 500 q 346 392 346 433 l 346 342 q 361 266 346 300 q 408 213 376 232 q 493 194 440 194 m 338 785 l 338 938 l 1017 938 l 1017 785 l 338 785 z "},"ǆ":{"ha":1878,"x_min":50,"x_max":1846,"o":"m 401 -17 q 219 25 299 -17 q 95 152 140 67 q 50 368 50 238 q 95 582 50 497 q 219 708 140 667 q 401 750 299 750 q 483 741 442 750 q 563 712 525 732 q 626 660 601 692 l 638 660 l 638 1007 l 932 1007 l 932 0 l 693 0 l 671 110 l 660 110 q 545 13 613 42 q 401 -17 478 -17 m 493 194 q 577 216 544 194 q 625 274 610 238 q 640 353 640 310 l 640 381 q 632 442 640 413 q 606 492 624 471 q 560 527 588 514 q 493 540 532 540 q 408 520 440 540 q 361 467 376 500 q 346 392 346 433 l 346 342 q 361 266 346 300 q 408 213 376 232 q 493 194 440 194 m 1047 0 l 1047 90 l 1397 542 l 1065 542 l 1065 733 l 1832 733 l 1832 647 l 1478 192 l 1846 192 l 1846 0 l 1047 0 m 1119 1007 l 1333 1007 l 1492 872 l 1403 872 l 1563 1007 l 1775 1007 l 1561 814 l 1333 814 l 1119 1007 z "},"e":{"ha":1026,"x_min":50,"x_max":976,"o":"m 528 -17 q 276 24 383 -17 q 109 150 168 65 q 50 367 50 235 q 108 581 50 496 q 271 708 167 667 q 513 750 375 750 q 762 710 658 750 q 921 585 865 669 q 976 367 976 500 l 976 317 l 351 317 q 372 231 353 267 q 429 178 390 196 q 526 160 468 160 q 596 168 567 160 q 644 191 625 176 q 672 224 663 206 q 681 264 681 243 l 976 264 q 944 144 976 197 q 852 56 911 92 q 710 2 793 21 q 528 -17 628 -17 m 353 453 l 671 453 q 661 501 671 479 q 633 540 651 524 q 587 565 614 556 q 525 574 560 574 q 436 558 472 574 q 379 516 400 543 q 353 453 358 489 z "},"é":{"ha":1026,"x_min":50,"x_max":976,"o":"m 528 -17 q 276 24 383 -17 q 109 150 168 65 q 50 367 50 235 q 108 581 50 496 q 271 708 167 667 q 513 750 375 750 q 762 710 658 750 q 921 585 865 669 q 976 367 976 500 l 976 317 l 351 317 q 372 231 353 267 q 429 178 390 196 q 526 160 468 160 q 596 168 567 160 q 644 191 625 176 q 672 224 663 206 q 681 264 681 243 l 976 264 q 944 144 976 197 q 852 56 911 92 q 710 2 793 21 q 528 -17 628 -17 m 353 453 l 671 453 q 661 501 671 479 q 633 540 651 524 q 587 565 614 556 q 525 574 560 574 q 436 558 472 574 q 379 516 400 543 q 353 453 358 489 m 354 822 l 499 1007 l 807 1007 l 808 1001 l 574 822 l 354 822 z "},"ĕ":{"ha":1026,"x_min":50,"x_max":976,"o":"m 528 -17 q 276 24 383 -17 q 109 150 168 65 q 50 367 50 235 q 108 581 50 496 q 271 708 167 667 q 513 750 375 750 q 762 710 658 750 q 921 585 865 669 q 976 367 976 500 l 976 317 l 351 317 q 372 231 353 267 q 429 178 390 196 q 526 160 468 160 q 596 168 567 160 q 644 191 625 176 q 672 224 663 206 q 681 264 681 243 l 976 264 q 944 144 976 197 q 852 56 911 92 q 710 2 793 21 q 528 -17 628 -17 m 353 453 l 671 453 q 661 501 671 479 q 633 540 651 524 q 587 565 614 556 q 525 574 560 574 q 436 558 472 574 q 379 516 400 543 q 353 453 358 489 m 513 804 q 358 835 422 804 q 259 914 293 867 q 225 1007 225 961 l 375 1007 q 401 972 379 988 q 453 947 424 956 q 513 938 483 938 q 582 949 551 938 q 631 976 613 960 q 653 1007 650 993 l 801 1007 q 766 914 801 961 q 666 835 731 867 q 513 804 601 804 z "},"ě":{"ha":1026,"x_min":50,"x_max":976,"o":"m 528 -17 q 276 24 383 -17 q 109 150 168 65 q 50 367 50 235 q 108 581 50 496 q 271 708 167 667 q 513 750 375 750 q 762 710 658 750 q 921 585 865 669 q 976 367 976 500 l 976 317 l 351 317 q 372 231 353 267 q 429 178 390 196 q 526 160 468 160 q 596 168 567 160 q 644 191 625 176 q 672 224 663 206 q 681 264 681 243 l 976 264 q 944 144 976 197 q 852 56 911 92 q 710 2 793 21 q 528 -17 628 -17 m 353 453 l 671 453 q 661 501 671 479 q 633 540 651 524 q 587 565 614 556 q 525 574 560 574 q 436 558 472 574 q 379 516 400 543 q 353 453 358 489 m 186 1007 l 399 1007 l 557 872 l 468 872 l 628 1007 l 842 1007 l 628 814 l 400 814 l 186 1007 z "},"ê":{"ha":1026,"x_min":50,"x_max":976,"o":"m 528 -17 q 276 24 383 -17 q 109 150 168 65 q 50 367 50 235 q 108 581 50 496 q 271 708 167 667 q 513 750 375 750 q 762 710 658 750 q 921 585 865 669 q 976 367 976 500 l 976 317 l 351 317 q 372 231 353 267 q 429 178 390 196 q 526 160 468 160 q 596 168 567 160 q 644 191 625 176 q 672 224 663 206 q 681 264 681 243 l 976 264 q 944 144 976 197 q 852 56 911 92 q 710 2 793 21 q 528 -17 628 -17 m 353 453 l 671 453 q 661 501 671 479 q 633 540 651 524 q 587 565 614 556 q 525 574 560 574 q 436 558 472 574 q 379 516 400 543 q 353 453 358 489 m 186 814 l 400 1007 l 628 1007 l 842 814 l 628 814 l 468 950 l 557 950 l 399 814 l 186 814 z "},"ế":{"ha":1026,"x_min":50,"x_max":976,"o":"m 528 -17 q 276 24 383 -17 q 109 150 168 65 q 50 367 50 235 q 108 581 50 496 q 271 708 167 667 q 513 750 375 750 q 762 710 658 750 q 921 585 865 669 q 976 367 976 500 l 976 317 l 351 317 q 372 231 353 267 q 429 178 390 196 q 526 160 468 160 q 596 168 567 160 q 644 191 625 176 q 672 224 663 206 q 681 264 681 243 l 976 264 q 944 144 976 197 q 852 56 911 92 q 710 2 793 21 q 528 -17 628 -17 m 353 453 l 671 453 q 661 501 671 479 q 633 540 651 524 q 587 565 614 556 q 525 574 560 574 q 436 558 472 574 q 379 516 400 543 q 353 453 358 489 m 186 814 l 400 1007 l 628 1007 l 842 814 l 628 814 l 468 950 l 557 950 l 399 814 l 186 814 m 354 1075 l 499 1260 l 807 1260 l 808 1254 l 574 1075 l 354 1075 z "},"ệ":{"ha":1026,"x_min":50,"x_max":976,"o":"m 528 -17 q 276 24 383 -17 q 109 150 168 65 q 50 367 50 235 q 108 581 50 496 q 271 708 167 667 q 513 750 375 750 q 762 710 658 750 q 921 585 865 669 q 976 367 976 500 l 976 317 l 351 317 q 372 231 353 267 q 429 178 390 196 q 526 160 468 160 q 596 168 567 160 q 644 191 625 176 q 672 224 663 206 q 681 264 681 243 l 976 264 q 944 144 976 197 q 852 56 911 92 q 710 2 793 21 q 528 -17 628 -17 m 353 453 l 671 453 q 661 501 671 479 q 633 540 651 524 q 587 565 614 556 q 525 574 560 574 q 436 558 472 574 q 379 516 400 543 q 353 453 358 489 m 396 -276 l 396 -83 l 635 -83 l 635 -276 l 396 -276 m 186 814 l 400 1007 l 628 1007 l 842 814 l 628 814 l 468 950 l 557 950 l 399 814 l 186 814 z "},"ề":{"ha":1026,"x_min":50,"x_max":976,"o":"m 528 -17 q 276 24 383 -17 q 109 150 168 65 q 50 367 50 235 q 108 581 50 496 q 271 708 167 667 q 513 750 375 750 q 762 710 658 750 q 921 585 865 669 q 976 367 976 500 l 976 317 l 351 317 q 372 231 353 267 q 429 178 390 196 q 526 160 468 160 q 596 168 567 160 q 644 191 625 176 q 672 224 663 206 q 681 264 681 243 l 976 264 q 944 144 976 197 q 852 56 911 92 q 710 2 793 21 q 528 -17 628 -17 m 353 453 l 671 453 q 661 501 671 479 q 633 540 651 524 q 587 565 614 556 q 525 574 560 574 q 436 558 472 574 q 379 516 400 543 q 353 453 358 489 m 186 814 l 400 1007 l 628 1007 l 842 814 l 628 814 l 468 950 l 557 950 l 399 814 l 186 814 m 678 1075 l 458 1075 l 224 1254 l 225 1260 l 533 1260 l 678 1075 z "},"ể":{"ha":1026,"x_min":50,"x_max":976,"o":"m 528 -17 q 276 24 383 -17 q 109 150 168 65 q 50 367 50 235 q 108 581 50 496 q 271 708 167 667 q 513 750 375 750 q 762 710 658 750 q 921 585 865 669 q 976 367 976 500 l 976 317 l 351 317 q 372 231 353 267 q 429 178 390 196 q 526 160 468 160 q 596 168 567 160 q 644 191 625 176 q 672 224 663 206 q 681 264 681 243 l 976 264 q 944 144 976 197 q 852 56 911 92 q 710 2 793 21 q 528 -17 628 -17 m 353 453 l 671 453 q 661 501 671 479 q 633 540 651 524 q 587 565 614 556 q 525 574 560 574 q 436 558 472 574 q 379 516 400 543 q 353 453 358 489 m 186 814 l 400 1007 l 628 1007 l 842 814 l 628 814 l 468 950 l 557 950 l 399 814 l 186 814 m 449 1074 l 449 1150 l 460 1150 q 496 1154 488 1150 q 504 1172 504 1158 q 491 1192 504 1188 q 451 1197 478 1197 l 367 1197 l 367 1269 q 412 1276 385 1274 q 467 1281 439 1279 q 513 1282 494 1282 q 572 1277 538 1282 q 638 1261 606 1272 q 690 1232 669 1250 q 711 1186 711 1214 q 691 1143 711 1160 q 640 1119 671 1126 q 575 1108 610 1111 l 575 1074 l 449 1074 z "},"ễ":{"ha":1026,"x_min":50,"x_max":976,"o":"m 528 -17 q 276 24 383 -17 q 109 150 168 65 q 50 367 50 235 q 108 581 50 496 q 271 708 167 667 q 513 750 375 750 q 762 710 658 750 q 921 585 865 669 q 976 367 976 500 l 976 317 l 351 317 q 372 231 353 267 q 429 178 390 196 q 526 160 468 160 q 596 168 567 160 q 644 191 625 176 q 672 224 663 206 q 681 264 681 243 l 976 264 q 944 144 976 197 q 852 56 911 92 q 710 2 793 21 q 528 -17 628 -17 m 353 453 l 671 453 q 661 501 671 479 q 633 540 651 524 q 587 565 614 556 q 525 574 560 574 q 436 558 472 574 q 379 516 400 543 q 353 453 358 489 m 186 814 l 400 1007 l 628 1007 l 842 814 l 628 814 l 468 950 l 557 950 l 399 814 l 186 814 m 171 1057 q 198 1151 171 1104 q 274 1229 225 1199 q 389 1260 324 1260 q 485 1246 439 1260 q 574 1217 531 1232 q 658 1203 617 1203 q 708 1219 688 1203 q 735 1260 728 1235 l 854 1260 q 827 1166 854 1213 q 751 1088 800 1119 q 638 1057 703 1057 q 541 1072 588 1057 q 451 1101 494 1086 q 368 1115 408 1115 q 319 1099 339 1115 q 290 1057 299 1082 l 171 1057 z "},"ȅ":{"ha":1026,"x_min":50,"x_max":976,"o":"m 528 -17 q 276 24 383 -17 q 109 150 168 65 q 50 367 50 235 q 108 581 50 496 q 271 708 167 667 q 513 750 375 750 q 762 710 658 750 q 921 585 865 669 q 976 367 976 500 l 976 317 l 351 317 q 372 231 353 267 q 429 178 390 196 q 526 160 468 160 q 596 168 567 160 q 644 191 625 176 q 672 224 663 206 q 681 264 681 243 l 976 264 q 944 144 976 197 q 852 56 911 92 q 710 2 793 21 q 528 -17 628 -17 m 353 453 l 671 453 q 661 501 671 479 q 633 540 651 524 q 587 565 614 556 q 525 574 560 574 q 436 558 472 574 q 379 516 400 543 q 353 453 358 489 m 604 822 l 388 1000 l 389 1008 l 668 1008 l 786 822 l 604 822 m 274 822 l 58 1000 l 60 1008 l 338 1008 l 457 822 l 274 822 z "},"ë":{"ha":1026,"x_min":50,"x_max":976,"o":"m 528 -17 q 276 24 383 -17 q 109 150 168 65 q 50 367 50 235 q 108 581 50 496 q 271 708 167 667 q 513 750 375 750 q 762 710 658 750 q 921 585 865 669 q 976 367 976 500 l 976 317 l 351 317 q 372 231 353 267 q 429 178 390 196 q 526 160 468 160 q 596 168 567 160 q 644 191 625 176 q 672 224 663 206 q 681 264 681 243 l 976 264 q 944 144 976 197 q 852 56 911 92 q 710 2 793 21 q 528 -17 628 -17 m 353 453 l 671 453 q 661 501 671 479 q 633 540 651 524 q 587 565 614 556 q 525 574 560 574 q 436 558 472 574 q 379 516 400 543 q 353 453 358 489 m 222 807 l 222 1007 l 460 1007 l 460 807 l 222 807 m 565 807 l 565 1007 l 804 1007 l 804 807 l 565 807 z "},"ė":{"ha":1026,"x_min":50,"x_max":976,"o":"m 528 -17 q 276 24 383 -17 q 109 150 168 65 q 50 367 50 235 q 108 581 50 496 q 271 708 167 667 q 513 750 375 750 q 762 710 658 750 q 921 585 865 669 q 976 367 976 500 l 976 317 l 351 317 q 372 231 353 267 q 429 178 390 196 q 526 160 468 160 q 596 168 567 160 q 644 191 625 176 q 672 224 663 206 q 681 264 681 243 l 976 264 q 944 144 976 197 q 852 56 911 92 q 710 2 793 21 q 528 -17 628 -17 m 353 453 l 671 453 q 661 501 671 479 q 633 540 651 524 q 587 565 614 556 q 525 574 560 574 q 436 558 472 574 q 379 516 400 543 q 353 453 358 489 m 394 807 l 394 1000 l 633 1000 l 633 807 l 394 807 z "},"ẹ":{"ha":1026,"x_min":50,"x_max":976,"o":"m 528 -17 q 276 24 383 -17 q 109 150 168 65 q 50 367 50 235 q 108 581 50 496 q 271 708 167 667 q 513 750 375 750 q 762 710 658 750 q 921 585 865 669 q 976 367 976 500 l 976 317 l 351 317 q 372 231 353 267 q 429 178 390 196 q 526 160 468 160 q 596 168 567 160 q 644 191 625 176 q 672 224 663 206 q 681 264 681 243 l 976 264 q 944 144 976 197 q 852 56 911 92 q 710 2 793 21 q 528 -17 628 -17 m 353 453 l 671 453 q 661 501 671 479 q 633 540 651 524 q 587 565 614 556 q 525 574 560 574 q 436 558 472 574 q 379 516 400 543 q 353 453 358 489 m 396 -276 l 396 -83 l 635 -83 l 635 -276 l 396 -276 z "},"è":{"ha":1026,"x_min":50,"x_max":976,"o":"m 528 -17 q 276 24 383 -17 q 109 150 168 65 q 50 367 50 235 q 108 581 50 496 q 271 708 167 667 q 513 750 375 750 q 762 710 658 750 q 921 585 865 669 q 976 367 976 500 l 976 317 l 351 317 q 372 231 353 267 q 429 178 390 196 q 526 160 468 160 q 596 168 567 160 q 644 191 625 176 q 672 224 663 206 q 681 264 681 243 l 976 264 q 944 144 976 197 q 852 56 911 92 q 710 2 793 21 q 528 -17 628 -17 m 353 453 l 671 453 q 661 501 671 479 q 633 540 651 524 q 587 565 614 556 q 525 574 560 574 q 436 558 472 574 q 379 516 400 543 q 353 453 358 489 m 678 822 l 458 822 l 224 1001 l 225 1007 l 533 1007 l 678 822 z "},"ẻ":{"ha":1026,"x_min":50,"x_max":976,"o":"m 528 -17 q 276 24 383 -17 q 109 150 168 65 q 50 367 50 235 q 108 581 50 496 q 271 708 167 667 q 513 750 375 750 q 762 710 658 750 q 921 585 865 669 q 976 367 976 500 l 976 317 l 351 317 q 372 231 353 267 q 429 178 390 196 q 526 160 468 160 q 596 168 567 160 q 644 191 625 176 q 672 224 663 206 q 681 264 681 243 l 976 264 q 944 144 976 197 q 852 56 911 92 q 710 2 793 21 q 528 -17 628 -17 m 353 453 l 671 453 q 661 501 671 479 q 633 540 651 524 q 587 565 614 556 q 525 574 560 574 q 436 558 472 574 q 379 516 400 543 q 353 453 358 489 m 449 821 l 449 897 l 460 897 q 496 901 488 897 q 504 919 504 906 q 491 940 504 935 q 451 944 478 944 l 367 944 l 367 1017 q 412 1024 385 1021 q 467 1028 439 1026 q 513 1029 494 1029 q 572 1024 538 1029 q 638 1008 606 1019 q 690 979 669 997 q 711 933 711 961 q 691 890 711 907 q 640 866 671 874 q 575 856 610 858 l 575 821 l 449 821 z "},"ȇ":{"ha":1026,"x_min":50,"x_max":976,"o":"m 528 -17 q 276 24 383 -17 q 109 150 168 65 q 50 367 50 235 q 108 581 50 496 q 271 708 167 667 q 513 750 375 750 q 762 710 658 750 q 921 585 865 669 q 976 367 976 500 l 976 317 l 351 317 q 372 231 353 267 q 429 178 390 196 q 526 160 468 160 q 596 168 567 160 q 644 191 625 176 q 672 224 663 206 q 681 264 681 243 l 976 264 q 944 144 976 197 q 852 56 911 92 q 710 2 793 21 q 528 -17 628 -17 m 353 453 l 671 453 q 661 501 671 479 q 633 540 651 524 q 587 565 614 556 q 525 574 560 574 q 436 558 472 574 q 379 516 400 543 q 353 453 358 489 m 511 1007 q 665 976 600 1007 q 765 899 731 946 q 800 804 800 853 l 651 804 q 630 835 649 819 q 581 863 611 851 q 511 874 550 874 q 453 865 483 874 q 401 840 422 856 q 374 804 379 825 l 224 804 q 258 899 224 853 q 358 976 293 946 q 511 1007 422 1007 z "},"ē":{"ha":1026,"x_min":50,"x_max":976,"o":"m 528 -17 q 276 24 383 -17 q 109 150 168 65 q 50 367 50 235 q 108 581 50 496 q 271 708 167 667 q 513 750 375 750 q 762 710 658 750 q 921 585 865 669 q 976 367 976 500 l 976 317 l 351 317 q 372 231 353 267 q 429 178 390 196 q 526 160 468 160 q 596 168 567 160 q 644 191 625 176 q 672 224 663 206 q 681 264 681 243 l 976 264 q 944 144 976 197 q 852 56 911 92 q 710 2 793 21 q 528 -17 628 -17 m 353 453 l 671 453 q 661 501 671 479 q 633 540 651 524 q 587 565 614 556 q 525 574 560 574 q 436 558 472 574 q 379 516 400 543 q 353 453 358 489 m 265 833 l 265 972 l 760 972 l 760 833 l 265 833 z "},"ę":{"ha":1026,"x_min":50,"x_max":976,"o":"m 528 -17 q 276 24 383 -17 q 109 150 168 65 q 50 367 50 235 q 108 581 50 496 q 271 708 167 667 q 513 750 375 750 q 762 710 658 750 q 921 585 865 669 q 976 367 976 500 l 976 317 l 351 317 q 372 231 353 267 q 429 178 390 196 q 526 160 468 160 q 596 168 567 160 q 644 191 625 176 q 672 224 663 206 q 681 264 681 243 l 976 264 q 944 144 976 197 q 852 56 911 92 q 710 2 793 21 q 528 -17 628 -17 m 353 453 l 671 453 q 661 501 671 479 q 633 540 651 524 q 587 565 614 556 q 525 574 560 574 q 436 558 472 574 q 379 516 400 543 q 353 453 358 489 m 703 -293 q 612 -277 656 -293 q 540 -226 568 -261 q 513 -135 513 -192 q 537 -47 513 -83 q 586 17 561 -11 l 747 17 l 747 11 q 709 -33 722 -6 q 696 -86 696 -60 q 715 -140 696 -115 q 772 -164 733 -164 l 871 -164 l 871 -272 q 788 -287 835 -282 q 703 -293 742 -293 z "},"ẽ":{"ha":1026,"x_min":50,"x_max":976,"o":"m 528 -17 q 276 24 383 -17 q 109 150 168 65 q 50 367 50 235 q 108 581 50 496 q 271 708 167 667 q 513 750 375 750 q 762 710 658 750 q 921 585 865 669 q 976 367 976 500 l 976 317 l 351 317 q 372 231 353 267 q 429 178 390 196 q 526 160 468 160 q 596 168 567 160 q 644 191 625 176 q 672 224 663 206 q 681 264 681 243 l 976 264 q 944 144 976 197 q 852 56 911 92 q 710 2 793 21 q 528 -17 628 -17 m 353 453 l 671 453 q 661 501 671 479 q 633 540 651 524 q 587 565 614 556 q 525 574 560 574 q 436 558 472 574 q 379 516 400 543 q 353 453 358 489 m 171 804 q 198 899 171 851 q 274 976 225 946 q 389 1007 324 1007 q 485 993 439 1007 q 574 965 531 979 q 658 950 617 950 q 708 966 688 950 q 735 1007 728 982 l 854 1007 q 827 913 854 960 q 751 835 800 867 q 638 804 703 804 q 541 819 588 804 q 451 848 494 833 q 368 863 408 863 q 319 846 339 863 q 290 804 299 829 l 171 804 z "},"ə":{"ha":1026,"x_min":50,"x_max":976,"o":"m 514 -17 q 265 24 369 -17 q 106 150 161 65 q 50 367 50 235 l 50 417 l 676 417 q 656 504 675 469 q 598 556 636 539 q 500 574 560 574 q 432 565 461 574 q 383 542 403 557 q 355 509 364 528 q 346 469 346 490 l 51 469 q 83 590 51 538 q 175 678 115 642 q 317 732 235 714 q 499 750 399 750 q 751 710 644 750 q 917 585 858 669 q 976 367 976 500 q 919 153 976 239 q 757 26 861 68 q 514 -17 653 -17 m 501 160 q 592 176 556 160 q 649 219 629 192 q 675 281 669 246 l 357 281 q 367 233 357 254 q 395 194 376 211 q 441 169 414 178 q 501 160 468 160 z "},"f":{"ha":636,"x_min":11,"x_max":621,"o":"m 143 0 l 143 542 l 11 542 l 11 733 l 143 733 l 143 758 q 181 916 143 858 q 284 999 218 974 q 435 1024 350 1024 q 495 1020 461 1024 q 563 1011 529 1017 q 621 999 597 1006 l 621 832 l 544 832 q 459 815 482 832 q 436 758 436 799 l 436 733 l 621 733 l 621 542 l 436 542 l 436 0 l 143 0 z "},"g":{"ha":1017,"x_min":7,"x_max":1021,"o":"m 192 -292 q 99 -269 142 -292 q 32 -206 57 -246 q 7 -115 7 -165 q 44 -13 7 -57 q 138 51 82 31 q 77 108 97 75 q 57 181 57 142 q 100 285 57 242 q 208 340 143 329 q 119 417 156 371 q 82 517 82 463 q 138 660 82 610 q 290 731 194 711 q 506 750 386 750 q 581 748 547 750 q 644 740 615 746 q 738 815 713 778 q 764 871 764 851 l 1021 871 q 998 772 1021 811 q 933 710 975 733 q 831 672 890 686 q 901 601 876 642 q 926 514 926 561 q 879 376 926 428 q 753 301 832 325 q 579 278 675 278 l 438 278 q 370 267 390 278 q 350 238 350 256 q 367 207 350 219 q 438 194 385 194 l 772 194 q 960 128 900 194 q 1019 -40 1019 63 q 976 -174 1019 -118 q 863 -261 933 -231 q 711 -292 793 -292 l 192 -292 m 368 -137 l 651 -137 q 689 -129 672 -137 q 715 -105 706 -121 q 725 -68 725 -89 q 703 -18 725 -36 q 651 0 682 0 l 368 0 q 317 -17 338 0 q 296 -67 296 -35 q 317 -118 296 -99 q 368 -137 338 -137 m 504 425 q 602 447 568 425 q 636 514 636 468 q 602 581 636 560 q 504 603 568 603 q 409 581 444 603 q 374 514 374 560 q 389 465 374 485 q 433 435 404 444 q 504 425 463 425 z "},"ğ":{"ha":1017,"x_min":7,"x_max":1021,"o":"m 192 -292 q 99 -269 142 -292 q 32 -206 57 -246 q 7 -115 7 -165 q 44 -13 7 -57 q 138 51 82 31 q 77 108 97 75 q 57 181 57 142 q 100 285 57 242 q 208 340 143 329 q 119 417 156 371 q 82 517 82 463 q 138 660 82 610 q 290 731 194 711 q 506 750 386 750 q 581 748 547 750 q 644 740 615 746 q 738 815 713 778 q 764 871 764 851 l 1021 871 q 998 772 1021 811 q 933 710 975 733 q 831 672 890 686 q 901 601 876 642 q 926 514 926 561 q 879 376 926 428 q 753 301 832 325 q 579 278 675 278 l 438 278 q 370 267 390 278 q 350 238 350 256 q 367 207 350 219 q 438 194 385 194 l 772 194 q 960 128 900 194 q 1019 -40 1019 63 q 976 -174 1019 -118 q 863 -261 933 -231 q 711 -292 793 -292 l 192 -292 m 368 -137 l 651 -137 q 689 -129 672 -137 q 715 -105 706 -121 q 725 -68 725 -89 q 703 -18 725 -36 q 651 0 682 0 l 368 0 q 317 -17 338 0 q 296 -67 296 -35 q 317 -118 296 -99 q 368 -137 338 -137 m 504 425 q 602 447 568 425 q 636 514 636 468 q 602 581 636 560 q 504 603 568 603 q 409 581 444 603 q 374 514 374 560 q 389 465 374 485 q 433 435 404 444 q 504 425 463 425 m 506 804 q 352 835 417 804 q 253 914 288 867 q 218 1007 218 961 l 368 1007 q 395 972 374 988 q 447 947 417 956 q 506 938 478 938 q 575 949 544 938 q 624 976 606 960 q 646 1007 643 993 l 794 1007 q 760 914 794 961 q 660 835 725 867 q 506 804 594 804 z "},"ǧ":{"ha":1017,"x_min":7,"x_max":1021,"o":"m 192 -292 q 99 -269 142 -292 q 32 -206 57 -246 q 7 -115 7 -165 q 44 -13 7 -57 q 138 51 82 31 q 77 108 97 75 q 57 181 57 142 q 100 285 57 242 q 208 340 143 329 q 119 417 156 371 q 82 517 82 463 q 138 660 82 610 q 290 731 194 711 q 506 750 386 750 q 581 748 547 750 q 644 740 615 746 q 738 815 713 778 q 764 871 764 851 l 1021 871 q 998 772 1021 811 q 933 710 975 733 q 831 672 890 686 q 901 601 876 642 q 926 514 926 561 q 879 376 926 428 q 753 301 832 325 q 579 278 675 278 l 438 278 q 370 267 390 278 q 350 238 350 256 q 367 207 350 219 q 438 194 385 194 l 772 194 q 960 128 900 194 q 1019 -40 1019 63 q 976 -174 1019 -118 q 863 -261 933 -231 q 711 -292 793 -292 l 192 -292 m 368 -137 l 651 -137 q 689 -129 672 -137 q 715 -105 706 -121 q 725 -68 725 -89 q 703 -18 725 -36 q 651 0 682 0 l 368 0 q 317 -17 338 0 q 296 -67 296 -35 q 317 -118 296 -99 q 368 -137 338 -137 m 504 425 q 602 447 568 425 q 636 514 636 468 q 602 581 636 560 q 504 603 568 603 q 409 581 444 603 q 374 514 374 560 q 389 465 374 485 q 433 435 404 444 q 504 425 463 425 m 179 1007 l 393 1007 l 551 872 l 463 872 l 622 1007 l 835 1007 l 621 814 l 393 814 l 179 1007 z "},"ĝ":{"ha":1017,"x_min":7,"x_max":1021,"o":"m 192 -292 q 99 -269 142 -292 q 32 -206 57 -246 q 7 -115 7 -165 q 44 -13 7 -57 q 138 51 82 31 q 77 108 97 75 q 57 181 57 142 q 100 285 57 242 q 208 340 143 329 q 119 417 156 371 q 82 517 82 463 q 138 660 82 610 q 290 731 194 711 q 506 750 386 750 q 581 748 547 750 q 644 740 615 746 q 738 815 713 778 q 764 871 764 851 l 1021 871 q 998 772 1021 811 q 933 710 975 733 q 831 672 890 686 q 901 601 876 642 q 926 514 926 561 q 879 376 926 428 q 753 301 832 325 q 579 278 675 278 l 438 278 q 370 267 390 278 q 350 238 350 256 q 367 207 350 219 q 438 194 385 194 l 772 194 q 960 128 900 194 q 1019 -40 1019 63 q 976 -174 1019 -118 q 863 -261 933 -231 q 711 -292 793 -292 l 192 -292 m 368 -137 l 651 -137 q 689 -129 672 -137 q 715 -105 706 -121 q 725 -68 725 -89 q 703 -18 725 -36 q 651 0 682 0 l 368 0 q 317 -17 338 0 q 296 -67 296 -35 q 317 -118 296 -99 q 368 -137 338 -137 m 504 425 q 602 447 568 425 q 636 514 636 468 q 602 581 636 560 q 504 603 568 603 q 409 581 444 603 q 374 514 374 560 q 389 465 374 485 q 433 435 404 444 q 504 425 463 425 m 179 814 l 393 1007 l 621 1007 l 835 814 l 622 814 l 463 950 l 551 950 l 393 814 l 179 814 z "},"ģ":{"ha":1017,"x_min":7,"x_max":1021,"o":"m 192 -292 q 99 -269 142 -292 q 32 -206 57 -246 q 7 -115 7 -165 q 44 -13 7 -57 q 138 51 82 31 q 77 108 97 75 q 57 181 57 142 q 100 285 57 242 q 208 340 143 329 q 119 417 156 371 q 82 517 82 463 q 138 660 82 610 q 290 731 194 711 q 506 750 386 750 q 581 748 547 750 q 644 740 615 746 q 738 815 713 778 q 764 871 764 851 l 1021 871 q 998 772 1021 811 q 933 710 975 733 q 831 672 890 686 q 901 601 876 642 q 926 514 926 561 q 879 376 926 428 q 753 301 832 325 q 579 278 675 278 l 438 278 q 370 267 390 278 q 350 238 350 256 q 367 207 350 219 q 438 194 385 194 l 772 194 q 960 128 900 194 q 1019 -40 1019 63 q 976 -174 1019 -118 q 863 -261 933 -231 q 711 -292 793 -292 l 192 -292 m 368 -137 l 651 -137 q 689 -129 672 -137 q 715 -105 706 -121 q 725 -68 725 -89 q 703 -18 725 -36 q 651 0 682 0 l 368 0 q 317 -17 338 0 q 296 -67 296 -35 q 317 -118 296 -99 q 368 -137 338 -137 m 504 425 q 602 447 568 425 q 636 514 636 468 q 602 581 636 560 q 504 603 568 603 q 409 581 444 603 q 374 514 374 560 q 389 465 374 485 q 433 435 404 444 q 504 425 463 425 m 628 1217 l 628 1119 q 540 1092 569 1118 q 511 1015 511 1065 l 628 1015 l 628 811 l 385 811 l 385 983 q 410 1112 385 1061 q 490 1188 436 1163 q 628 1217 544 1214 z "},"ġ":{"ha":1017,"x_min":7,"x_max":1021,"o":"m 192 -292 q 99 -269 142 -292 q 32 -206 57 -246 q 7 -115 7 -165 q 44 -13 7 -57 q 138 51 82 31 q 77 108 97 75 q 57 181 57 142 q 100 285 57 242 q 208 340 143 329 q 119 417 156 371 q 82 517 82 463 q 138 660 82 610 q 290 731 194 711 q 506 750 386 750 q 581 748 547 750 q 644 740 615 746 q 738 815 713 778 q 764 871 764 851 l 1021 871 q 998 772 1021 811 q 933 710 975 733 q 831 672 890 686 q 901 601 876 642 q 926 514 926 561 q 879 376 926 428 q 753 301 832 325 q 579 278 675 278 l 438 278 q 370 267 390 278 q 350 238 350 256 q 367 207 350 219 q 438 194 385 194 l 772 194 q 960 128 900 194 q 1019 -40 1019 63 q 976 -174 1019 -118 q 863 -261 933 -231 q 711 -292 793 -292 l 192 -292 m 368 -137 l 651 -137 q 689 -129 672 -137 q 715 -105 706 -121 q 725 -68 725 -89 q 703 -18 725 -36 q 651 0 682 0 l 368 0 q 317 -17 338 0 q 296 -67 296 -35 q 317 -118 296 -99 q 368 -137 338 -137 m 504 425 q 602 447 568 425 q 636 514 636 468 q 602 581 636 560 q 504 603 568 603 q 409 581 444 603 q 374 514 374 560 q 389 465 374 485 q 433 435 404 444 q 504 425 463 425 m 388 807 l 388 1000 l 626 1000 l 626 807 l 388 807 z "},"h":{"ha":1011,"x_min":83,"x_max":929,"o":"m 83 0 l 83 1007 l 378 1007 l 378 653 l 388 653 q 458 708 418 686 q 544 740 499 729 q 636 750 590 750 q 799 716 735 750 q 897 616 864 682 q 929 454 929 550 l 929 0 l 635 0 l 635 419 q 628 468 635 446 q 607 506 621 490 q 572 531 593 522 q 519 540 550 540 q 446 522 478 540 q 396 474 414 504 q 378 404 378 443 l 378 0 l 83 0 z "},"ħ":{"ha":1011,"x_min":0,"x_max":929,"o":"m 83 0 l 83 1007 l 378 1007 l 378 653 l 388 653 q 458 708 418 686 q 544 740 499 729 q 636 750 590 750 q 799 716 735 750 q 897 616 864 682 q 929 454 929 550 l 929 0 l 635 0 l 635 419 q 628 468 635 446 q 607 506 621 490 q 572 531 593 522 q 519 540 550 540 q 446 522 478 540 q 396 474 414 504 q 378 404 378 443 l 378 0 l 83 0 m 0 785 l 0 938 l 679 938 l 679 785 l 0 785 z "},"ĥ":{"ha":1011,"x_min":-101,"x_max":929,"o":"m 83 0 l 83 1007 l 378 1007 l 378 653 l 388 653 q 458 708 418 686 q 544 740 499 729 q 636 750 590 750 q 799 716 735 750 q 897 616 864 682 q 929 454 929 550 l 929 0 l 635 0 l 635 419 q 628 468 635 446 q 607 506 621 490 q 572 531 593 522 q 519 540 550 540 q 446 522 478 540 q 396 474 414 504 q 378 404 378 443 l 378 0 l 83 0 m -101 1036 l 113 1229 l 347 1229 l 561 1036 l 344 1036 l 185 1172 l 274 1172 l 115 1036 l -101 1036 z "},"ḥ":{"ha":1011,"x_min":83,"x_max":929,"o":"m 83 0 l 83 1007 l 378 1007 l 378 653 l 388 653 q 458 708 418 686 q 544 740 499 729 q 636 750 590 750 q 799 716 735 750 q 897 616 864 682 q 929 454 929 550 l 929 0 l 635 0 l 635 419 q 628 468 635 446 q 607 506 621 490 q 572 531 593 522 q 519 540 550 540 q 446 522 478 540 q 396 474 414 504 q 378 404 378 443 l 378 0 l 83 0 m 386 -276 l 386 -83 l 625 -83 l 625 -276 l 386 -276 z "},"i":{"ha":461,"x_min":83,"x_max":378,"o":"m 83 819 l 83 1007 l 378 1007 l 378 819 l 83 819 m 83 0 l 83 733 l 378 733 l 378 0 l 83 0 z "},"ı":{"ha":461,"x_min":83,"x_max":378,"o":"m 83 0 l 83 733 l 378 733 l 378 0 l 83 0 z "},"í":{"ha":461,"x_min":72,"x_max":526,"o":"m 83 0 l 83 733 l 378 733 l 378 0 l 83 0 m 72 822 l 217 1007 l 525 1007 l 526 1001 l 292 822 l 72 822 z "},"ĭ":{"ha":461,"x_min":-57,"x_max":519,"o":"m 83 0 l 83 733 l 378 733 l 378 0 l 83 0 m 229 804 q 76 835 140 804 q -23 913 11 867 q -57 1007 -57 960 l 93 1007 q 119 972 97 988 q 171 947 140 956 q 231 938 201 938 q 300 949 269 938 q 349 976 331 960 q 371 1007 368 993 l 519 1007 q 484 913 519 960 q 384 835 449 867 q 229 804 319 804 z "},"ǐ":{"ha":461,"x_min":-96,"x_max":560,"o":"m 83 0 l 83 733 l 378 733 l 378 0 l 83 0 m -96 1007 l 117 1007 l 275 872 l 186 872 l 346 1007 l 560 1007 l 346 814 l 118 814 l -96 1007 z "},"î":{"ha":461,"x_min":-96,"x_max":560,"o":"m 83 0 l 83 733 l 378 733 l 378 0 l 83 0 m -96 814 l 118 1007 l 346 1007 l 560 814 l 346 814 l 186 950 l 275 950 l 117 814 l -96 814 z "},"ȉ":{"ha":461,"x_min":-224,"x_max":504,"o":"m 83 0 l 83 733 l 378 733 l 378 0 l 83 0 m 322 822 l 106 1000 l 107 1008 l 386 1008 l 504 822 l 322 822 m -8 822 l -224 1000 l -222 1008 l 56 1008 l 175 822 l -8 822 z "},"ï":{"ha":461,"x_min":-60,"x_max":522,"o":"m 83 0 l 83 733 l 378 733 l 378 0 l 83 0 m -60 807 l -60 1007 l 178 1007 l 178 807 l -60 807 m 283 807 l 283 1007 l 522 1007 l 522 807 l 283 807 z "},"ị":{"ha":461,"x_min":83,"x_max":378,"o":"m 83 819 l 83 1007 l 378 1007 l 378 819 l 83 819 m 83 0 l 83 733 l 378 733 l 378 0 l 83 0 m 111 -276 l 111 -83 l 350 -83 l 350 -276 l 111 -276 z "},"ì":{"ha":461,"x_min":-58,"x_max":396,"o":"m 83 0 l 83 733 l 378 733 l 378 0 l 83 0 m 396 822 l 176 822 l -58 1001 l -57 1007 l 251 1007 l 396 822 z "},"ỉ":{"ha":461,"x_min":83,"x_max":429,"o":"m 83 0 l 83 733 l 378 733 l 378 0 l 83 0 m 167 821 l 167 897 l 178 897 q 214 901 206 897 q 222 919 222 906 q 208 940 222 935 q 169 944 194 944 l 85 944 l 85 1017 q 131 1024 103 1021 q 185 1028 158 1026 q 231 1029 213 1029 q 290 1024 256 1029 q 356 1008 324 1019 q 408 979 388 997 q 429 933 429 961 q 409 890 429 907 q 358 866 389 874 q 293 856 326 858 l 293 821 l 167 821 z "},"ȋ":{"ha":461,"x_min":-58,"x_max":518,"o":"m 83 0 l 83 733 l 378 733 l 378 0 l 83 0 m 229 1007 q 383 976 318 1007 q 483 899 447 944 q 518 804 518 853 l 369 804 q 348 835 367 819 q 299 863 329 851 q 229 874 268 874 q 171 865 201 874 q 119 840 140 856 q 92 804 97 825 l -58 804 q -24 899 -58 853 q 76 976 11 944 q 229 1007 140 1007 z "},"ĳ":{"ha":918,"x_min":83,"x_max":838,"o":"m 83 819 l 83 1007 l 378 1007 l 378 819 l 83 819 m 83 0 l 83 733 l 378 733 l 378 0 l 83 0 m 544 819 l 544 1007 l 838 1007 l 838 819 l 544 819 m 558 -292 q 499 -289 533 -292 q 433 -280 465 -286 q 375 -267 400 -274 l 375 -99 l 451 -99 q 522 -73 499 -99 q 544 -4 544 -47 l 544 733 l 838 733 l 838 -21 q 810 -173 838 -112 q 720 -262 782 -233 q 558 -292 658 -292 z "},"ī":{"ha":461,"x_min":-17,"x_max":478,"o":"m 83 0 l 83 733 l 378 733 l 378 0 l 83 0 m -17 833 l -17 972 l 478 972 l 478 833 l -17 833 z "},"į":{"ha":461,"x_min":18,"x_max":378,"o":"m 83 819 l 83 1007 l 378 1007 l 378 819 l 83 819 m 83 0 l 83 733 l 378 733 l 378 0 l 83 0 m 207 -293 q 116 -277 160 -293 q 45 -226 72 -261 q 18 -135 18 -192 q 42 -47 18 -83 q 90 17 67 -11 l 251 17 l 251 11 q 213 -33 226 -6 q 200 -86 200 -60 q 219 -140 200 -115 q 276 -164 239 -164 l 375 -164 l 375 -272 q 293 -287 339 -282 q 207 -293 247 -293 z "},"ĩ":{"ha":461,"x_min":-111,"x_max":572,"o":"m 83 0 l 83 733 l 378 733 l 378 0 l 83 0 m -111 804 q -84 899 -111 851 q -8 976 -57 946 q 107 1007 42 1007 q 203 993 157 1007 q 292 965 249 979 q 376 950 335 950 q 426 966 406 950 q 453 1007 446 982 l 572 1007 q 545 913 572 960 q 469 835 518 867 q 356 804 421 804 q 259 819 306 804 q 169 848 213 833 q 86 863 126 863 q 37 846 57 863 q 8 804 17 829 l -111 804 z "},"j":{"ha":457,"x_min":-86,"x_max":378,"o":"m 83 819 l 83 1007 l 378 1007 l 378 819 l 83 819 m 99 -292 q 40 -289 74 -292 q -28 -280 6 -286 q -86 -267 -61 -274 l -86 -99 l -8 -99 q 60 -73 38 -99 q 83 -4 83 -47 l 83 733 l 378 733 l 378 -21 q 349 -173 378 -112 q 260 -262 321 -233 q 99 -292 199 -292 z "},"ȷ":{"ha":457,"x_min":-86,"x_max":378,"o":"m 99 -292 q 40 -289 74 -292 q -28 -280 6 -286 q -86 -267 -61 -274 l -86 -99 l -8 -99 q 61 -73 39 -99 q 83 -4 83 -47 l 83 733 l 378 733 l 378 -21 q 349 -173 378 -112 q 260 -262 321 -233 q 99 -292 199 -292 z "},"ĵ":{"ha":457,"x_min":-96,"x_max":560,"o":"m 99 -292 q 40 -289 74 -292 q -28 -280 6 -286 q -86 -267 -61 -274 l -86 -99 l -8 -99 q 61 -73 39 -99 q 83 -4 83 -47 l 83 733 l 378 733 l 378 -21 q 349 -173 378 -112 q 260 -262 321 -233 q 99 -292 199 -292 m -96 813 l 118 1006 l 346 1006 l 560 813 l 346 813 l 186 949 l 275 949 l 117 813 l -96 813 z "},"k":{"ha":1000,"x_min":83,"x_max":997,"o":"m 83 0 l 83 1008 l 378 1008 l 378 458 l 640 733 l 990 733 l 703 439 l 997 0 l 658 0 l 490 264 l 378 172 l 378 0 l 83 0 z "},"ķ":{"ha":1000,"x_min":83,"x_max":997,"o":"m 83 0 l 83 1008 l 378 1008 l 378 458 l 640 733 l 990 733 l 703 439 l 997 0 l 658 0 l 490 264 l 378 172 l 378 0 l 83 0 m 388 -474 l 388 -376 q 475 -349 446 -375 q 504 -272 504 -322 l 388 -272 l 388 -68 l 631 -68 l 631 -240 q 604 -369 631 -318 q 524 -445 578 -419 q 388 -474 471 -471 z "},"ĸ":{"ha":1000,"x_min":83,"x_max":997,"o":"m 83 0 l 83 733 l 378 733 l 378 458 l 640 733 l 990 733 l 703 439 l 997 0 l 658 0 l 490 264 l 378 172 l 378 0 l 83 0 z "},"l":{"ha":461,"x_min":83,"x_max":378,"o":"m 83 0 l 83 1007 l 378 1007 l 378 0 l 83 0 z "},"ĺ":{"ha":461,"x_min":81,"x_max":538,"o":"m 83 0 l 83 1007 l 378 1007 l 378 0 l 83 0 m 81 1044 l 224 1229 l 536 1229 l 538 1224 l 303 1044 l 81 1044 z "},"ľ":{"ha":461,"x_min":83,"x_max":674,"o":"m 83 0 l 83 1007 l 378 1007 l 378 0 l 83 0 m 440 771 l 440 1007 l 674 1007 l 611 771 l 440 771 z "},"ļ":{"ha":461,"x_min":83,"x_max":378,"o":"m 83 0 l 83 1007 l 378 1007 l 378 0 l 83 0 m 110 -474 l 110 -376 q 197 -349 168 -375 q 226 -272 226 -322 l 110 -272 l 110 -68 l 353 -68 l 353 -240 q 326 -369 353 -318 q 247 -445 300 -419 q 110 -474 193 -471 z "},"ŀ":{"ha":461,"x_min":83,"x_max":589,"o":"m 83 0 l 83 1007 l 378 1007 l 378 0 l 83 0 m 400 417 l 400 610 l 589 610 l 589 417 l 400 417 z "},"ǉ":{"ha":918,"x_min":83,"x_max":838,"o":"m 83 0 l 83 1007 l 378 1007 l 378 0 l 83 0 m 544 819 l 544 1007 l 838 1007 l 838 819 l 544 819 m 558 -292 q 499 -289 533 -292 q 433 -280 465 -286 q 375 -267 400 -274 l 375 -99 l 451 -99 q 522 -73 499 -99 q 544 -4 544 -47 l 544 733 l 838 733 l 838 -21 q 810 -173 838 -112 q 720 -262 782 -233 q 558 -292 658 -292 z "},"ł":{"ha":461,"x_min":-51,"x_max":511,"o":"m 83 0 l 83 1007 l 378 1007 l 378 0 l 83 0 m -51 281 l -51 417 l 511 731 l 511 592 l -51 281 z "},"m":{"ha":1529,"x_min":83,"x_max":1447,"o":"m 83 0 l 83 733 l 324 733 l 343 619 l 354 619 q 428 693 385 664 q 524 736 472 722 q 628 750 575 750 q 785 717 722 750 q 879 619 847 683 l 890 619 q 965 693 922 664 q 1060 736 1008 722 q 1163 750 1111 750 q 1322 716 1258 750 q 1416 616 1385 682 q 1447 454 1447 550 l 1447 0 l 1153 0 l 1153 419 q 1147 468 1153 446 q 1127 506 1140 490 q 1093 531 1114 522 q 1046 540 1072 540 q 976 522 1007 540 q 929 474 946 504 q 913 404 913 443 l 913 0 l 618 0 l 618 419 q 612 468 618 446 q 592 506 606 490 q 558 531 579 522 q 511 540 538 540 q 442 522 472 540 q 394 474 411 504 q 378 404 378 443 l 378 0 l 83 0 z "},"n":{"ha":1011,"x_min":83,"x_max":929,"o":"m 83 0 l 83 733 l 324 733 l 343 618 l 354 618 q 432 693 388 664 q 529 736 476 722 q 636 750 582 750 q 799 716 735 750 q 897 616 864 682 q 929 454 929 550 l 929 0 l 635 0 l 635 419 q 628 468 635 446 q 607 506 621 490 q 572 531 593 522 q 519 540 550 540 q 446 522 478 540 q 396 474 414 504 q 378 404 378 443 l 378 0 l 83 0 z "},"ń":{"ha":1011,"x_min":83,"x_max":929,"o":"m 83 0 l 83 733 l 324 733 l 343 618 l 354 618 q 432 693 388 664 q 529 736 476 722 q 636 750 582 750 q 799 716 735 750 q 897 616 864 682 q 929 454 929 550 l 929 0 l 635 0 l 635 419 q 628 468 635 446 q 607 506 621 490 q 572 531 593 522 q 519 540 550 540 q 446 522 478 540 q 396 474 414 504 q 378 404 378 443 l 378 0 l 83 0 m 349 822 l 492 1007 l 800 1007 l 801 1001 l 568 822 l 349 822 z "},"ŉ":{"ha":1011,"x_min":0,"x_max":929,"o":"m 83 0 l 83 733 l 324 733 l 343 618 l 354 618 q 432 693 388 664 q 529 736 476 722 q 636 750 582 750 q 799 716 735 750 q 897 616 864 682 q 929 454 929 550 l 929 0 l 635 0 l 635 419 q 628 468 635 446 q 607 506 621 490 q 572 531 593 522 q 519 540 550 540 q 446 522 478 540 q 396 474 414 504 q 378 404 378 443 l 378 0 l 83 0 m 0 763 l 0 858 q 90 881 63 858 q 117 957 117 903 l 0 957 l 0 1160 l 243 1160 l 243 989 q 217 860 243 910 q 138 786 192 810 q 0 763 85 763 z "},"ň":{"ha":1011,"x_min":83,"x_max":929,"o":"m 83 0 l 83 733 l 324 733 l 343 618 l 354 618 q 432 693 388 664 q 529 736 476 722 q 636 750 582 750 q 799 716 735 750 q 897 616 864 682 q 929 454 929 550 l 929 0 l 635 0 l 635 419 q 628 468 635 446 q 607 506 621 490 q 572 531 593 522 q 519 540 550 540 q 446 522 478 540 q 396 474 414 504 q 378 404 378 443 l 378 0 l 83 0 m 179 1007 l 393 1007 l 551 872 l 463 872 l 622 1007 l 835 1007 l 621 814 l 393 814 l 179 1007 z "},"ņ":{"ha":1011,"x_min":83,"x_max":929,"o":"m 83 0 l 83 733 l 324 733 l 343 618 l 354 618 q 432 693 388 664 q 529 736 476 722 q 636 750 582 750 q 799 716 735 750 q 897 616 864 682 q 929 454 929 550 l 929 0 l 635 0 l 635 419 q 628 468 635 446 q 607 506 621 490 q 572 531 593 522 q 519 540 550 540 q 446 522 478 540 q 396 474 414 504 q 378 404 378 443 l 378 0 l 83 0 m 386 -474 l 386 -376 q 474 -349 444 -375 q 503 -272 503 -322 l 386 -272 l 386 -68 l 629 -68 l 629 -240 q 603 -369 629 -318 q 523 -445 576 -419 q 386 -474 469 -471 z "},"ŋ":{"ha":1011,"x_min":83,"x_max":929,"o":"m 650 -292 q 591 -289 625 -292 q 524 -280 557 -286 q 465 -267 490 -274 l 465 -99 l 543 -99 q 613 -73 590 -99 q 635 -4 635 -47 l 635 419 q 628 468 635 446 q 607 506 621 490 q 572 531 593 522 q 519 540 550 540 q 446 522 478 540 q 396 474 414 504 q 378 404 378 443 l 378 0 l 83 0 l 83 733 l 324 733 l 343 618 l 354 618 q 432 693 388 664 q 529 736 476 722 q 636 750 582 750 q 799 716 735 750 q 897 616 864 682 q 929 454 929 550 l 929 -21 q 913 -141 929 -90 q 864 -225 897 -192 q 778 -275 831 -258 q 650 -292 725 -292 z "},"ɲ":{"ha":1011,"x_min":-86,"x_max":929,"o":"m 99 -292 q 40 -289 74 -292 q -28 -280 6 -286 q -86 -267 -61 -274 l -86 -99 l -8 -99 q 61 -73 39 -99 q 83 -4 83 -47 l 83 733 l 324 733 l 343 618 l 354 618 q 432 693 388 664 q 529 736 476 722 q 636 750 582 750 q 799 716 735 750 q 897 616 864 682 q 929 454 929 550 l 929 0 l 635 0 l 635 419 q 628 468 635 446 q 607 506 621 490 q 572 531 593 522 q 519 540 550 540 q 446 522 478 540 q 396 474 414 504 q 378 404 378 443 l 378 -21 q 362 -141 378 -90 q 313 -225 346 -192 q 226 -275 279 -258 q 99 -292 174 -292 z "},"ǌ":{"ha":1468,"x_min":83,"x_max":1388,"o":"m 83 0 l 83 733 l 324 733 l 343 618 l 354 618 q 432 693 388 664 q 529 736 476 722 q 636 750 582 750 q 799 716 735 750 q 897 616 864 682 q 929 454 929 550 l 929 0 l 635 0 l 635 419 q 628 468 635 446 q 607 506 621 490 q 572 531 593 522 q 519 540 550 540 q 446 522 478 540 q 396 474 414 504 q 378 404 378 443 l 378 0 l 83 0 m 1094 819 l 1094 1007 l 1388 1007 l 1388 819 l 1094 819 m 1108 -292 q 1050 -289 1083 -292 q 983 -280 1017 -286 q 925 -267 950 -274 l 925 -99 l 1001 -99 q 1072 -73 1049 -99 q 1094 -4 1094 -47 l 1094 733 l 1388 733 l 1388 -21 q 1360 -173 1388 -112 q 1270 -262 1332 -233 q 1108 -292 1208 -292 z "},"ñ":{"ha":1011,"x_min":83,"x_max":929,"o":"m 83 0 l 83 733 l 324 733 l 343 618 l 354 618 q 432 693 388 664 q 529 736 476 722 q 636 750 582 750 q 799 716 735 750 q 897 616 864 682 q 929 454 929 550 l 929 0 l 635 0 l 635 419 q 628 468 635 446 q 607 506 621 490 q 572 531 593 522 q 519 540 550 540 q 446 522 478 540 q 396 474 414 504 q 378 404 378 443 l 378 0 l 83 0 m 164 804 q 191 899 164 851 q 267 976 218 946 q 382 1007 317 1007 q 478 993 432 1007 q 567 965 524 979 q 651 950 610 950 q 701 966 681 950 q 729 1007 721 982 l 849 1007 q 822 913 849 960 q 746 835 794 867 q 631 804 697 804 q 534 819 581 804 q 445 848 488 833 q 361 863 403 863 q 313 846 332 863 q 283 804 293 829 l 164 804 z "},"o":{"ha":1026,"x_min":50,"x_max":976,"o":"m 513 -17 q 271 26 375 -17 q 108 153 167 68 q 50 367 50 239 q 108 581 50 496 q 271 708 167 667 q 513 750 375 750 q 756 708 651 750 q 918 581 860 667 q 976 367 976 496 q 918 153 976 239 q 756 26 860 68 q 513 -17 651 -17 m 513 175 q 608 197 571 175 q 661 255 644 218 q 678 340 678 292 l 678 393 q 661 479 678 442 q 608 538 644 517 q 513 558 571 558 q 418 538 454 558 q 365 479 382 517 q 349 393 349 442 l 349 340 q 365 255 349 292 q 418 197 382 218 q 513 175 454 175 z "},"ó":{"ha":1026,"x_min":50,"x_max":976,"o":"m 513 -17 q 271 26 375 -17 q 108 153 167 68 q 50 367 50 239 q 108 581 50 496 q 271 708 167 667 q 513 750 375 750 q 756 708 651 750 q 918 581 860 667 q 976 367 976 496 q 918 153 976 239 q 756 26 860 68 q 513 -17 651 -17 m 513 175 q 608 197 571 175 q 661 255 644 218 q 678 340 678 292 l 678 393 q 661 479 678 442 q 608 538 644 517 q 513 558 571 558 q 418 538 454 558 q 365 479 382 517 q 349 393 349 442 l 349 340 q 365 255 349 292 q 418 197 382 218 q 513 175 454 175 m 356 822 l 499 1007 l 807 1007 l 808 1001 l 575 822 l 356 822 z "},"ŏ":{"ha":1026,"x_min":50,"x_max":976,"o":"m 513 -17 q 271 26 375 -17 q 108 153 167 68 q 50 367 50 239 q 108 581 50 496 q 271 708 167 667 q 513 750 375 750 q 756 708 651 750 q 918 581 860 667 q 976 367 976 496 q 918 153 976 239 q 756 26 860 68 q 513 -17 651 -17 m 513 175 q 608 197 571 175 q 661 255 644 218 q 678 340 678 292 l 678 393 q 661 479 678 442 q 608 538 644 517 q 513 558 571 558 q 418 538 454 558 q 365 479 382 517 q 349 393 349 442 l 349 340 q 365 255 349 292 q 418 197 382 218 q 513 175 454 175 m 513 804 q 359 835 424 804 q 260 914 294 867 q 225 1007 225 961 l 375 1007 q 402 972 381 988 q 454 947 424 956 q 513 938 485 938 q 582 949 551 938 q 631 976 613 960 q 653 1007 650 993 l 801 1007 q 767 914 801 961 q 667 835 732 867 q 513 804 601 804 z "},"ǒ":{"ha":1026,"x_min":50,"x_max":976,"o":"m 513 -17 q 271 26 375 -17 q 108 153 167 68 q 50 367 50 239 q 108 581 50 496 q 271 708 167 667 q 513 750 375 750 q 756 708 651 750 q 918 581 860 667 q 976 367 976 496 q 918 153 976 239 q 756 26 860 68 q 513 -17 651 -17 m 513 175 q 608 197 571 175 q 661 255 644 218 q 678 340 678 292 l 678 393 q 661 479 678 442 q 608 538 644 517 q 513 558 571 558 q 418 538 454 558 q 365 479 382 517 q 349 393 349 442 l 349 340 q 365 255 349 292 q 418 197 382 218 q 513 175 454 175 m 186 1007 l 400 1007 l 558 872 l 469 872 l 629 1007 l 842 1007 l 628 814 l 400 814 l 186 1007 z "},"ô":{"ha":1026,"x_min":50,"x_max":976,"o":"m 513 -17 q 271 26 375 -17 q 108 153 167 68 q 50 367 50 239 q 108 581 50 496 q 271 708 167 667 q 513 750 375 750 q 756 708 651 750 q 918 581 860 667 q 976 367 976 496 q 918 153 976 239 q 756 26 860 68 q 513 -17 651 -17 m 513 175 q 608 197 571 175 q 661 255 644 218 q 678 340 678 292 l 678 393 q 661 479 678 442 q 608 538 644 517 q 513 558 571 558 q 418 538 454 558 q 365 479 382 517 q 349 393 349 442 l 349 340 q 365 255 349 292 q 418 197 382 218 q 513 175 454 175 m 186 814 l 400 1007 l 628 1007 l 842 814 l 629 814 l 469 950 l 558 950 l 400 814 l 186 814 z "},"ố":{"ha":1026,"x_min":50,"x_max":976,"o":"m 513 -17 q 271 26 375 -17 q 108 153 167 68 q 50 367 50 239 q 108 581 50 496 q 271 708 167 667 q 513 750 375 750 q 756 708 651 750 q 918 581 860 667 q 976 367 976 496 q 918 153 976 239 q 756 26 860 68 q 513 -17 651 -17 m 513 175 q 608 197 571 175 q 661 255 644 218 q 678 340 678 292 l 678 393 q 661 479 678 442 q 608 538 644 517 q 513 558 571 558 q 418 538 454 558 q 365 479 382 517 q 349 393 349 442 l 349 340 q 365 255 349 292 q 418 197 382 218 q 513 175 454 175 m 186 814 l 400 1007 l 628 1007 l 842 814 l 629 814 l 469 950 l 558 950 l 400 814 l 186 814 m 356 1075 l 499 1260 l 807 1260 l 808 1254 l 575 1075 l 356 1075 z "},"ộ":{"ha":1026,"x_min":50,"x_max":976,"o":"m 513 -17 q 271 26 375 -17 q 108 153 167 68 q 50 367 50 239 q 108 581 50 496 q 271 708 167 667 q 513 750 375 750 q 756 708 651 750 q 918 581 860 667 q 976 367 976 496 q 918 153 976 239 q 756 26 860 68 q 513 -17 651 -17 m 513 175 q 608 197 571 175 q 661 255 644 218 q 678 340 678 292 l 678 393 q 661 479 678 442 q 608 538 644 517 q 513 558 571 558 q 418 538 454 558 q 365 479 382 517 q 349 393 349 442 l 349 340 q 365 255 349 292 q 418 197 382 218 q 513 175 454 175 m 394 -276 l 394 -83 l 633 -83 l 633 -276 l 394 -276 m 186 814 l 400 1007 l 628 1007 l 842 814 l 629 814 l 469 950 l 558 950 l 400 814 l 186 814 z "},"ồ":{"ha":1026,"x_min":50,"x_max":976,"o":"m 513 -17 q 271 26 375 -17 q 108 153 167 68 q 50 367 50 239 q 108 581 50 496 q 271 708 167 667 q 513 750 375 750 q 756 708 651 750 q 918 581 860 667 q 976 367 976 496 q 918 153 976 239 q 756 26 860 68 q 513 -17 651 -17 m 513 175 q 608 197 571 175 q 661 255 644 218 q 678 340 678 292 l 678 393 q 661 479 678 442 q 608 538 644 517 q 513 558 571 558 q 418 538 454 558 q 365 479 382 517 q 349 393 349 442 l 349 340 q 365 255 349 292 q 418 197 382 218 q 513 175 454 175 m 186 814 l 400 1007 l 628 1007 l 842 814 l 629 814 l 469 950 l 558 950 l 400 814 l 186 814 m 678 1075 l 458 1075 l 225 1254 l 226 1260 l 535 1260 l 678 1075 z "},"ổ":{"ha":1026,"x_min":50,"x_max":976,"o":"m 513 -17 q 271 26 375 -17 q 108 153 167 68 q 50 367 50 239 q 108 581 50 496 q 271 708 167 667 q 513 750 375 750 q 756 708 651 750 q 918 581 860 667 q 976 367 976 496 q 918 153 976 239 q 756 26 860 68 q 513 -17 651 -17 m 513 175 q 608 197 571 175 q 661 255 644 218 q 678 340 678 292 l 678 393 q 661 479 678 442 q 608 538 644 517 q 513 558 571 558 q 418 538 454 558 q 365 479 382 517 q 349 393 349 442 l 349 340 q 365 255 349 292 q 418 197 382 218 q 513 175 454 175 m 186 814 l 400 1007 l 628 1007 l 842 814 l 629 814 l 469 950 l 558 950 l 400 814 l 186 814 m 450 1074 l 450 1150 l 460 1150 q 497 1154 489 1150 q 504 1172 504 1158 q 491 1192 504 1188 q 453 1197 478 1197 l 368 1197 l 368 1269 q 413 1276 386 1274 q 468 1281 440 1279 q 514 1282 496 1282 q 573 1277 539 1282 q 638 1261 607 1272 q 691 1232 669 1250 q 713 1186 713 1214 q 692 1143 713 1160 q 641 1119 672 1126 q 576 1108 610 1111 l 576 1074 l 450 1074 z "},"ỗ":{"ha":1026,"x_min":50,"x_max":976,"o":"m 513 -17 q 271 26 375 -17 q 108 153 167 68 q 50 367 50 239 q 108 581 50 496 q 271 708 167 667 q 513 750 375 750 q 756 708 651 750 q 918 581 860 667 q 976 367 976 496 q 918 153 976 239 q 756 26 860 68 q 513 -17 651 -17 m 513 175 q 608 197 571 175 q 661 255 644 218 q 678 340 678 292 l 678 393 q 661 479 678 442 q 608 538 644 517 q 513 558 571 558 q 418 538 454 558 q 365 479 382 517 q 349 393 349 442 l 349 340 q 365 255 349 292 q 418 197 382 218 q 513 175 454 175 m 186 814 l 400 1007 l 628 1007 l 842 814 l 629 814 l 469 950 l 558 950 l 400 814 l 186 814 m 171 1057 q 198 1151 171 1104 q 274 1229 225 1199 q 389 1260 324 1260 q 485 1246 439 1260 q 574 1217 531 1232 q 658 1203 617 1203 q 708 1219 688 1203 q 736 1260 728 1235 l 856 1260 q 828 1166 856 1213 q 753 1088 801 1119 q 638 1057 704 1057 q 541 1072 588 1057 q 452 1101 494 1086 q 368 1115 410 1115 q 319 1099 339 1115 q 290 1057 300 1082 l 171 1057 z "},"ȍ":{"ha":1026,"x_min":50,"x_max":976,"o":"m 513 -17 q 271 26 375 -17 q 108 153 167 68 q 50 367 50 239 q 108 581 50 496 q 271 708 167 667 q 513 750 375 750 q 756 708 651 750 q 918 581 860 667 q 976 367 976 496 q 918 153 976 239 q 756 26 860 68 q 513 -17 651 -17 m 513 175 q 608 197 571 175 q 661 255 644 218 q 678 340 678 292 l 678 393 q 661 479 678 442 q 608 538 644 517 q 513 558 571 558 q 418 538 454 558 q 365 479 382 517 q 349 393 349 442 l 349 340 q 365 255 349 292 q 418 197 382 218 q 513 175 454 175 m 604 822 l 389 1000 l 390 1008 l 668 1008 l 788 822 l 604 822 m 275 822 l 58 1000 l 60 1008 l 338 1008 l 457 822 l 275 822 z "},"ö":{"ha":1026,"x_min":50,"x_max":976,"o":"m 513 -17 q 271 26 375 -17 q 108 153 167 68 q 50 367 50 239 q 108 581 50 496 q 271 708 167 667 q 513 750 375 750 q 756 708 651 750 q 918 581 860 667 q 976 367 976 496 q 918 153 976 239 q 756 26 860 68 q 513 -17 651 -17 m 513 175 q 608 197 571 175 q 661 255 644 218 q 678 340 678 292 l 678 393 q 661 479 678 442 q 608 538 644 517 q 513 558 571 558 q 418 538 454 558 q 365 479 382 517 q 349 393 349 442 l 349 340 q 365 255 349 292 q 418 197 382 218 q 513 175 454 175 m 222 807 l 222 1007 l 460 1007 l 460 807 l 222 807 m 565 807 l 565 1007 l 804 1007 l 804 807 l 565 807 z "},"ȫ":{"ha":1026,"x_min":50,"x_max":976,"o":"m 513 -17 q 271 26 375 -17 q 108 153 167 68 q 50 367 50 239 q 108 581 50 496 q 271 708 167 667 q 513 750 375 750 q 756 708 651 750 q 918 581 860 667 q 976 367 976 496 q 918 153 976 239 q 756 26 860 68 q 513 -17 651 -17 m 513 175 q 608 197 571 175 q 661 255 644 218 q 678 340 678 292 l 678 393 q 661 479 678 442 q 608 538 644 517 q 513 558 571 558 q 418 538 454 558 q 365 479 382 517 q 349 393 349 442 l 349 340 q 365 255 349 292 q 418 197 382 218 q 513 175 454 175 m 222 807 l 222 1007 l 460 1007 l 460 807 l 222 807 m 565 807 l 565 1007 l 804 1007 l 804 807 l 565 807 m 267 1072 l 267 1211 l 761 1211 l 761 1072 l 267 1072 z "},"ȱ":{"ha":1026,"x_min":50,"x_max":976,"o":"m 513 -17 q 271 26 375 -17 q 108 153 167 68 q 50 367 50 239 q 108 581 50 496 q 271 708 167 667 q 513 750 375 750 q 756 708 651 750 q 918 581 860 667 q 976 367 976 496 q 918 153 976 239 q 756 26 860 68 q 513 -17 651 -17 m 513 175 q 608 197 571 175 q 661 255 644 218 q 678 340 678 292 l 678 393 q 661 479 678 442 q 608 538 644 517 q 513 558 571 558 q 418 538 454 558 q 365 479 382 517 q 349 393 349 442 l 349 340 q 365 255 349 292 q 418 197 382 218 q 513 175 454 175 m 394 807 l 394 1000 l 633 1000 l 633 807 l 394 807 m 267 1072 l 267 1211 l 761 1211 l 761 1072 l 267 1072 z "}}}
